<?xml version="1.0" encoding="UTF-8" standalone="no"?>
<svg
   xmlns:dc="http://purl.org/dc/elements/1.1/"
   xmlns:cc="http://creativecommons.org/ns#"
   xmlns:rdf="http://www.w3.org/1999/02/22-rdf-syntax-ns#"
   xmlns:svg="http://www.w3.org/2000/svg"
   xmlns="http://www.w3.org/2000/svg"
   xmlns:sodipodi="http://sodipodi.sourceforge.net/DTD/sodipodi-0.dtd"
   xmlns:inkscape="http://www.inkscape.org/namespaces/inkscape"
   inkscape:version="1.0 (4035a4fb49, 2020-05-01)"
   height="227.82393"
   width="231.53999"
   sodipodi:docname="sulogo.svg"
   version="1.1"
   viewBox="0 0 231.53999 227.82393"
   data-name="Vrstva 1"
   id="Vrstva_1">
  <metadata
     id="metadata57">
    <rdf:RDF>
      <cc:Work
         rdf:about="">
        <dc:format>image/svg+xml</dc:format>
        <dc:type
           rdf:resource="http://purl.org/dc/dcmitype/StillImage" />
        <dc:title></dc:title>
      </cc:Work>
    </rdf:RDF>
  </metadata>
  <defs
     id="defs55" />
  <sodipodi:namedview
     inkscape:current-layer="Vrstva_1"
     inkscape:window-maximized="1"
     inkscape:window-y="-7"
     inkscape:window-x="-8"
     inkscape:cy="119.72894"
     inkscape:cx="135.81857"
     inkscape:zoom="2.9521593"
     fit-margin-bottom="0"
     fit-margin-right="0"
     fit-margin-left="0"
     fit-margin-top="0"
     showgrid="false"
     id="namedview53"
     inkscape:window-height="1017"
     inkscape:window-width="1920"
     inkscape:pageshadow="2"
     inkscape:pageopacity="0"
     guidetolerance="10"
     gridtolerance="10"
     objecttolerance="10"
     borderopacity="1"
     bordercolor="#666666"
     pagecolor="#ffffff" />
  <polygon
     transform="translate(-102.42)"
     id="polygon2"
     points="232.94,0.3 231.26,0.64 229.63,1.17 227.99,1.79 226.44,2.56 224.95,3.42 223.54,4.39 222.24,5.52 221,6.71 219.88,8.04 218.89,9.4 217.98,10.87 217.24,12.42 216.64,13.99 216.14,15.61 215.81,17.3 215.59,18.95 215.52,20.69 215.62,22.37 215.82,24.07 216.22,25.74 216.69,27.32 217.33,28.89 218.1,30.44 218.99,31.89 220,33.28 221.12,34.55 222.35,35.77 223.69,36.87 225.08,37.83 226.6,38.69 228.16,39.44 229.75,40.05 231.43,40.53 233.13,40.86 234.88,41.09 236.6,41.13 238.31,41.05 240.05,40.82 241.73,40.46 243.39,40 245.01,39.39 246.58,38.62 248,37.74 249.45,36.72 250.77,35.64 251.99,34.42 253.1,33.12 254.09,31.77 255,30.3 255.74,28.75 256.34,27.18 256.85,25.52 257.2,23.87 257.4,22.15 257.43,20.46 257.4,18.81 257.18,17.11 256.81,15.43 256.31,13.79 255.67,12.22 254.88,10.7 254.01,9.24 253,7.9 251.84,6.58 250.62,5.39 249.28,4.29 247.88,3.33 246.38,2.44 244.8,1.72 243.21,1.11 241.54,0.63 239.83,0.28 238.12,0.09 236.4,0 234.67,0.09 " />
  <path
     id="path4"
     d="m 75.8,91 a 10.72,10.72 0 0 1 -6.63,-19.16 105,105 0 0 1 129.77,0 10.722575,10.722575 0 1 1 -13.24,16.87 c -7,-5.5 -26.21,-18.21 -52.83,-17.87 A 84.44,84.44 0 0 0 82.41,88.71 10.68,10.68 0 0 1 75.8,91 Z" />
  <polygon
     transform="translate(-102.42)"
     id="polygon6"
     points="332.67,203.55 333.21,201.92 333.57,200.25 333.85,198.52 333.96,196.78 333.96,195.07 333.82,193.37 333.49,191.67 333.09,190 332.49,188.37 331.81,186.83 330.99,185.31 330.02,183.88 328.96,182.59 327.81,181.34 326.51,180.22 325.19,179.19 323.72,178.26 322.21,177.51 320.64,176.84 319,176.34 317.39,175.96 315.71,175.73 313.98,175.62 312.28,175.67 310.57,175.85 308.91,176.18 307.25,176.64 305.62,177.25 304.09,177.98 302.59,178.86 301.15,179.84 299.84,180.91 298.58,182.12 297.45,183.43 296.38,184.83 295.47,186.3 294.69,187.82 294.02,189.45 293.49,191.08 293.06,192.75 292.78,194.46 292.66,196.2 292.71,197.87 292.87,199.63 293.15,201.32 293.6,202.98 294.16,204.59 294.84,206.13 295.65,207.65 296.63,209.07 297.69,210.38 298.87,211.64 300.13,212.77 301.51,213.81 302.96,214.68 304.41,215.47 305.99,216.13 307.63,216.66 309.3,217.04 310.98,217.27 312.69,217.35 314.39,217.33 316.06,217.12 317.77,216.78 319.42,216.31 321.04,215.7 322.57,214.97 324.09,214.12 325.51,213.11 326.83,212.04 328.08,210.83 329.24,209.53 330.25,208.14 331.19,206.69 331.98,205.15 " />
  <path
     id="path8"
     d="m 179.09,110.83 a 10.73,10.73 0 0 1 19.91,3.84 105,105 0 0 1 -64.88,112.38 10.723922,10.723922 0 1 1 -8,-19.9 c 8.27,-3.33 28.88,-13.59 41.9,-36.82 a 84.37,84.37 0 0 0 9.75,-52.63 10.61,10.61 0 0 1 1.32,-6.87 z" />
  <polygon
     transform="translate(-102.42)"
     id="polygon10"
     points="107.29,188.67 108.43,189.96 109.7,191.1 111.05,192.21 112.5,193.17 113.98,194.03 115.53,194.77 117.16,195.32 118.81,195.81 120.53,196.11 122.2,196.29 123.92,196.34 125.64,196.21 127.3,195.94 128.95,195.57 130.57,195.01 132.12,194.37 133.66,193.57 135.07,192.64 136.44,191.61 137.68,190.44 138.82,189.24 139.86,187.9 140.82,186.46 141.63,184.96 142.32,183.39 142.87,181.78 143.3,180.11 143.59,178.4 143.72,176.71 143.71,174.97 143.58,173.24 143.31,171.56 142.89,169.87 142.32,168.23 141.65,166.6 140.83,165.09 139.9,163.65 138.82,162.25 137.68,160.97 136.45,159.77 135.11,158.68 133.66,157.7 132.18,156.91 130.58,156.16 128.98,155.56 127.31,155.12 125.64,154.81 123.96,154.62 122.24,154.57 120.53,154.7 118.87,154.97 117.18,155.36 115.57,155.88 113.99,156.56 112.5,157.38 111.09,158.24 109.73,159.28 108.46,160.44 107.29,161.69 106.25,163.03 105.33,164.47 104.5,165.95 103.84,167.5 103.28,169.16 102.86,170.82 102.58,172.53 102.44,174.22 102.42,175.96 102.59,177.69 102.86,179.37 103.28,181.06 103.83,182.72 104.52,184.29 105.3,185.82 106.25,187.28 " />
  <path
     id="path12"
     d="M 110.75,190.73 A 10.73,10.73 0 0 1 97.47,206.05 104.95,104.95 0 0 1 32.58,93.67 a 10.73,10.73 0 0 1 21.24,3 c -1.26,8.82 -2.67,31.8 10.93,54.69 a 84.37,84.37 0 0 0 40.71,34.76 10.7,10.7 0 0 1 5.29,4.61 z" />
</svg>
