%FSLAX45Y45*%
G04 Gerber Fmt 4.5, Leading zero omitted, Abs format (unit mm)*
G04 Created by KiCad (PCBNEW (6.0.5)) date 2022-11-29 16:27:28*
%MOMM*%
%LPD*%
G01*
G04 APERTURE LIST*
%TA.AperFunction,Profile*%
%ADD10C,0.246758*%
%TD*%
%ADD11C,0.200000*%
%ADD12C,0.040000*%
G04 APERTURE END LIST*
D10*
X12572000Y-12702252D02*
X17313130Y-4490373D01*
X12572000Y-12702252D02*
X12572000Y-12702252D01*
X22054260Y-12702252D02*
X12572000Y-12702252D01*
X17313130Y-4490373D02*
X22054260Y-12702252D01*
X17313130Y-4490373D02*
X17313130Y-4490373D01*
D11*
D12*
X14585000Y-11511600D02*
X14625000Y-11551600D01*
X14625000Y-11511600D02*
X14585000Y-11551600D01*
X14940600Y-11206800D02*
X14980600Y-11246800D01*
X14980600Y-11206800D02*
X14940600Y-11246800D01*
X15104000Y-8667200D02*
X15144000Y-8707200D01*
X15144000Y-8667200D02*
X15104000Y-8707200D01*
X16196000Y-9782200D02*
X16236000Y-9822200D01*
X16236000Y-9782200D02*
X16196000Y-9822200D01*
X16212000Y-10172200D02*
X16252000Y-10212200D01*
X16252000Y-10172200D02*
X16212000Y-10212200D01*
X16341000Y-9354200D02*
X16381000Y-9394200D01*
X16381000Y-9354200D02*
X16341000Y-9394200D01*
X16439000Y-10654200D02*
X16479000Y-10694200D01*
X16479000Y-10654200D02*
X16439000Y-10694200D01*
X16716000Y-8977200D02*
X16756000Y-9017200D01*
X16756000Y-8977200D02*
X16716000Y-9017200D01*
X16807000Y-10940200D02*
X16847000Y-10980200D01*
X16847000Y-10940200D02*
X16807000Y-10980200D01*
X16928843Y-9967803D02*
X16968843Y-10007803D01*
X16968843Y-9967803D02*
X16928843Y-10007803D01*
X16947534Y-9809994D02*
X16987534Y-9849994D01*
X16987534Y-9809994D02*
X16947534Y-9849994D01*
X16977334Y-10118888D02*
X17017334Y-10158888D01*
X17017334Y-10118888D02*
X16977334Y-10158888D01*
X17023629Y-9680329D02*
X17063629Y-9720329D01*
X17063629Y-9680329D02*
X17023629Y-9720329D01*
X17081566Y-10235288D02*
X17121566Y-10275288D01*
X17121566Y-10235288D02*
X17081566Y-10275288D01*
X17149958Y-9587689D02*
X17189958Y-9627689D01*
X17189958Y-9587689D02*
X17149958Y-9627689D01*
X17154000Y-8823200D02*
X17194000Y-8863200D01*
X17194000Y-8823200D02*
X17154000Y-8863200D01*
X17224959Y-10298371D02*
X17264959Y-10338371D01*
X17264959Y-10298371D02*
X17224959Y-10338371D01*
X17289000Y-11052200D02*
X17329000Y-11092200D01*
X17329000Y-11052200D02*
X17289000Y-11092200D01*
X17302000Y-12454200D02*
X17342000Y-12494200D01*
X17342000Y-12454200D02*
X17302000Y-12494200D01*
X17302879Y-9555621D02*
X17342879Y-9595621D01*
X17342879Y-9555621D02*
X17302879Y-9595621D01*
X17375954Y-10299872D02*
X17415954Y-10339872D01*
X17415954Y-10299872D02*
X17375954Y-10339872D01*
X17404400Y-6761800D02*
X17444400Y-6801800D01*
X17444400Y-6761800D02*
X17404400Y-6801800D01*
X17404400Y-7269800D02*
X17444400Y-7309800D01*
X17444400Y-7269800D02*
X17404400Y-7309800D01*
X17457967Y-9589170D02*
X17497967Y-9629170D01*
X17497967Y-9589170D02*
X17457967Y-9629170D01*
X17521967Y-10237154D02*
X17561967Y-10277154D01*
X17561967Y-10237154D02*
X17521967Y-10277154D01*
X17585289Y-9684261D02*
X17625289Y-9724261D01*
X17625289Y-9684261D02*
X17585289Y-9724261D01*
X17616000Y-8860200D02*
X17656000Y-8900200D01*
X17656000Y-8860200D02*
X17616000Y-8900200D01*
X17628565Y-10119618D02*
X17668565Y-10159618D01*
X17668565Y-10119618D02*
X17628565Y-10159618D01*
X17660189Y-9815427D02*
X17700189Y-9855427D01*
X17700189Y-9815427D02*
X17660189Y-9855427D01*
X17677254Y-9971150D02*
X17717254Y-10011150D01*
X17717254Y-9971150D02*
X17677254Y-10011150D01*
X17733000Y-10966200D02*
X17773000Y-11006200D01*
X17773000Y-10966200D02*
X17733000Y-11006200D01*
X18002000Y-9057200D02*
X18042000Y-9097200D01*
X18042000Y-9057200D02*
X18002000Y-9097200D01*
X18061000Y-10751200D02*
X18101000Y-10791200D01*
X18101000Y-10751200D02*
X18061000Y-10791200D01*
X18308000Y-9433200D02*
X18348000Y-9473200D01*
X18348000Y-9433200D02*
X18308000Y-9473200D01*
X18354000Y-10332200D02*
X18394000Y-10372200D01*
X18394000Y-10332200D02*
X18354000Y-10372200D01*
X18421000Y-9902200D02*
X18461000Y-9942200D01*
X18461000Y-9902200D02*
X18421000Y-9942200D01*
X19480000Y-8672200D02*
X19520000Y-8712200D01*
X19520000Y-8672200D02*
X19480000Y-8712200D01*
X19639600Y-11333800D02*
X19679600Y-11373800D01*
X19679600Y-11333800D02*
X19639600Y-11373800D01*
X20020600Y-11638600D02*
X20060600Y-11678600D01*
X20060600Y-11638600D02*
X20020600Y-11678600D01*
D11*
X12817281Y-13025066D02*
X12817281Y-12825066D01*
X12864900Y-12825066D01*
X12893472Y-12834590D01*
X12912519Y-12853638D01*
X12922043Y-12872686D01*
X12931567Y-12910781D01*
X12931567Y-12939352D01*
X12922043Y-12977447D01*
X12912519Y-12996495D01*
X12893472Y-13015543D01*
X12864900Y-13025066D01*
X12817281Y-13025066D01*
X13017281Y-13025066D02*
X13017281Y-12891733D01*
X13017281Y-12929828D02*
X13026805Y-12910781D01*
X13036329Y-12901257D01*
X13055377Y-12891733D01*
X13074424Y-12891733D01*
X13141091Y-13025066D02*
X13141091Y-12891733D01*
X13141091Y-12825066D02*
X13131567Y-12834590D01*
X13141091Y-12844114D01*
X13150615Y-12834590D01*
X13141091Y-12825066D01*
X13141091Y-12844114D01*
X13264900Y-13025066D02*
X13245853Y-13015543D01*
X13236329Y-12996495D01*
X13236329Y-12825066D01*
X13369662Y-13025066D02*
X13350615Y-13015543D01*
X13341091Y-12996495D01*
X13341091Y-12825066D01*
X13598234Y-13025066D02*
X13598234Y-12825066D01*
X13664900Y-12967924D01*
X13731567Y-12825066D01*
X13731567Y-13025066D01*
X13912519Y-13025066D02*
X13912519Y-12920305D01*
X13902996Y-12901257D01*
X13883948Y-12891733D01*
X13845853Y-12891733D01*
X13826805Y-12901257D01*
X13912519Y-13015543D02*
X13893472Y-13025066D01*
X13845853Y-13025066D01*
X13826805Y-13015543D01*
X13817281Y-12996495D01*
X13817281Y-12977447D01*
X13826805Y-12958400D01*
X13845853Y-12948876D01*
X13893472Y-12948876D01*
X13912519Y-12939352D01*
X14007758Y-12891733D02*
X14007758Y-13091733D01*
X14007758Y-12901257D02*
X14026805Y-12891733D01*
X14064900Y-12891733D01*
X14083948Y-12901257D01*
X14093472Y-12910781D01*
X14102996Y-12929828D01*
X14102996Y-12986971D01*
X14093472Y-13006019D01*
X14083948Y-13015543D01*
X14064900Y-13025066D01*
X14026805Y-13025066D01*
X14007758Y-13015543D01*
X14188710Y-13006019D02*
X14198234Y-13015543D01*
X14188710Y-13025066D01*
X14179186Y-13015543D01*
X14188710Y-13006019D01*
X14188710Y-13025066D01*
X14188710Y-12901257D02*
X14198234Y-12910781D01*
X14188710Y-12920305D01*
X14179186Y-12910781D01*
X14188710Y-12901257D01*
X14188710Y-12920305D01*
D12*
X12519662Y-13334590D02*
X12559662Y-13374590D01*
X12559662Y-13334590D02*
X12519662Y-13374590D01*
D11*
X12855377Y-13245066D02*
X12874424Y-13245066D01*
X12893472Y-13254590D01*
X12902996Y-13264114D01*
X12912519Y-13283162D01*
X12922043Y-13321257D01*
X12922043Y-13368876D01*
X12912519Y-13406971D01*
X12902996Y-13426019D01*
X12893472Y-13435543D01*
X12874424Y-13445066D01*
X12855377Y-13445066D01*
X12836329Y-13435543D01*
X12826805Y-13426019D01*
X12817281Y-13406971D01*
X12807758Y-13368876D01*
X12807758Y-13321257D01*
X12817281Y-13283162D01*
X12826805Y-13264114D01*
X12836329Y-13254590D01*
X12855377Y-13245066D01*
X13007758Y-13426019D02*
X13017281Y-13435543D01*
X13007758Y-13445066D01*
X12998234Y-13435543D01*
X13007758Y-13426019D01*
X13007758Y-13445066D01*
X13188710Y-13311733D02*
X13188710Y-13445066D01*
X13141091Y-13235543D02*
X13093472Y-13378400D01*
X13217281Y-13378400D01*
X13331567Y-13245066D02*
X13350615Y-13245066D01*
X13369662Y-13254590D01*
X13379186Y-13264114D01*
X13388710Y-13283162D01*
X13398234Y-13321257D01*
X13398234Y-13368876D01*
X13388710Y-13406971D01*
X13379186Y-13426019D01*
X13369662Y-13435543D01*
X13350615Y-13445066D01*
X13331567Y-13445066D01*
X13312519Y-13435543D01*
X13302996Y-13426019D01*
X13293472Y-13406971D01*
X13283948Y-13368876D01*
X13283948Y-13321257D01*
X13293472Y-13283162D01*
X13302996Y-13264114D01*
X13312519Y-13254590D01*
X13331567Y-13245066D01*
X13522043Y-13245066D02*
X13541091Y-13245066D01*
X13560138Y-13254590D01*
X13569662Y-13264114D01*
X13579186Y-13283162D01*
X13588710Y-13321257D01*
X13588710Y-13368876D01*
X13579186Y-13406971D01*
X13569662Y-13426019D01*
X13560138Y-13435543D01*
X13541091Y-13445066D01*
X13522043Y-13445066D01*
X13502996Y-13435543D01*
X13493472Y-13426019D01*
X13483948Y-13406971D01*
X13474424Y-13368876D01*
X13474424Y-13321257D01*
X13483948Y-13283162D01*
X13493472Y-13264114D01*
X13502996Y-13254590D01*
X13522043Y-13245066D01*
X13674424Y-13445066D02*
X13674424Y-13311733D01*
X13674424Y-13330781D02*
X13683948Y-13321257D01*
X13702996Y-13311733D01*
X13731567Y-13311733D01*
X13750615Y-13321257D01*
X13760138Y-13340305D01*
X13760138Y-13445066D01*
X13760138Y-13340305D02*
X13769662Y-13321257D01*
X13788710Y-13311733D01*
X13817281Y-13311733D01*
X13836329Y-13321257D01*
X13845853Y-13340305D01*
X13845853Y-13445066D01*
X13941091Y-13445066D02*
X13941091Y-13311733D01*
X13941091Y-13330781D02*
X13950615Y-13321257D01*
X13969662Y-13311733D01*
X13998234Y-13311733D01*
X14017281Y-13321257D01*
X14026805Y-13340305D01*
X14026805Y-13445066D01*
X14026805Y-13340305D02*
X14036329Y-13321257D01*
X14055377Y-13311733D01*
X14083948Y-13311733D01*
X14102996Y-13321257D01*
X14112519Y-13340305D01*
X14112519Y-13445066D01*
X14502996Y-13235543D02*
X14331567Y-13492686D01*
X14760138Y-13245066D02*
X14779186Y-13245066D01*
X14798234Y-13254590D01*
X14807758Y-13264114D01*
X14817281Y-13283162D01*
X14826805Y-13321257D01*
X14826805Y-13368876D01*
X14817281Y-13406971D01*
X14807758Y-13426019D01*
X14798234Y-13435543D01*
X14779186Y-13445066D01*
X14760138Y-13445066D01*
X14741091Y-13435543D01*
X14731567Y-13426019D01*
X14722043Y-13406971D01*
X14712519Y-13368876D01*
X14712519Y-13321257D01*
X14722043Y-13283162D01*
X14731567Y-13264114D01*
X14741091Y-13254590D01*
X14760138Y-13245066D01*
X14912519Y-13426019D02*
X14922043Y-13435543D01*
X14912519Y-13445066D01*
X14902996Y-13435543D01*
X14912519Y-13426019D01*
X14912519Y-13445066D01*
X15045853Y-13245066D02*
X15064900Y-13245066D01*
X15083948Y-13254590D01*
X15093472Y-13264114D01*
X15102996Y-13283162D01*
X15112519Y-13321257D01*
X15112519Y-13368876D01*
X15102996Y-13406971D01*
X15093472Y-13426019D01*
X15083948Y-13435543D01*
X15064900Y-13445066D01*
X15045853Y-13445066D01*
X15026805Y-13435543D01*
X15017281Y-13426019D01*
X15007758Y-13406971D01*
X14998234Y-13368876D01*
X14998234Y-13321257D01*
X15007758Y-13283162D01*
X15017281Y-13264114D01*
X15026805Y-13254590D01*
X15045853Y-13245066D01*
X15302996Y-13445066D02*
X15188710Y-13445066D01*
X15245853Y-13445066D02*
X15245853Y-13245066D01*
X15226805Y-13273638D01*
X15207758Y-13292686D01*
X15188710Y-13302209D01*
X15483948Y-13245066D02*
X15388710Y-13245066D01*
X15379186Y-13340305D01*
X15388710Y-13330781D01*
X15407758Y-13321257D01*
X15455377Y-13321257D01*
X15474424Y-13330781D01*
X15483948Y-13340305D01*
X15493472Y-13359352D01*
X15493472Y-13406971D01*
X15483948Y-13426019D01*
X15474424Y-13435543D01*
X15455377Y-13445066D01*
X15407758Y-13445066D01*
X15388710Y-13435543D01*
X15379186Y-13426019D01*
X15560138Y-13245066D02*
X15693472Y-13245066D01*
X15607758Y-13445066D01*
X15760138Y-13245066D02*
X15760138Y-13283162D01*
X15836329Y-13245066D02*
X15836329Y-13283162D01*
X16131567Y-13521257D02*
X16122043Y-13511733D01*
X16102996Y-13483162D01*
X16093472Y-13464114D01*
X16083948Y-13435543D01*
X16074424Y-13387924D01*
X16074424Y-13349828D01*
X16083948Y-13302209D01*
X16093472Y-13273638D01*
X16102996Y-13254590D01*
X16122043Y-13226019D01*
X16131567Y-13216495D01*
X16188710Y-13245066D02*
X16312519Y-13245066D01*
X16245853Y-13321257D01*
X16274424Y-13321257D01*
X16293472Y-13330781D01*
X16302996Y-13340305D01*
X16312519Y-13359352D01*
X16312519Y-13406971D01*
X16302996Y-13426019D01*
X16293472Y-13435543D01*
X16274424Y-13445066D01*
X16217281Y-13445066D01*
X16198234Y-13435543D01*
X16188710Y-13426019D01*
X16407758Y-13445066D02*
X16445853Y-13445066D01*
X16464900Y-13435543D01*
X16474424Y-13426019D01*
X16493472Y-13397447D01*
X16502996Y-13359352D01*
X16502996Y-13283162D01*
X16493472Y-13264114D01*
X16483948Y-13254590D01*
X16464900Y-13245066D01*
X16426805Y-13245066D01*
X16407758Y-13254590D01*
X16398234Y-13264114D01*
X16388710Y-13283162D01*
X16388710Y-13330781D01*
X16398234Y-13349828D01*
X16407758Y-13359352D01*
X16426805Y-13368876D01*
X16464900Y-13368876D01*
X16483948Y-13359352D01*
X16493472Y-13349828D01*
X16502996Y-13330781D01*
X16741091Y-13445066D02*
X16741091Y-13245066D01*
X16826805Y-13445066D02*
X16826805Y-13340305D01*
X16817281Y-13321257D01*
X16798234Y-13311733D01*
X16769662Y-13311733D01*
X16750615Y-13321257D01*
X16741091Y-13330781D01*
X16950615Y-13445066D02*
X16931567Y-13435543D01*
X16922043Y-13426019D01*
X16912520Y-13406971D01*
X16912520Y-13349828D01*
X16922043Y-13330781D01*
X16931567Y-13321257D01*
X16950615Y-13311733D01*
X16979186Y-13311733D01*
X16998234Y-13321257D01*
X17007758Y-13330781D01*
X17017281Y-13349828D01*
X17017281Y-13406971D01*
X17007758Y-13426019D01*
X16998234Y-13435543D01*
X16979186Y-13445066D01*
X16950615Y-13445066D01*
X17131567Y-13445066D02*
X17112520Y-13435543D01*
X17102996Y-13416495D01*
X17102996Y-13245066D01*
X17283948Y-13435543D02*
X17264900Y-13445066D01*
X17226805Y-13445066D01*
X17207758Y-13435543D01*
X17198234Y-13416495D01*
X17198234Y-13340305D01*
X17207758Y-13321257D01*
X17226805Y-13311733D01*
X17264900Y-13311733D01*
X17283948Y-13321257D01*
X17293472Y-13340305D01*
X17293472Y-13359352D01*
X17198234Y-13378400D01*
X17369662Y-13435543D02*
X17388710Y-13445066D01*
X17426805Y-13445066D01*
X17445853Y-13435543D01*
X17455377Y-13416495D01*
X17455377Y-13406971D01*
X17445853Y-13387924D01*
X17426805Y-13378400D01*
X17398234Y-13378400D01*
X17379186Y-13368876D01*
X17369662Y-13349828D01*
X17369662Y-13340305D01*
X17379186Y-13321257D01*
X17398234Y-13311733D01*
X17426805Y-13311733D01*
X17445853Y-13321257D01*
X17522043Y-13521257D02*
X17531567Y-13511733D01*
X17550615Y-13483162D01*
X17560139Y-13464114D01*
X17569662Y-13435543D01*
X17579186Y-13387924D01*
X17579186Y-13349828D01*
X17569662Y-13302209D01*
X17560139Y-13273638D01*
X17550615Y-13254590D01*
X17531567Y-13226019D01*
X17522043Y-13216495D01*
M02*
