M48
; DRILL file {KiCad (6.0.5)} date Tue Nov 29 16:27:16 2022
; FORMAT={-:-/ absolute / metric / decimal}
; #@! TF.CreationDate,2022-11-29T16:27:16+01:00
; #@! TF.GenerationSoftware,Kicad,Pcbnew,(6.0.5)
; #@! TF.FileFunction,Plated,1,2,PTH
FMAT,2
METRIC
; #@! TA.AperFunction,Plated,PTH,ViaDrill
T1C0.400
%
G90
G05
T1
X146.05Y-115.316
X149.606Y-112.268
X151.24Y-86.872
X162.16Y-98.022
X162.32Y-101.922
X163.61Y-93.742
X164.59Y-106.742
X167.36Y-89.972
X168.27Y-109.602
X169.488Y-99.878
X169.675Y-98.3
X169.973Y-101.389
X170.436Y-97.003
X171.016Y-102.553
X171.7Y-96.077
X171.74Y-88.432
X172.45Y-103.184
X173.09Y-110.722
X173.22Y-124.742
X173.229Y-95.756
X173.96Y-103.199
X174.244Y-67.818
X174.244Y-72.898
X174.78Y-96.092
X175.42Y-102.572
X176.053Y-97.043
X176.36Y-88.802
X176.486Y-101.396
X176.802Y-98.354
X176.973Y-99.911
X177.53Y-109.862
X180.22Y-90.772
X180.81Y-107.712
X183.28Y-94.532
X183.74Y-103.522
X184.41Y-99.222
X195.0Y-86.922
X196.596Y-113.538
X200.406Y-116.586
T0
M30
