%TF.GenerationSoftware,KiCad,Pcbnew,(6.0.5)*%
%TF.CreationDate,2022-11-29T16:25:59+01:00*%
%TF.ProjectId,sublink,7375626c-696e-46b2-9e6b-696361645f70,rev?*%
%TF.SameCoordinates,Original*%
%TF.FileFunction,Copper,L2,Bot*%
%TF.FilePolarity,Positive*%
%FSLAX46Y46*%
G04 Gerber Fmt 4.6, Leading zero omitted, Abs format (unit mm)*
G04 Created by KiCad (PCBNEW (6.0.5)) date 2022-11-29 16:25:59*
%MOMM*%
%LPD*%
G01*
G04 APERTURE LIST*
G04 Aperture macros list*
%AMRoundRect*
0 Rectangle with rounded corners*
0 $1 Rounding radius*
0 $2 $3 $4 $5 $6 $7 $8 $9 X,Y pos of 4 corners*
0 Add a 4 corners polygon primitive as box body*
4,1,4,$2,$3,$4,$5,$6,$7,$8,$9,$2,$3,0*
0 Add four circle primitives for the rounded corners*
1,1,$1+$1,$2,$3*
1,1,$1+$1,$4,$5*
1,1,$1+$1,$6,$7*
1,1,$1+$1,$8,$9*
0 Add four rect primitives between the rounded corners*
20,1,$1+$1,$2,$3,$4,$5,0*
20,1,$1+$1,$4,$5,$6,$7,0*
20,1,$1+$1,$6,$7,$8,$9,0*
20,1,$1+$1,$8,$9,$2,$3,0*%
%AMRotRect*
0 Rectangle, with rotation*
0 The origin of the aperture is its center*
0 $1 length*
0 $2 width*
0 $3 Rotation angle, in degrees counterclockwise*
0 Add horizontal line*
21,1,$1,$2,0,0,$3*%
G04 Aperture macros list end*
%TA.AperFunction,SMDPad,CuDef*%
%ADD10RoundRect,0.250000X-0.350000X-0.450000X0.350000X-0.450000X0.350000X0.450000X-0.350000X0.450000X0*%
%TD*%
%TA.AperFunction,SMDPad,CuDef*%
%ADD11R,1.400000X1.600000*%
%TD*%
%TA.AperFunction,SMDPad,CuDef*%
%ADD12R,1.000000X1.000000*%
%TD*%
%TA.AperFunction,SMDPad,CuDef*%
%ADD13RoundRect,1.000000X1.000000X-1.000000X1.000000X1.000000X-1.000000X1.000000X-1.000000X-1.000000X0*%
%TD*%
%TA.AperFunction,SMDPad,CuDef*%
%ADD14RotRect,2.500000X1.000000X30.000000*%
%TD*%
%TA.AperFunction,SMDPad,CuDef*%
%ADD15RoundRect,0.250000X0.450000X-0.350000X0.450000X0.350000X-0.450000X0.350000X-0.450000X-0.350000X0*%
%TD*%
%TA.AperFunction,SMDPad,CuDef*%
%ADD16RoundRect,0.250000X0.475000X-0.337500X0.475000X0.337500X-0.475000X0.337500X-0.475000X-0.337500X0*%
%TD*%
%TA.AperFunction,SMDPad,CuDef*%
%ADD17RoundRect,0.250000X0.400000X0.625000X-0.400000X0.625000X-0.400000X-0.625000X0.400000X-0.625000X0*%
%TD*%
%TA.AperFunction,SMDPad,CuDef*%
%ADD18RoundRect,0.250000X-0.450000X0.350000X-0.450000X-0.350000X0.450000X-0.350000X0.450000X0.350000X0*%
%TD*%
%TA.AperFunction,SMDPad,CuDef*%
%ADD19R,1.200000X2.500000*%
%TD*%
%TA.AperFunction,SMDPad,CuDef*%
%ADD20RoundRect,0.250000X0.070711X-0.565685X0.565685X-0.070711X-0.070711X0.565685X-0.565685X0.070711X0*%
%TD*%
%TA.AperFunction,SMDPad,CuDef*%
%ADD21RoundRect,0.150000X-0.587500X-0.150000X0.587500X-0.150000X0.587500X0.150000X-0.587500X0.150000X0*%
%TD*%
%TA.AperFunction,SMDPad,CuDef*%
%ADD22RoundRect,0.150000X0.150000X-0.825000X0.150000X0.825000X-0.150000X0.825000X-0.150000X-0.825000X0*%
%TD*%
%TA.AperFunction,ViaPad*%
%ADD23C,0.800000*%
%TD*%
%TA.AperFunction,Conductor*%
%ADD24C,0.300000*%
%TD*%
%TA.AperFunction,Conductor*%
%ADD25C,0.600000*%
%TD*%
%TA.AperFunction,Conductor*%
%ADD26C,0.900000*%
%TD*%
%TA.AperFunction,Conductor*%
%ADD27C,0.250000*%
%TD*%
G04 APERTURE END LIST*
D10*
X188820000Y-103662000D03*
X190820000Y-103662000D03*
D11*
X175478000Y-83296000D03*
X175478000Y-75296000D03*
X170978000Y-83296000D03*
X170978000Y-75296000D03*
X158770000Y-83296000D03*
X158770000Y-75296000D03*
X163270000Y-83296000D03*
X163270000Y-75296000D03*
D12*
X202100000Y-100822000D03*
X202100000Y-103322000D03*
D13*
X205480000Y-123412000D03*
X205480000Y-107412000D03*
X184480000Y-123412000D03*
X184480000Y-107412000D03*
D14*
X171872210Y-70070057D03*
X170602210Y-67870352D03*
X169332210Y-65670648D03*
X168062210Y-63470943D03*
D15*
X157988000Y-103616000D03*
X157988000Y-101616000D03*
D16*
X160528000Y-95779500D03*
X160528000Y-93704500D03*
D17*
X181740000Y-103742000D03*
X178640000Y-103742000D03*
D18*
X144590000Y-101562000D03*
X144590000Y-103562000D03*
D15*
X160528000Y-103632000D03*
X160528000Y-101632000D03*
D12*
X199200000Y-100772000D03*
X199200000Y-103272000D03*
D19*
X178094000Y-89706000D03*
X180594000Y-89706000D03*
X183094000Y-89706000D03*
X178094000Y-95206000D03*
X180594000Y-95206000D03*
X183094000Y-95206000D03*
D20*
X153275786Y-85246212D03*
X154690000Y-83831998D03*
D15*
X152908000Y-103632000D03*
X152908000Y-101632000D03*
D21*
X194462500Y-102722000D03*
X194462500Y-100822000D03*
X196337500Y-101772000D03*
D18*
X147828000Y-101600000D03*
X147828000Y-103600000D03*
D22*
X157226000Y-95439000D03*
X155956000Y-95439000D03*
X154686000Y-95439000D03*
X153416000Y-95439000D03*
X152146000Y-95439000D03*
X150876000Y-95439000D03*
X149606000Y-95439000D03*
X149606000Y-90489000D03*
X150876000Y-90489000D03*
X152146000Y-90489000D03*
X153416000Y-90489000D03*
X154686000Y-90489000D03*
X155956000Y-90489000D03*
X157226000Y-90489000D03*
D15*
X150368000Y-103632000D03*
X150368000Y-101632000D03*
D11*
X187686000Y-83296000D03*
X187686000Y-75296000D03*
X183186000Y-75296000D03*
X183186000Y-83296000D03*
D15*
X155448000Y-103632000D03*
X155448000Y-101632000D03*
D23*
X175419667Y-102571540D03*
X172449589Y-103183711D03*
X170436294Y-97003292D03*
X171699576Y-96076892D03*
X176052891Y-97042610D03*
X173228787Y-95756211D03*
X176485649Y-101396175D03*
X169675341Y-98299937D03*
X176801891Y-98354265D03*
X169973339Y-101388882D03*
X173959543Y-103198722D03*
X176972537Y-99911499D03*
X174779674Y-96091696D03*
X171015662Y-102552877D03*
X169488434Y-99878032D03*
X177530000Y-109862000D03*
X195000000Y-86922000D03*
X180810000Y-107712000D03*
X162320000Y-101922000D03*
X163610000Y-93742000D03*
X196596000Y-113538000D03*
X173090000Y-110722000D03*
X174244000Y-72898000D03*
X176360000Y-88802000D03*
X183740000Y-103522000D03*
X162160000Y-98022000D03*
X171740000Y-88432000D03*
X184410000Y-99222000D03*
X168270000Y-109602000D03*
X164590000Y-106742000D03*
X167360000Y-89972000D03*
X151240000Y-86872000D03*
X173220000Y-124742000D03*
X149606000Y-112268000D03*
X174244000Y-67818000D03*
X200406000Y-116586000D03*
X146050000Y-115316000D03*
X183280000Y-94532000D03*
X180220000Y-90772000D03*
D24*
X161907338Y-105156000D02*
X156972000Y-105156000D01*
X156972000Y-105156000D02*
X155448000Y-103632000D01*
X172449589Y-103183711D02*
X172449589Y-101534341D01*
X175297338Y-102449211D02*
X175419667Y-102571540D01*
X168003338Y-99060000D02*
X161907338Y-105156000D01*
X172449589Y-101534341D02*
X169975248Y-99060000D01*
X173184089Y-102449211D02*
X175297338Y-102449211D01*
X170436294Y-98598954D02*
X169975248Y-99060000D01*
X169975248Y-99060000D02*
X168003338Y-99060000D01*
X172449589Y-103183711D02*
X173184089Y-102449211D01*
X170436294Y-97003292D02*
X170436294Y-98598954D01*
X162018534Y-103632000D02*
X160528000Y-103632000D01*
X175212904Y-94750489D02*
X173025979Y-94750489D01*
X173025979Y-94750489D02*
X171699576Y-96076892D01*
X176052891Y-95590476D02*
X175212904Y-94750489D01*
X171376954Y-95754270D02*
X169896264Y-95754270D01*
X169896264Y-95754270D02*
X162018534Y-103632000D01*
X171699576Y-96076892D02*
X171376954Y-95754270D01*
X176052891Y-97042610D02*
X176052891Y-95590476D01*
X169686783Y-96692833D02*
X170125835Y-96253781D01*
X169675341Y-97031341D02*
X169672000Y-97028000D01*
X170125835Y-96253781D02*
X170746753Y-96253781D01*
X168056998Y-98299937D02*
X161775415Y-104581520D01*
X176485649Y-101396175D02*
X176547831Y-101396175D01*
X177722048Y-100221958D02*
X177722048Y-99274422D01*
X175553371Y-95797371D02*
X175553371Y-96482160D01*
X176547831Y-101396175D02*
X177722048Y-100221958D01*
X169675341Y-98299937D02*
X168056998Y-98299937D01*
X175303380Y-97353069D02*
X176304576Y-98354265D01*
X174561400Y-95250000D02*
X175006000Y-95250000D01*
X175006000Y-95250000D02*
X175553371Y-95797371D01*
X171319375Y-96826403D02*
X172158595Y-96826403D01*
X177722048Y-99274422D02*
X176801891Y-98354265D01*
X169686783Y-97013217D02*
X169686783Y-96692833D01*
X175303380Y-96732151D02*
X175303380Y-97353069D01*
X173228787Y-95756211D02*
X174055189Y-95756211D01*
X169675341Y-98299937D02*
X169675341Y-97031341D01*
X170746753Y-96253781D02*
X171319375Y-96826403D01*
X175553371Y-96482160D02*
X175303380Y-96732151D01*
X176304576Y-98354265D02*
X176801891Y-98354265D01*
X169672000Y-97028000D02*
X169686783Y-97013217D01*
X174055189Y-95756211D02*
X174561400Y-95250000D01*
X172158595Y-96826403D02*
X173228787Y-95756211D01*
X158953520Y-104581520D02*
X157988000Y-103616000D01*
X161775415Y-104581520D02*
X158953520Y-104581520D01*
X174779674Y-97718636D02*
X176972537Y-99911499D01*
X153208000Y-106472000D02*
X150368000Y-103632000D01*
X176169178Y-102976822D02*
X175768000Y-103378000D01*
X176237372Y-100646664D02*
X176175190Y-100646664D01*
X175736138Y-101085716D02*
X175736138Y-101706634D01*
X171700078Y-102873252D02*
X171700078Y-103494170D01*
X171700078Y-103494170D02*
X172139130Y-103933222D01*
X174138821Y-103378000D02*
X173959543Y-103198722D01*
X171950069Y-102100069D02*
X171950069Y-102623261D01*
X176169178Y-102139674D02*
X176169178Y-102976822D01*
X175768000Y-103378000D02*
X174138821Y-103378000D01*
X173225043Y-103933222D02*
X173959543Y-103198722D01*
X176175190Y-100646664D02*
X175736138Y-101085716D01*
X175736138Y-101706634D02*
X176169178Y-102139674D01*
X172139130Y-103933222D02*
X173225043Y-103933222D01*
X176972537Y-99911499D02*
X176237372Y-100646664D01*
X171950069Y-102623261D02*
X171700078Y-102873252D01*
X165819296Y-103494170D02*
X162841466Y-106472000D01*
X174779674Y-96091696D02*
X174779674Y-97718636D01*
X169973339Y-101388882D02*
X171238882Y-101388882D01*
X171700078Y-103494170D02*
X165819296Y-103494170D01*
X162841466Y-106472000D02*
X153208000Y-106472000D01*
X171238882Y-101388882D02*
X171950069Y-102100069D01*
X155194000Y-105918000D02*
X152908000Y-103632000D01*
X169223828Y-101699341D02*
X170077364Y-102552877D01*
X169223828Y-101699341D02*
X166270659Y-101699341D01*
X169223828Y-100142638D02*
X169223828Y-101699341D01*
X170077364Y-102552877D02*
X171015662Y-102552877D01*
X166270659Y-101699341D02*
X162052000Y-105918000D01*
X162052000Y-105918000D02*
X155194000Y-105918000D01*
X169488434Y-99878032D02*
X169223828Y-100142638D01*
D25*
X205520000Y-123422000D02*
X184520000Y-123422000D01*
D26*
X160528000Y-93704500D02*
X160441500Y-93704500D01*
D24*
X160310000Y-78211998D02*
X160310000Y-74142000D01*
X162640000Y-71812000D02*
X167200000Y-68262000D01*
X160310000Y-74142000D02*
X162640000Y-71812000D01*
X171550000Y-65862000D02*
X172288000Y-65862000D01*
X167200000Y-68262000D02*
X171550000Y-65862000D01*
X154690000Y-83831998D02*
X160310000Y-78211998D01*
X172288000Y-65862000D02*
X174244000Y-67818000D01*
D27*
X147828000Y-103600000D02*
X160814000Y-116586000D01*
X160814000Y-116586000D02*
X200406000Y-116586000D01*
X144590000Y-113856000D02*
X146050000Y-115316000D01*
X144590000Y-103562000D02*
X144590000Y-113856000D01*
D26*
X197837500Y-103272000D02*
X196337500Y-101772000D01*
D25*
X188849340Y-101772000D02*
X184520000Y-106101340D01*
X196337500Y-101772000D02*
X188849340Y-101772000D01*
X184520000Y-106522000D02*
X181740000Y-103742000D01*
D26*
X199200000Y-103272000D02*
X197837500Y-103272000D01*
D25*
X184520000Y-107422000D02*
X184520000Y-106522000D01*
X184520000Y-106101340D02*
X184520000Y-107422000D01*
D26*
X195012500Y-100272000D02*
X194462500Y-100822000D01*
X199250000Y-100822000D02*
X199200000Y-100772000D01*
X198700000Y-100272000D02*
X195012500Y-100272000D01*
X194462500Y-100822000D02*
X187690000Y-100822000D01*
X187690000Y-100822000D02*
X183094000Y-96226000D01*
X199200000Y-100772000D02*
X198700000Y-100272000D01*
X183094000Y-96226000D02*
X183094000Y-95206000D01*
X202100000Y-100822000D02*
X199250000Y-100822000D01*
D25*
X202100000Y-103322000D02*
X201150000Y-104272000D01*
D27*
X190820000Y-103662000D02*
X193522500Y-103662000D01*
X193522500Y-103662000D02*
X194462500Y-102722000D01*
D25*
X196012500Y-104272000D02*
X194462500Y-102722000D01*
X201150000Y-104272000D02*
X196012500Y-104272000D01*
X202100000Y-103322000D02*
X202100000Y-104002000D01*
X202100000Y-104002000D02*
X205520000Y-107422000D01*
D27*
X160900000Y-85072000D02*
X160400000Y-85572000D01*
X163100000Y-72572000D02*
X160900000Y-74772000D01*
X170602210Y-67870352D02*
X165900562Y-72572000D01*
X152146000Y-88426000D02*
X152146000Y-90489000D01*
X160900000Y-74772000D02*
X160900000Y-85072000D01*
X155000000Y-85572000D02*
X152146000Y-88426000D01*
X170602210Y-67870352D02*
X170381648Y-67870352D01*
X165900562Y-72572000D02*
X163100000Y-72572000D01*
X170381648Y-67870352D02*
X170180000Y-68072000D01*
X160400000Y-85572000D02*
X155000000Y-85572000D01*
X153275786Y-86296214D02*
X153275786Y-85246212D01*
X150876000Y-88696000D02*
X153275786Y-86296214D01*
X150876000Y-90489000D02*
X150876000Y-88696000D01*
X147450000Y-94032000D02*
X149606000Y-91876000D01*
X147450000Y-98112000D02*
X147450000Y-94032000D01*
X144590000Y-100972000D02*
X147450000Y-98112000D01*
X149700000Y-90583000D02*
X149606000Y-90489000D01*
X149606000Y-91876000D02*
X149606000Y-90489000D01*
X144590000Y-101562000D02*
X144590000Y-100972000D01*
X149510000Y-99642000D02*
X149510000Y-95535000D01*
X149510000Y-95535000D02*
X149606000Y-95439000D01*
X147828000Y-101324000D02*
X149510000Y-99642000D01*
D24*
X149606000Y-95439000D02*
X149606000Y-96166000D01*
D27*
X147828000Y-101600000D02*
X147828000Y-101324000D01*
D24*
X150876000Y-101124000D02*
X150368000Y-101632000D01*
X150876000Y-95439000D02*
X150876000Y-101124000D01*
X155956000Y-95439000D02*
X155956000Y-97060000D01*
X155956000Y-97060000D02*
X160528000Y-101632000D01*
X154686000Y-98314000D02*
X157988000Y-101616000D01*
X154686000Y-95439000D02*
X154686000Y-98314000D01*
X153416000Y-95439000D02*
X153416000Y-99600000D01*
X153416000Y-99600000D02*
X155448000Y-101632000D01*
X152146000Y-95439000D02*
X152146000Y-100870000D01*
X152146000Y-100870000D02*
X152908000Y-101632000D01*
X155993598Y-86372000D02*
X160294000Y-86372000D01*
X163270000Y-83296000D02*
X163270000Y-75296000D01*
X160294000Y-86372000D02*
X163270000Y-83396000D01*
X153416000Y-90489000D02*
X153416000Y-88949598D01*
X153416000Y-88949598D02*
X155993598Y-86372000D01*
X163270000Y-83396000D02*
X163270000Y-83296000D01*
X168900000Y-86972000D02*
X170978000Y-84894000D01*
X170978000Y-84894000D02*
X170978000Y-75296000D01*
X154686000Y-88386000D02*
X156100000Y-86972000D01*
X154686000Y-90489000D02*
X154686000Y-88386000D01*
X156100000Y-86972000D02*
X168900000Y-86972000D01*
X174409501Y-87562499D02*
X178676000Y-83296000D01*
X155956000Y-90489000D02*
X155956000Y-90076893D01*
X178676000Y-83296000D02*
X183186000Y-83296000D01*
X183186000Y-83296000D02*
X183186000Y-75296000D01*
X158470394Y-87562499D02*
X174409501Y-87562499D01*
X155956000Y-90076893D02*
X158470394Y-87562499D01*
D26*
X160538292Y-95779500D02*
X160545792Y-95772000D01*
X160545792Y-95772000D02*
X163064925Y-95772000D01*
X179554000Y-91972000D02*
X180594000Y-93012000D01*
X160528000Y-95779500D02*
X157566500Y-95779500D01*
X180594000Y-93012000D02*
X180594000Y-95206000D01*
X179319075Y-92206925D02*
X179554000Y-91972000D01*
X163064925Y-95772000D02*
X166630000Y-92206925D01*
X160528000Y-95779500D02*
X160538292Y-95779500D01*
X180594000Y-90932000D02*
X180594000Y-89706000D01*
X157566500Y-95779500D02*
X157226000Y-95439000D01*
X179554000Y-91972000D02*
X180594000Y-90932000D01*
X166630000Y-92206925D02*
X179319075Y-92206925D01*
X171872210Y-70070057D02*
X172774153Y-70972000D01*
X181662000Y-70972000D02*
X185400000Y-74710000D01*
X178094000Y-88098000D02*
X178094000Y-89706000D01*
X185400000Y-74710000D02*
X185400000Y-83882000D01*
X172774153Y-70972000D02*
X181662000Y-70972000D01*
X180020000Y-86172000D02*
X178094000Y-88098000D01*
X183110000Y-86172000D02*
X180020000Y-86172000D01*
X185400000Y-83882000D02*
X183110000Y-86172000D01*
%TA.AperFunction,Conductor*%
G36*
X173209190Y-45657686D02*
G01*
X173240421Y-45693729D01*
X195983239Y-85085455D01*
X219201598Y-125300843D01*
X219912998Y-126533025D01*
X219929736Y-126602020D01*
X219906516Y-126669112D01*
X219850708Y-126712999D01*
X219803879Y-126722025D01*
X126458722Y-126722025D01*
X126390601Y-126702023D01*
X126344108Y-126648367D01*
X126334004Y-126578093D01*
X126349603Y-126533025D01*
X126740024Y-125856797D01*
X128178208Y-123365789D01*
X130425996Y-123365789D01*
X130434913Y-123603295D01*
X130483719Y-123835904D01*
X130485677Y-123840863D01*
X130485678Y-123840865D01*
X130544894Y-123990807D01*
X130571020Y-124056963D01*
X130573787Y-124061522D01*
X130573788Y-124061525D01*
X130589224Y-124086963D01*
X130694319Y-124260153D01*
X130697816Y-124264183D01*
X130813098Y-124397034D01*
X130850090Y-124439664D01*
X130854216Y-124443047D01*
X130854220Y-124443051D01*
X130897060Y-124478177D01*
X131033880Y-124590362D01*
X131038516Y-124593001D01*
X131038519Y-124593003D01*
X131086582Y-124620362D01*
X131240433Y-124707939D01*
X131463844Y-124789034D01*
X131469092Y-124789983D01*
X131693641Y-124830588D01*
X131693648Y-124830589D01*
X131697725Y-124831326D01*
X131715991Y-124832187D01*
X131721131Y-124832430D01*
X131721138Y-124832430D01*
X131722619Y-124832500D01*
X131889680Y-124832500D01*
X131972026Y-124825513D01*
X132061512Y-124817920D01*
X132061516Y-124817919D01*
X132066823Y-124817469D01*
X132071978Y-124816131D01*
X132071984Y-124816130D01*
X132291703Y-124759102D01*
X132291702Y-124759102D01*
X132296874Y-124757760D01*
X132442117Y-124692333D01*
X132508715Y-124662333D01*
X132508718Y-124662332D01*
X132513576Y-124660143D01*
X132710732Y-124527409D01*
X132762341Y-124478177D01*
X181972000Y-124478177D01*
X181972161Y-124482690D01*
X181982220Y-124623016D01*
X181983622Y-124632448D01*
X182035203Y-124859488D01*
X182038219Y-124869112D01*
X182125332Y-125084723D01*
X182129852Y-125093749D01*
X182250312Y-125292652D01*
X182256220Y-125300843D01*
X182406940Y-125477939D01*
X182414061Y-125485060D01*
X182591157Y-125635780D01*
X182599348Y-125641688D01*
X182798251Y-125762148D01*
X182807277Y-125766668D01*
X183022888Y-125853781D01*
X183032512Y-125856797D01*
X183259552Y-125908378D01*
X183268984Y-125909780D01*
X183409310Y-125919839D01*
X183413823Y-125920000D01*
X184207885Y-125920000D01*
X184223124Y-125915525D01*
X184224329Y-125914135D01*
X184226000Y-125906452D01*
X184226000Y-125901885D01*
X184734000Y-125901885D01*
X184738475Y-125917124D01*
X184739865Y-125918329D01*
X184747548Y-125920000D01*
X185546177Y-125920000D01*
X185550690Y-125919839D01*
X185691016Y-125909780D01*
X185700448Y-125908378D01*
X185927488Y-125856797D01*
X185937112Y-125853781D01*
X186152723Y-125766668D01*
X186161749Y-125762148D01*
X186360652Y-125641688D01*
X186368843Y-125635780D01*
X186545939Y-125485060D01*
X186553060Y-125477939D01*
X186703780Y-125300843D01*
X186709688Y-125292652D01*
X186830148Y-125093749D01*
X186834668Y-125084723D01*
X186921781Y-124869112D01*
X186924797Y-124859488D01*
X186976378Y-124632448D01*
X186977780Y-124623016D01*
X186987839Y-124482690D01*
X186988000Y-124478177D01*
X202972000Y-124478177D01*
X202972161Y-124482690D01*
X202982220Y-124623016D01*
X202983622Y-124632448D01*
X203035203Y-124859488D01*
X203038219Y-124869112D01*
X203125332Y-125084723D01*
X203129852Y-125093749D01*
X203250312Y-125292652D01*
X203256220Y-125300843D01*
X203406940Y-125477939D01*
X203414061Y-125485060D01*
X203591157Y-125635780D01*
X203599348Y-125641688D01*
X203798251Y-125762148D01*
X203807277Y-125766668D01*
X204022888Y-125853781D01*
X204032512Y-125856797D01*
X204259552Y-125908378D01*
X204268984Y-125909780D01*
X204409310Y-125919839D01*
X204413823Y-125920000D01*
X205207885Y-125920000D01*
X205223124Y-125915525D01*
X205224329Y-125914135D01*
X205226000Y-125906452D01*
X205226000Y-125901885D01*
X205734000Y-125901885D01*
X205738475Y-125917124D01*
X205739865Y-125918329D01*
X205747548Y-125920000D01*
X206546177Y-125920000D01*
X206550690Y-125919839D01*
X206691016Y-125909780D01*
X206700448Y-125908378D01*
X206927488Y-125856797D01*
X206937112Y-125853781D01*
X207152723Y-125766668D01*
X207161749Y-125762148D01*
X207360652Y-125641688D01*
X207368843Y-125635780D01*
X207545939Y-125485060D01*
X207553060Y-125477939D01*
X207703780Y-125300843D01*
X207709688Y-125292652D01*
X207830148Y-125093749D01*
X207834668Y-125084723D01*
X207921781Y-124869112D01*
X207924797Y-124859488D01*
X207976378Y-124632448D01*
X207977780Y-124623016D01*
X207987839Y-124482690D01*
X207988000Y-124478177D01*
X207988000Y-123684115D01*
X207983525Y-123668876D01*
X207982135Y-123667671D01*
X207974452Y-123666000D01*
X205752115Y-123666000D01*
X205736876Y-123670475D01*
X205735671Y-123671865D01*
X205734000Y-123679548D01*
X205734000Y-125901885D01*
X205226000Y-125901885D01*
X205226000Y-123684115D01*
X205221525Y-123668876D01*
X205220135Y-123667671D01*
X205212452Y-123666000D01*
X202990115Y-123666000D01*
X202974876Y-123670475D01*
X202973671Y-123671865D01*
X202972000Y-123679548D01*
X202972000Y-124478177D01*
X186988000Y-124478177D01*
X186988000Y-123684115D01*
X186983525Y-123668876D01*
X186982135Y-123667671D01*
X186974452Y-123666000D01*
X184752115Y-123666000D01*
X184736876Y-123670475D01*
X184735671Y-123671865D01*
X184734000Y-123679548D01*
X184734000Y-125901885D01*
X184226000Y-125901885D01*
X184226000Y-123684115D01*
X184221525Y-123668876D01*
X184220135Y-123667671D01*
X184212452Y-123666000D01*
X181990115Y-123666000D01*
X181974876Y-123670475D01*
X181973671Y-123671865D01*
X181972000Y-123679548D01*
X181972000Y-124478177D01*
X132762341Y-124478177D01*
X132799162Y-124443051D01*
X132882705Y-124363355D01*
X133024579Y-124172670D01*
X133132295Y-123960807D01*
X133171079Y-123835904D01*
X133201193Y-123738919D01*
X133202775Y-123733824D01*
X133215408Y-123638513D01*
X133233304Y-123503494D01*
X133233304Y-123503491D01*
X133234004Y-123498211D01*
X133230159Y-123395789D01*
X213015996Y-123395789D01*
X213024913Y-123633295D01*
X213073719Y-123865904D01*
X213075677Y-123870863D01*
X213075678Y-123870865D01*
X213147212Y-124051998D01*
X213161020Y-124086963D01*
X213284319Y-124290153D01*
X213287816Y-124294183D01*
X213416997Y-124443051D01*
X213440090Y-124469664D01*
X213444216Y-124473047D01*
X213444220Y-124473051D01*
X213542614Y-124553728D01*
X213623880Y-124620362D01*
X213628516Y-124623001D01*
X213628519Y-124623003D01*
X213628542Y-124623016D01*
X213830433Y-124737939D01*
X214053844Y-124819034D01*
X214059092Y-124819983D01*
X214283641Y-124860588D01*
X214283648Y-124860589D01*
X214287725Y-124861326D01*
X214305991Y-124862187D01*
X214311131Y-124862430D01*
X214311138Y-124862430D01*
X214312619Y-124862500D01*
X214479680Y-124862500D01*
X214562026Y-124855513D01*
X214651512Y-124847920D01*
X214651516Y-124847919D01*
X214656823Y-124847469D01*
X214661978Y-124846131D01*
X214661984Y-124846130D01*
X214881703Y-124789102D01*
X214881702Y-124789102D01*
X214886874Y-124787760D01*
X215060037Y-124709756D01*
X215098715Y-124692333D01*
X215098718Y-124692332D01*
X215103576Y-124690143D01*
X215300732Y-124557409D01*
X215472705Y-124393355D01*
X215614579Y-124202670D01*
X215722295Y-123990807D01*
X215761079Y-123865904D01*
X215791193Y-123768919D01*
X215792775Y-123763824D01*
X215805360Y-123668876D01*
X215823304Y-123533494D01*
X215823304Y-123533491D01*
X215824004Y-123528211D01*
X215815087Y-123290705D01*
X215766281Y-123058096D01*
X215764322Y-123053135D01*
X215680941Y-122842002D01*
X215680940Y-122842000D01*
X215678980Y-122837037D01*
X215663789Y-122812002D01*
X215558448Y-122638407D01*
X215555681Y-122633847D01*
X215533605Y-122608407D01*
X215403410Y-122458369D01*
X215403408Y-122458367D01*
X215399910Y-122454336D01*
X215395784Y-122450953D01*
X215395780Y-122450949D01*
X215262064Y-122341310D01*
X215216120Y-122303638D01*
X215211484Y-122300999D01*
X215211481Y-122300997D01*
X215040830Y-122203857D01*
X215009567Y-122186061D01*
X214786156Y-122104966D01*
X214780908Y-122104017D01*
X214556359Y-122063412D01*
X214556352Y-122063411D01*
X214552275Y-122062674D01*
X214534009Y-122061813D01*
X214528869Y-122061570D01*
X214528862Y-122061570D01*
X214527381Y-122061500D01*
X214360320Y-122061500D01*
X214277974Y-122068487D01*
X214188488Y-122076080D01*
X214188484Y-122076081D01*
X214183177Y-122076531D01*
X214178022Y-122077869D01*
X214178016Y-122077870D01*
X213998444Y-122124478D01*
X213953126Y-122136240D01*
X213913159Y-122154244D01*
X213741285Y-122231667D01*
X213741282Y-122231668D01*
X213736424Y-122233857D01*
X213539268Y-122366591D01*
X213367295Y-122530645D01*
X213225421Y-122721330D01*
X213117705Y-122933193D01*
X213116124Y-122938284D01*
X213116123Y-122938287D01*
X213052107Y-123144452D01*
X213047225Y-123160176D01*
X213046524Y-123165465D01*
X213020673Y-123360506D01*
X213015996Y-123395789D01*
X133230159Y-123395789D01*
X133225087Y-123260705D01*
X133199737Y-123139885D01*
X181972000Y-123139885D01*
X181976475Y-123155124D01*
X181977865Y-123156329D01*
X181985548Y-123158000D01*
X184207885Y-123158000D01*
X184223124Y-123153525D01*
X184224329Y-123152135D01*
X184226000Y-123144452D01*
X184226000Y-123139885D01*
X184734000Y-123139885D01*
X184738475Y-123155124D01*
X184739865Y-123156329D01*
X184747548Y-123158000D01*
X186969885Y-123158000D01*
X186985124Y-123153525D01*
X186986329Y-123152135D01*
X186988000Y-123144452D01*
X186988000Y-123139885D01*
X202972000Y-123139885D01*
X202976475Y-123155124D01*
X202977865Y-123156329D01*
X202985548Y-123158000D01*
X205207885Y-123158000D01*
X205223124Y-123153525D01*
X205224329Y-123152135D01*
X205226000Y-123144452D01*
X205226000Y-123139885D01*
X205734000Y-123139885D01*
X205738475Y-123155124D01*
X205739865Y-123156329D01*
X205747548Y-123158000D01*
X207969885Y-123158000D01*
X207985124Y-123153525D01*
X207986329Y-123152135D01*
X207988000Y-123144452D01*
X207988000Y-122345823D01*
X207987839Y-122341310D01*
X207977780Y-122200984D01*
X207976378Y-122191552D01*
X207924797Y-121964512D01*
X207921781Y-121954888D01*
X207834668Y-121739277D01*
X207830148Y-121730251D01*
X207709688Y-121531348D01*
X207703780Y-121523157D01*
X207553060Y-121346061D01*
X207545939Y-121338940D01*
X207368843Y-121188220D01*
X207360652Y-121182312D01*
X207161749Y-121061852D01*
X207152723Y-121057332D01*
X206937112Y-120970219D01*
X206927488Y-120967203D01*
X206700448Y-120915622D01*
X206691016Y-120914220D01*
X206550690Y-120904161D01*
X206546177Y-120904000D01*
X205752115Y-120904000D01*
X205736876Y-120908475D01*
X205735671Y-120909865D01*
X205734000Y-120917548D01*
X205734000Y-123139885D01*
X205226000Y-123139885D01*
X205226000Y-120922115D01*
X205221525Y-120906876D01*
X205220135Y-120905671D01*
X205212452Y-120904000D01*
X204413823Y-120904000D01*
X204409310Y-120904161D01*
X204268984Y-120914220D01*
X204259552Y-120915622D01*
X204032512Y-120967203D01*
X204022888Y-120970219D01*
X203807277Y-121057332D01*
X203798251Y-121061852D01*
X203599348Y-121182312D01*
X203591157Y-121188220D01*
X203414061Y-121338940D01*
X203406940Y-121346061D01*
X203256220Y-121523157D01*
X203250312Y-121531348D01*
X203129852Y-121730251D01*
X203125332Y-121739277D01*
X203038219Y-121954888D01*
X203035203Y-121964512D01*
X202983622Y-122191552D01*
X202982220Y-122200984D01*
X202972161Y-122341310D01*
X202972000Y-122345823D01*
X202972000Y-123139885D01*
X186988000Y-123139885D01*
X186988000Y-122345823D01*
X186987839Y-122341310D01*
X186977780Y-122200984D01*
X186976378Y-122191552D01*
X186924797Y-121964512D01*
X186921781Y-121954888D01*
X186834668Y-121739277D01*
X186830148Y-121730251D01*
X186709688Y-121531348D01*
X186703780Y-121523157D01*
X186553060Y-121346061D01*
X186545939Y-121338940D01*
X186368843Y-121188220D01*
X186360652Y-121182312D01*
X186161749Y-121061852D01*
X186152723Y-121057332D01*
X185937112Y-120970219D01*
X185927488Y-120967203D01*
X185700448Y-120915622D01*
X185691016Y-120914220D01*
X185550690Y-120904161D01*
X185546177Y-120904000D01*
X184752115Y-120904000D01*
X184736876Y-120908475D01*
X184735671Y-120909865D01*
X184734000Y-120917548D01*
X184734000Y-123139885D01*
X184226000Y-123139885D01*
X184226000Y-120922115D01*
X184221525Y-120906876D01*
X184220135Y-120905671D01*
X184212452Y-120904000D01*
X183413823Y-120904000D01*
X183409310Y-120904161D01*
X183268984Y-120914220D01*
X183259552Y-120915622D01*
X183032512Y-120967203D01*
X183022888Y-120970219D01*
X182807277Y-121057332D01*
X182798251Y-121061852D01*
X182599348Y-121182312D01*
X182591157Y-121188220D01*
X182414061Y-121338940D01*
X182406940Y-121346061D01*
X182256220Y-121523157D01*
X182250312Y-121531348D01*
X182129852Y-121730251D01*
X182125332Y-121739277D01*
X182038219Y-121954888D01*
X182035203Y-121964512D01*
X181983622Y-122191552D01*
X181982220Y-122200984D01*
X181972161Y-122341310D01*
X181972000Y-122345823D01*
X181972000Y-123139885D01*
X133199737Y-123139885D01*
X133176281Y-123028096D01*
X133174322Y-123023135D01*
X133090941Y-122812002D01*
X133090940Y-122812000D01*
X133088980Y-122807037D01*
X132965681Y-122603847D01*
X132902160Y-122530645D01*
X132813410Y-122428369D01*
X132813408Y-122428367D01*
X132809910Y-122424336D01*
X132805784Y-122420953D01*
X132805780Y-122420949D01*
X132630248Y-122277023D01*
X132626120Y-122273638D01*
X132621484Y-122270999D01*
X132621481Y-122270997D01*
X132498485Y-122200984D01*
X132419567Y-122156061D01*
X132196156Y-122074966D01*
X132132261Y-122063412D01*
X131966359Y-122033412D01*
X131966352Y-122033411D01*
X131962275Y-122032674D01*
X131944009Y-122031813D01*
X131938869Y-122031570D01*
X131938862Y-122031570D01*
X131937381Y-122031500D01*
X131770320Y-122031500D01*
X131687974Y-122038487D01*
X131598488Y-122046080D01*
X131598484Y-122046081D01*
X131593177Y-122046531D01*
X131588022Y-122047869D01*
X131588016Y-122047870D01*
X131408444Y-122094478D01*
X131363126Y-122106240D01*
X131291658Y-122138434D01*
X131151285Y-122201667D01*
X131151282Y-122201668D01*
X131146424Y-122203857D01*
X130949268Y-122336591D01*
X130777295Y-122500645D01*
X130635421Y-122691330D01*
X130527705Y-122903193D01*
X130526124Y-122908284D01*
X130526123Y-122908287D01*
X130487301Y-123033315D01*
X130457225Y-123130176D01*
X130456524Y-123135465D01*
X130436640Y-123285487D01*
X130425996Y-123365789D01*
X128178208Y-123365789D01*
X139385161Y-103954772D01*
X143589500Y-103954772D01*
X143600364Y-104044547D01*
X143603344Y-104052075D01*
X143603345Y-104052077D01*
X143615409Y-104082547D01*
X143655887Y-104184783D01*
X143747078Y-104304922D01*
X143867217Y-104396113D01*
X143928969Y-104420562D01*
X143999923Y-104448655D01*
X143999925Y-104448656D01*
X144007453Y-104451636D01*
X144037805Y-104455309D01*
X144053638Y-104457225D01*
X144118862Y-104485266D01*
X144158572Y-104544118D01*
X144164500Y-104582312D01*
X144164500Y-113923393D01*
X144171914Y-113946210D01*
X144176528Y-113965429D01*
X144180281Y-113989126D01*
X144184784Y-113997963D01*
X144184784Y-113997964D01*
X144191172Y-114010502D01*
X144198736Y-114028763D01*
X144203085Y-114042147D01*
X144203087Y-114042150D01*
X144206151Y-114051581D01*
X144211980Y-114059604D01*
X144220253Y-114070991D01*
X144230577Y-114087837D01*
X144241472Y-114109220D01*
X145311680Y-115179428D01*
X145345706Y-115241740D01*
X145347507Y-115284967D01*
X145344394Y-115308611D01*
X145362999Y-115477135D01*
X145421266Y-115636356D01*
X145425502Y-115642659D01*
X145425502Y-115642660D01*
X145438574Y-115662113D01*
X145515830Y-115777083D01*
X145521442Y-115782190D01*
X145521445Y-115782193D01*
X145635612Y-115886077D01*
X145635616Y-115886080D01*
X145641233Y-115891191D01*
X145647906Y-115894814D01*
X145647910Y-115894817D01*
X145783558Y-115968467D01*
X145783560Y-115968468D01*
X145790235Y-115972092D01*
X145797584Y-115974020D01*
X145946883Y-116013188D01*
X145946885Y-116013188D01*
X145954233Y-116015116D01*
X146040609Y-116016473D01*
X146116161Y-116017660D01*
X146116164Y-116017660D01*
X146123760Y-116017779D01*
X146131165Y-116016083D01*
X146131166Y-116016083D01*
X146206226Y-115998892D01*
X146289029Y-115979928D01*
X146440498Y-115903747D01*
X146569423Y-115793634D01*
X146668361Y-115655947D01*
X146676237Y-115636356D01*
X146728766Y-115505687D01*
X146728767Y-115505685D01*
X146731601Y-115498634D01*
X146755490Y-115330778D01*
X146755645Y-115316000D01*
X146735276Y-115147680D01*
X146675345Y-114989077D01*
X146579312Y-114849349D01*
X146573641Y-114844296D01*
X146458392Y-114741612D01*
X146458388Y-114741610D01*
X146452721Y-114736560D01*
X146302881Y-114657224D01*
X146138441Y-114615919D01*
X146130843Y-114615879D01*
X146130841Y-114615879D01*
X146033216Y-114615368D01*
X146002487Y-114615207D01*
X145934472Y-114594849D01*
X145914052Y-114578304D01*
X145052405Y-113716657D01*
X145018379Y-113654345D01*
X145015500Y-113627562D01*
X145015500Y-104582312D01*
X145035502Y-104514191D01*
X145089158Y-104467698D01*
X145126362Y-104457225D01*
X145142195Y-104455309D01*
X145172547Y-104451636D01*
X145180075Y-104448656D01*
X145180077Y-104448655D01*
X145251031Y-104420562D01*
X145312783Y-104396113D01*
X145432922Y-104304922D01*
X145524113Y-104184783D01*
X145564591Y-104082547D01*
X145576655Y-104052077D01*
X145576656Y-104052075D01*
X145579636Y-104044547D01*
X145590500Y-103954772D01*
X145590500Y-103169228D01*
X145579636Y-103079453D01*
X145573296Y-103063438D01*
X145545207Y-102992494D01*
X145524113Y-102939217D01*
X145432922Y-102819078D01*
X145312783Y-102727887D01*
X145189690Y-102679151D01*
X145133718Y-102635478D01*
X145110241Y-102568475D01*
X145126717Y-102499416D01*
X145177912Y-102450227D01*
X145189687Y-102444850D01*
X145312783Y-102396113D01*
X145432922Y-102304922D01*
X145524113Y-102184783D01*
X145565319Y-102080708D01*
X145576655Y-102052077D01*
X145576656Y-102052075D01*
X145579636Y-102044547D01*
X145590500Y-101954772D01*
X145590500Y-101169228D01*
X145579636Y-101079453D01*
X145573716Y-101064499D01*
X145548316Y-101000347D01*
X145524113Y-100939217D01*
X145474232Y-100873502D01*
X145461296Y-100856459D01*
X145436043Y-100790105D01*
X145450671Y-100720632D01*
X145472564Y-100691184D01*
X147798528Y-98365220D01*
X147809419Y-98343844D01*
X147819749Y-98326989D01*
X147828021Y-98315604D01*
X147828021Y-98315603D01*
X147833850Y-98307581D01*
X147841264Y-98284763D01*
X147848827Y-98266502D01*
X147859719Y-98245126D01*
X147861270Y-98235335D01*
X147861272Y-98235328D01*
X147863473Y-98221431D01*
X147868087Y-98202212D01*
X147872436Y-98188827D01*
X147872437Y-98188820D01*
X147875500Y-98179393D01*
X147875500Y-94260438D01*
X147895502Y-94192317D01*
X147912405Y-94171343D01*
X148651363Y-93432385D01*
X159295000Y-93432385D01*
X159299475Y-93447624D01*
X159300865Y-93448829D01*
X159308548Y-93450500D01*
X160255885Y-93450500D01*
X160271124Y-93446025D01*
X160272329Y-93444635D01*
X160274000Y-93436952D01*
X160274000Y-93432385D01*
X160782000Y-93432385D01*
X160786475Y-93447624D01*
X160787865Y-93448829D01*
X160795548Y-93450500D01*
X161742884Y-93450500D01*
X161758123Y-93446025D01*
X161759328Y-93444635D01*
X161760999Y-93436952D01*
X161760999Y-93319905D01*
X161760662Y-93313386D01*
X161750743Y-93217794D01*
X161747851Y-93204400D01*
X161696412Y-93050216D01*
X161690239Y-93037038D01*
X161604937Y-92899193D01*
X161595901Y-92887792D01*
X161481171Y-92773261D01*
X161469760Y-92764249D01*
X161331757Y-92679184D01*
X161318576Y-92673037D01*
X161164290Y-92621862D01*
X161150914Y-92618995D01*
X161056562Y-92609328D01*
X161050145Y-92609000D01*
X160800115Y-92609000D01*
X160784876Y-92613475D01*
X160783671Y-92614865D01*
X160782000Y-92622548D01*
X160782000Y-93432385D01*
X160274000Y-93432385D01*
X160274000Y-92627116D01*
X160269525Y-92611877D01*
X160268135Y-92610672D01*
X160260452Y-92609001D01*
X160005905Y-92609001D01*
X159999386Y-92609338D01*
X159903794Y-92619257D01*
X159890400Y-92622149D01*
X159736216Y-92673588D01*
X159723038Y-92679761D01*
X159585193Y-92765063D01*
X159573792Y-92774099D01*
X159459261Y-92888829D01*
X159450249Y-92900240D01*
X159365184Y-93038243D01*
X159359037Y-93051424D01*
X159307862Y-93205710D01*
X159304995Y-93219086D01*
X159295328Y-93313438D01*
X159295000Y-93319855D01*
X159295000Y-93432385D01*
X148651363Y-93432385D01*
X149954528Y-92129220D01*
X149965423Y-92107837D01*
X149975747Y-92090991D01*
X149984020Y-92079604D01*
X149989849Y-92071581D01*
X149992913Y-92062150D01*
X149992915Y-92062147D01*
X149997264Y-92048763D01*
X150004828Y-92030502D01*
X150011216Y-92017964D01*
X150011216Y-92017963D01*
X150015719Y-92009126D01*
X150019472Y-91985429D01*
X150024086Y-91966210D01*
X150031500Y-91943393D01*
X150031500Y-91733011D01*
X150051502Y-91664890D01*
X150068405Y-91643916D01*
X150070579Y-91641742D01*
X150078150Y-91636150D01*
X150083742Y-91628579D01*
X150083745Y-91628576D01*
X150139649Y-91552888D01*
X150196210Y-91509977D01*
X150266992Y-91504457D01*
X150329521Y-91538081D01*
X150342351Y-91552888D01*
X150398255Y-91628576D01*
X150398258Y-91628579D01*
X150403850Y-91636150D01*
X150411421Y-91641742D01*
X150505243Y-91711041D01*
X150505246Y-91711042D01*
X150512816Y-91716634D01*
X150640631Y-91761519D01*
X150648277Y-91762242D01*
X150648278Y-91762242D01*
X150654248Y-91762806D01*
X150672166Y-91764500D01*
X151079834Y-91764500D01*
X151097752Y-91762806D01*
X151103722Y-91762242D01*
X151103723Y-91762242D01*
X151111369Y-91761519D01*
X151239184Y-91716634D01*
X151246754Y-91711042D01*
X151246757Y-91711041D01*
X151340579Y-91641742D01*
X151348150Y-91636150D01*
X151353742Y-91628579D01*
X151353745Y-91628576D01*
X151409649Y-91552888D01*
X151466210Y-91509977D01*
X151536992Y-91504457D01*
X151599521Y-91538081D01*
X151612351Y-91552888D01*
X151668255Y-91628576D01*
X151668258Y-91628579D01*
X151673850Y-91636150D01*
X151681421Y-91641742D01*
X151775243Y-91711041D01*
X151775246Y-91711042D01*
X151782816Y-91716634D01*
X151910631Y-91761519D01*
X151918277Y-91762242D01*
X151918278Y-91762242D01*
X151924248Y-91762806D01*
X151942166Y-91764500D01*
X152349834Y-91764500D01*
X152367752Y-91762806D01*
X152373722Y-91762242D01*
X152373723Y-91762242D01*
X152381369Y-91761519D01*
X152509184Y-91716634D01*
X152516754Y-91711042D01*
X152516757Y-91711041D01*
X152610579Y-91641742D01*
X152618150Y-91636150D01*
X152623742Y-91628579D01*
X152623745Y-91628576D01*
X152679649Y-91552888D01*
X152736210Y-91509977D01*
X152806992Y-91504457D01*
X152869521Y-91538081D01*
X152882351Y-91552888D01*
X152938255Y-91628576D01*
X152938258Y-91628579D01*
X152943850Y-91636150D01*
X152951421Y-91641742D01*
X153045243Y-91711041D01*
X153045246Y-91711042D01*
X153052816Y-91716634D01*
X153180631Y-91761519D01*
X153188277Y-91762242D01*
X153188278Y-91762242D01*
X153194248Y-91762806D01*
X153212166Y-91764500D01*
X153619834Y-91764500D01*
X153637752Y-91762806D01*
X153643722Y-91762242D01*
X153643723Y-91762242D01*
X153651369Y-91761519D01*
X153779184Y-91716634D01*
X153786754Y-91711042D01*
X153786757Y-91711041D01*
X153880579Y-91641742D01*
X153888150Y-91636150D01*
X153893742Y-91628579D01*
X153893745Y-91628576D01*
X153949649Y-91552888D01*
X154006210Y-91509977D01*
X154076992Y-91504457D01*
X154139521Y-91538081D01*
X154152351Y-91552888D01*
X154208255Y-91628576D01*
X154208258Y-91628579D01*
X154213850Y-91636150D01*
X154221421Y-91641742D01*
X154315243Y-91711041D01*
X154315246Y-91711042D01*
X154322816Y-91716634D01*
X154450631Y-91761519D01*
X154458277Y-91762242D01*
X154458278Y-91762242D01*
X154464248Y-91762806D01*
X154482166Y-91764500D01*
X154889834Y-91764500D01*
X154907752Y-91762806D01*
X154913722Y-91762242D01*
X154913723Y-91762242D01*
X154921369Y-91761519D01*
X155049184Y-91716634D01*
X155056754Y-91711042D01*
X155056757Y-91711041D01*
X155150579Y-91641742D01*
X155158150Y-91636150D01*
X155163742Y-91628579D01*
X155163745Y-91628576D01*
X155219649Y-91552888D01*
X155276210Y-91509977D01*
X155346992Y-91504457D01*
X155409521Y-91538081D01*
X155422351Y-91552888D01*
X155478255Y-91628576D01*
X155478258Y-91628579D01*
X155483850Y-91636150D01*
X155491421Y-91641742D01*
X155585243Y-91711041D01*
X155585246Y-91711042D01*
X155592816Y-91716634D01*
X155720631Y-91761519D01*
X155728277Y-91762242D01*
X155728278Y-91762242D01*
X155734248Y-91762806D01*
X155752166Y-91764500D01*
X156159834Y-91764500D01*
X156177752Y-91762806D01*
X156183722Y-91762242D01*
X156183723Y-91762242D01*
X156191369Y-91761519D01*
X156319184Y-91716634D01*
X156326754Y-91711042D01*
X156326757Y-91711041D01*
X156367324Y-91681077D01*
X156434003Y-91656694D01*
X156503278Y-91672231D01*
X156541050Y-91708958D01*
X156543048Y-91707408D01*
X156557551Y-91726104D01*
X156663896Y-91832449D01*
X156676322Y-91842089D01*
X156805779Y-91918648D01*
X156820210Y-91924893D01*
X156954605Y-91963939D01*
X156968706Y-91963899D01*
X156972000Y-91956630D01*
X156972000Y-91950878D01*
X157480000Y-91950878D01*
X157483973Y-91964409D01*
X157491871Y-91965544D01*
X157631790Y-91924893D01*
X157646221Y-91918648D01*
X157775678Y-91842089D01*
X157788104Y-91832449D01*
X157894449Y-91726104D01*
X157904089Y-91713678D01*
X157980648Y-91584221D01*
X157986893Y-91569790D01*
X158029269Y-91423935D01*
X158031570Y-91411333D01*
X158033807Y-91382916D01*
X158034000Y-91377986D01*
X158034000Y-90761115D01*
X158029525Y-90745876D01*
X158028135Y-90744671D01*
X158020452Y-90743000D01*
X157498115Y-90743000D01*
X157482876Y-90747475D01*
X157481671Y-90748865D01*
X157480000Y-90756548D01*
X157480000Y-91950878D01*
X156972000Y-91950878D01*
X156972000Y-90361000D01*
X156992002Y-90292879D01*
X157045658Y-90246386D01*
X157098000Y-90235000D01*
X158015884Y-90235000D01*
X158031123Y-90230525D01*
X158032328Y-90229135D01*
X158033999Y-90221452D01*
X158033999Y-89600017D01*
X158033805Y-89595080D01*
X158031570Y-89566664D01*
X158029270Y-89554069D01*
X157986893Y-89408210D01*
X157980648Y-89393779D01*
X157904089Y-89264322D01*
X157894449Y-89251896D01*
X157788104Y-89145551D01*
X157775678Y-89135911D01*
X157763683Y-89128818D01*
X157715231Y-89076925D01*
X157702525Y-89007075D01*
X157729600Y-88941444D01*
X157738727Y-88931269D01*
X158620092Y-88049904D01*
X158682404Y-88015878D01*
X158709187Y-88012999D01*
X174375281Y-88012999D01*
X174390090Y-88013872D01*
X174423811Y-88017863D01*
X174433075Y-88016171D01*
X174433076Y-88016171D01*
X174481502Y-88007327D01*
X174485405Y-88006677D01*
X174534146Y-87999349D01*
X174534147Y-87999349D01*
X174543463Y-87997948D01*
X174549976Y-87994820D01*
X174557074Y-87993524D01*
X174609148Y-87966474D01*
X174612638Y-87964731D01*
X174665580Y-87939308D01*
X174670866Y-87934422D01*
X174670914Y-87934389D01*
X174677289Y-87931078D01*
X174682329Y-87926774D01*
X174719556Y-87889547D01*
X174723122Y-87886117D01*
X174758142Y-87853745D01*
X174765057Y-87847353D01*
X174768750Y-87840994D01*
X174774267Y-87834836D01*
X178825698Y-83783405D01*
X178888010Y-83749379D01*
X178914793Y-83746500D01*
X182059500Y-83746500D01*
X182127621Y-83766502D01*
X182174114Y-83820158D01*
X182185500Y-83872500D01*
X182185500Y-84140646D01*
X182188618Y-84166846D01*
X182192456Y-84175486D01*
X182192456Y-84175487D01*
X182229140Y-84258074D01*
X182234061Y-84269153D01*
X182313287Y-84348241D01*
X182323924Y-84352944D01*
X182323926Y-84352945D01*
X182339145Y-84359673D01*
X182415673Y-84393506D01*
X182441354Y-84396500D01*
X183519943Y-84396500D01*
X183588064Y-84416502D01*
X183634557Y-84470158D01*
X183644661Y-84540432D01*
X183615167Y-84605012D01*
X183609038Y-84611595D01*
X182836038Y-85384595D01*
X182773726Y-85418621D01*
X182746943Y-85421500D01*
X180086454Y-85421500D01*
X180067504Y-85420067D01*
X180053604Y-85417952D01*
X180053600Y-85417952D01*
X180046370Y-85416852D01*
X180039078Y-85417445D01*
X180039075Y-85417445D01*
X179994325Y-85421085D01*
X179984111Y-85421500D01*
X179976178Y-85421500D01*
X179966882Y-85422584D01*
X179948264Y-85424754D01*
X179943889Y-85425187D01*
X179913726Y-85427640D01*
X179871941Y-85431039D01*
X179864979Y-85433294D01*
X179859184Y-85434452D01*
X179853442Y-85435809D01*
X179846172Y-85436657D01*
X179778264Y-85461306D01*
X179774136Y-85462723D01*
X179712417Y-85482717D01*
X179712415Y-85482718D01*
X179705454Y-85484973D01*
X179699200Y-85488768D01*
X179693821Y-85491231D01*
X179688545Y-85493873D01*
X179681669Y-85496369D01*
X179621301Y-85535948D01*
X179617581Y-85538295D01*
X179560639Y-85572848D01*
X179560632Y-85572853D01*
X179555840Y-85575761D01*
X179547548Y-85583085D01*
X179547526Y-85583060D01*
X179544431Y-85585806D01*
X179541437Y-85588309D01*
X179535315Y-85592323D01*
X179530282Y-85597636D01*
X179482617Y-85647952D01*
X179480239Y-85650394D01*
X177610311Y-87520322D01*
X177595898Y-87532709D01*
X177584575Y-87541041D01*
X177584571Y-87541045D01*
X177578676Y-87545383D01*
X177544849Y-87585200D01*
X177537929Y-87592704D01*
X177532330Y-87598303D01*
X177514886Y-87620351D01*
X177512117Y-87623727D01*
X177470108Y-87673175D01*
X177470106Y-87673178D01*
X177465368Y-87678755D01*
X177462040Y-87685274D01*
X177458765Y-87690184D01*
X177455664Y-87695204D01*
X177451119Y-87700949D01*
X177448017Y-87707587D01*
X177448016Y-87707588D01*
X177420556Y-87766343D01*
X177418628Y-87770289D01*
X177385781Y-87834616D01*
X177384042Y-87841725D01*
X177381983Y-87847260D01*
X177380117Y-87852868D01*
X177377021Y-87859493D01*
X177375532Y-87866653D01*
X177375531Y-87866655D01*
X177362315Y-87930193D01*
X177361344Y-87934482D01*
X177344185Y-88004606D01*
X177343500Y-88015648D01*
X177343468Y-88015646D01*
X177343221Y-88019776D01*
X177342875Y-88023656D01*
X177341382Y-88030831D01*
X177341580Y-88038152D01*
X177341580Y-88038153D01*
X177343454Y-88107400D01*
X177343500Y-88110808D01*
X177343500Y-88129242D01*
X177323498Y-88197363D01*
X177306674Y-88218259D01*
X177241759Y-88283287D01*
X177237056Y-88293924D01*
X177237055Y-88293926D01*
X177230589Y-88308553D01*
X177196494Y-88385673D01*
X177193500Y-88411354D01*
X177193500Y-91000646D01*
X177196618Y-91026846D01*
X177242061Y-91129153D01*
X177321287Y-91208241D01*
X177331926Y-91212944D01*
X177331928Y-91212946D01*
X177336993Y-91215185D01*
X177391209Y-91261023D01*
X177412037Y-91328896D01*
X177392863Y-91397254D01*
X177339776Y-91444395D01*
X177286046Y-91456425D01*
X166696454Y-91456425D01*
X166677504Y-91454992D01*
X166663604Y-91452877D01*
X166663600Y-91452877D01*
X166656370Y-91451777D01*
X166649078Y-91452370D01*
X166649075Y-91452370D01*
X166604325Y-91456010D01*
X166594111Y-91456425D01*
X166586178Y-91456425D01*
X166576882Y-91457509D01*
X166558264Y-91459679D01*
X166553889Y-91460112D01*
X166523726Y-91462565D01*
X166481941Y-91465964D01*
X166474979Y-91468219D01*
X166469184Y-91469377D01*
X166463442Y-91470734D01*
X166456172Y-91471582D01*
X166388264Y-91496231D01*
X166384136Y-91497648D01*
X166322417Y-91517642D01*
X166322415Y-91517643D01*
X166315454Y-91519898D01*
X166309200Y-91523693D01*
X166303821Y-91526156D01*
X166298545Y-91528798D01*
X166291669Y-91531294D01*
X166231301Y-91570873D01*
X166227581Y-91573220D01*
X166170639Y-91607773D01*
X166170632Y-91607778D01*
X166165840Y-91610686D01*
X166157548Y-91618010D01*
X166157526Y-91617985D01*
X166154431Y-91620731D01*
X166151437Y-91623234D01*
X166145315Y-91627248D01*
X166140282Y-91632561D01*
X166092617Y-91682877D01*
X166090239Y-91685319D01*
X162790963Y-94984595D01*
X162728651Y-95018621D01*
X162701868Y-95021500D01*
X161401995Y-95021500D01*
X161333874Y-95001498D01*
X161325816Y-94995863D01*
X161275784Y-94957887D01*
X161277796Y-94955237D01*
X161239370Y-94914112D01*
X161226639Y-94844267D01*
X161253691Y-94778626D01*
X161312067Y-94737987D01*
X161319780Y-94735414D01*
X161332962Y-94729239D01*
X161470807Y-94643937D01*
X161482208Y-94634901D01*
X161596739Y-94520171D01*
X161605751Y-94508760D01*
X161690816Y-94370757D01*
X161696963Y-94357576D01*
X161748138Y-94203290D01*
X161751005Y-94189914D01*
X161760672Y-94095562D01*
X161761000Y-94089146D01*
X161761000Y-93976615D01*
X161756525Y-93961376D01*
X161755135Y-93960171D01*
X161747452Y-93958500D01*
X159313116Y-93958500D01*
X159297877Y-93962975D01*
X159296672Y-93964365D01*
X159295001Y-93972048D01*
X159295001Y-94089095D01*
X159295338Y-94095614D01*
X159305257Y-94191206D01*
X159308149Y-94204600D01*
X159359588Y-94358784D01*
X159365761Y-94371962D01*
X159451063Y-94509807D01*
X159460099Y-94521208D01*
X159574829Y-94635739D01*
X159586240Y-94644751D01*
X159724243Y-94729816D01*
X159737424Y-94735963D01*
X159743596Y-94738010D01*
X159801957Y-94778439D01*
X159829196Y-94844003D01*
X159816664Y-94913885D01*
X159780112Y-94957966D01*
X159720306Y-95003362D01*
X159653953Y-95028616D01*
X159644126Y-95029000D01*
X157952500Y-95029000D01*
X157884379Y-95008998D01*
X157837886Y-94955342D01*
X157826500Y-94903000D01*
X157826500Y-94560166D01*
X157823519Y-94528631D01*
X157778634Y-94400816D01*
X157773042Y-94393246D01*
X157773041Y-94393243D01*
X157703742Y-94299421D01*
X157698150Y-94291850D01*
X157655622Y-94260438D01*
X157596757Y-94216959D01*
X157596754Y-94216958D01*
X157589184Y-94211366D01*
X157461369Y-94166481D01*
X157453723Y-94165758D01*
X157453722Y-94165758D01*
X157447752Y-94165194D01*
X157429834Y-94163500D01*
X157022166Y-94163500D01*
X157004248Y-94165194D01*
X156998278Y-94165758D01*
X156998277Y-94165758D01*
X156990631Y-94166481D01*
X156862816Y-94211366D01*
X156855246Y-94216958D01*
X156855243Y-94216959D01*
X156796378Y-94260438D01*
X156753850Y-94291850D01*
X156748258Y-94299421D01*
X156748255Y-94299424D01*
X156692351Y-94375112D01*
X156635790Y-94418023D01*
X156565008Y-94423543D01*
X156502479Y-94389919D01*
X156489649Y-94375112D01*
X156433745Y-94299424D01*
X156433742Y-94299421D01*
X156428150Y-94291850D01*
X156385622Y-94260438D01*
X156326757Y-94216959D01*
X156326754Y-94216958D01*
X156319184Y-94211366D01*
X156191369Y-94166481D01*
X156183723Y-94165758D01*
X156183722Y-94165758D01*
X156177752Y-94165194D01*
X156159834Y-94163500D01*
X155752166Y-94163500D01*
X155734248Y-94165194D01*
X155728278Y-94165758D01*
X155728277Y-94165758D01*
X155720631Y-94166481D01*
X155592816Y-94211366D01*
X155585246Y-94216958D01*
X155585243Y-94216959D01*
X155526378Y-94260438D01*
X155483850Y-94291850D01*
X155478258Y-94299421D01*
X155478255Y-94299424D01*
X155422351Y-94375112D01*
X155365790Y-94418023D01*
X155295008Y-94423543D01*
X155232479Y-94389919D01*
X155219649Y-94375112D01*
X155163745Y-94299424D01*
X155163742Y-94299421D01*
X155158150Y-94291850D01*
X155115622Y-94260438D01*
X155056757Y-94216959D01*
X155056754Y-94216958D01*
X155049184Y-94211366D01*
X154921369Y-94166481D01*
X154913723Y-94165758D01*
X154913722Y-94165758D01*
X154907752Y-94165194D01*
X154889834Y-94163500D01*
X154482166Y-94163500D01*
X154464248Y-94165194D01*
X154458278Y-94165758D01*
X154458277Y-94165758D01*
X154450631Y-94166481D01*
X154322816Y-94211366D01*
X154315246Y-94216958D01*
X154315243Y-94216959D01*
X154256378Y-94260438D01*
X154213850Y-94291850D01*
X154208258Y-94299421D01*
X154208255Y-94299424D01*
X154152351Y-94375112D01*
X154095790Y-94418023D01*
X154025008Y-94423543D01*
X153962479Y-94389919D01*
X153949649Y-94375112D01*
X153893745Y-94299424D01*
X153893742Y-94299421D01*
X153888150Y-94291850D01*
X153845622Y-94260438D01*
X153786757Y-94216959D01*
X153786754Y-94216958D01*
X153779184Y-94211366D01*
X153651369Y-94166481D01*
X153643723Y-94165758D01*
X153643722Y-94165758D01*
X153637752Y-94165194D01*
X153619834Y-94163500D01*
X153212166Y-94163500D01*
X153194248Y-94165194D01*
X153188278Y-94165758D01*
X153188277Y-94165758D01*
X153180631Y-94166481D01*
X153052816Y-94211366D01*
X153045246Y-94216958D01*
X153045243Y-94216959D01*
X152986378Y-94260438D01*
X152943850Y-94291850D01*
X152938258Y-94299421D01*
X152938255Y-94299424D01*
X152882351Y-94375112D01*
X152825790Y-94418023D01*
X152755008Y-94423543D01*
X152692479Y-94389919D01*
X152679649Y-94375112D01*
X152623745Y-94299424D01*
X152623742Y-94299421D01*
X152618150Y-94291850D01*
X152575622Y-94260438D01*
X152516757Y-94216959D01*
X152516754Y-94216958D01*
X152509184Y-94211366D01*
X152381369Y-94166481D01*
X152373723Y-94165758D01*
X152373722Y-94165758D01*
X152367752Y-94165194D01*
X152349834Y-94163500D01*
X151942166Y-94163500D01*
X151924248Y-94165194D01*
X151918278Y-94165758D01*
X151918277Y-94165758D01*
X151910631Y-94166481D01*
X151782816Y-94211366D01*
X151775246Y-94216958D01*
X151775243Y-94216959D01*
X151716378Y-94260438D01*
X151673850Y-94291850D01*
X151668258Y-94299421D01*
X151668255Y-94299424D01*
X151612351Y-94375112D01*
X151555790Y-94418023D01*
X151485008Y-94423543D01*
X151422479Y-94389919D01*
X151409649Y-94375112D01*
X151353745Y-94299424D01*
X151353742Y-94299421D01*
X151348150Y-94291850D01*
X151305622Y-94260438D01*
X151246757Y-94216959D01*
X151246754Y-94216958D01*
X151239184Y-94211366D01*
X151111369Y-94166481D01*
X151103723Y-94165758D01*
X151103722Y-94165758D01*
X151097752Y-94165194D01*
X151079834Y-94163500D01*
X150672166Y-94163500D01*
X150654248Y-94165194D01*
X150648278Y-94165758D01*
X150648277Y-94165758D01*
X150640631Y-94166481D01*
X150512816Y-94211366D01*
X150505246Y-94216958D01*
X150505243Y-94216959D01*
X150446378Y-94260438D01*
X150403850Y-94291850D01*
X150398258Y-94299421D01*
X150398255Y-94299424D01*
X150342351Y-94375112D01*
X150285790Y-94418023D01*
X150215008Y-94423543D01*
X150152479Y-94389919D01*
X150139649Y-94375112D01*
X150083745Y-94299424D01*
X150083742Y-94299421D01*
X150078150Y-94291850D01*
X150035622Y-94260438D01*
X149976757Y-94216959D01*
X149976754Y-94216958D01*
X149969184Y-94211366D01*
X149841369Y-94166481D01*
X149833723Y-94165758D01*
X149833722Y-94165758D01*
X149827752Y-94165194D01*
X149809834Y-94163500D01*
X149402166Y-94163500D01*
X149384248Y-94165194D01*
X149378278Y-94165758D01*
X149378277Y-94165758D01*
X149370631Y-94166481D01*
X149242816Y-94211366D01*
X149235246Y-94216958D01*
X149235243Y-94216959D01*
X149176378Y-94260438D01*
X149133850Y-94291850D01*
X149128258Y-94299421D01*
X149058959Y-94393243D01*
X149058958Y-94393246D01*
X149053366Y-94400816D01*
X149008481Y-94528631D01*
X149005500Y-94560166D01*
X149005500Y-96317834D01*
X149008481Y-96349369D01*
X149011026Y-96356616D01*
X149046990Y-96459027D01*
X149053366Y-96477184D01*
X149058965Y-96484764D01*
X149059851Y-96485964D01*
X149060411Y-96487496D01*
X149063369Y-96493082D01*
X149062602Y-96493488D01*
X149084234Y-96552642D01*
X149084500Y-96560823D01*
X149084500Y-99413563D01*
X149064498Y-99481684D01*
X149047595Y-99502658D01*
X147887657Y-100662595D01*
X147825345Y-100696621D01*
X147798562Y-100699500D01*
X147335228Y-100699500D01*
X147245453Y-100710364D01*
X147237925Y-100713344D01*
X147237923Y-100713345D01*
X147168832Y-100740700D01*
X147105217Y-100765887D01*
X146985078Y-100857078D01*
X146893887Y-100977217D01*
X146874749Y-101025554D01*
X146850226Y-101087494D01*
X146838364Y-101117453D01*
X146827500Y-101207228D01*
X146827500Y-101992772D01*
X146838364Y-102082547D01*
X146841344Y-102090075D01*
X146841345Y-102090077D01*
X146851781Y-102116435D01*
X146893887Y-102222783D01*
X146985078Y-102342922D01*
X147105217Y-102434113D01*
X147228310Y-102482849D01*
X147284282Y-102526522D01*
X147307759Y-102593525D01*
X147291283Y-102662584D01*
X147240088Y-102711773D01*
X147228313Y-102717150D01*
X147105217Y-102765887D01*
X146985078Y-102857078D01*
X146893887Y-102977217D01*
X146879340Y-103013960D01*
X146850226Y-103087494D01*
X146838364Y-103117453D01*
X146827500Y-103207228D01*
X146827500Y-103992772D01*
X146838364Y-104082547D01*
X146841344Y-104090075D01*
X146841345Y-104090077D01*
X146853048Y-104119634D01*
X146893887Y-104222783D01*
X146985078Y-104342922D01*
X147105217Y-104434113D01*
X147151933Y-104452609D01*
X147237923Y-104486655D01*
X147237925Y-104486656D01*
X147245453Y-104489636D01*
X147335228Y-104500500D01*
X148074562Y-104500500D01*
X148142683Y-104520502D01*
X148163657Y-104537405D01*
X160560780Y-116934528D01*
X160582163Y-116945423D01*
X160599009Y-116955747D01*
X160618419Y-116969849D01*
X160627850Y-116972913D01*
X160627853Y-116972915D01*
X160641237Y-116977264D01*
X160659498Y-116984828D01*
X160672036Y-116991216D01*
X160680874Y-116995719D01*
X160704571Y-116999472D01*
X160723790Y-117004086D01*
X160746607Y-117011500D01*
X199784634Y-117011500D01*
X199852755Y-117031502D01*
X199871331Y-117047631D01*
X199871830Y-117047083D01*
X199991612Y-117156077D01*
X199991616Y-117156080D01*
X199997233Y-117161191D01*
X200003906Y-117164814D01*
X200003910Y-117164817D01*
X200139558Y-117238467D01*
X200139560Y-117238468D01*
X200146235Y-117242092D01*
X200153584Y-117244020D01*
X200302883Y-117283188D01*
X200302885Y-117283188D01*
X200310233Y-117285116D01*
X200396609Y-117286473D01*
X200472161Y-117287660D01*
X200472164Y-117287660D01*
X200479760Y-117287779D01*
X200487165Y-117286083D01*
X200487166Y-117286083D01*
X200547586Y-117272245D01*
X200645029Y-117249928D01*
X200796498Y-117173747D01*
X200925423Y-117063634D01*
X201024361Y-116925947D01*
X201087601Y-116768634D01*
X201111490Y-116600778D01*
X201111645Y-116586000D01*
X201091276Y-116417680D01*
X201031345Y-116259077D01*
X201027044Y-116252819D01*
X200939614Y-116125608D01*
X200939613Y-116125607D01*
X200935312Y-116119349D01*
X200929119Y-116113831D01*
X200814392Y-116011612D01*
X200814388Y-116011610D01*
X200808721Y-116006560D01*
X200747264Y-115974020D01*
X200736776Y-115968467D01*
X200658881Y-115927224D01*
X200494441Y-115885919D01*
X200486843Y-115885879D01*
X200486841Y-115885879D01*
X200409668Y-115885475D01*
X200324895Y-115885031D01*
X200317508Y-115886805D01*
X200317504Y-115886805D01*
X200232727Y-115907159D01*
X200160032Y-115924612D01*
X200153288Y-115928093D01*
X200153285Y-115928094D01*
X200059470Y-115976516D01*
X200009369Y-116002375D01*
X200003647Y-116007367D01*
X200003645Y-116007368D01*
X199994627Y-116015235D01*
X199881604Y-116113831D01*
X199877918Y-116119076D01*
X199817905Y-116156049D01*
X199784713Y-116160500D01*
X161042438Y-116160500D01*
X160974317Y-116140498D01*
X160953343Y-116123595D01*
X149492259Y-104662511D01*
X149458233Y-104600199D01*
X149463298Y-104529384D01*
X149505845Y-104472548D01*
X149572365Y-104447737D01*
X149641439Y-104463245D01*
X149645217Y-104466113D01*
X149672409Y-104476879D01*
X149777923Y-104518655D01*
X149777925Y-104518656D01*
X149785453Y-104521636D01*
X149875228Y-104532500D01*
X150579207Y-104532500D01*
X150647328Y-104552502D01*
X150668302Y-104569405D01*
X152865251Y-106766355D01*
X152875106Y-106777444D01*
X152896128Y-106804110D01*
X152903872Y-106809462D01*
X152903874Y-106809464D01*
X152944370Y-106837452D01*
X152947585Y-106839750D01*
X152994817Y-106874635D01*
X153001634Y-106877029D01*
X153007569Y-106881131D01*
X153016544Y-106883969D01*
X153016545Y-106883970D01*
X153038507Y-106890915D01*
X153063475Y-106898812D01*
X153067215Y-106900060D01*
X153113745Y-106916400D01*
X153113748Y-106916401D01*
X153122631Y-106919520D01*
X153129816Y-106919803D01*
X153129889Y-106919817D01*
X153136730Y-106921980D01*
X153143337Y-106922500D01*
X153195991Y-106922500D01*
X153200937Y-106922597D01*
X153257994Y-106924839D01*
X153265103Y-106922954D01*
X153273352Y-106922500D01*
X162807246Y-106922500D01*
X162822055Y-106923373D01*
X162855776Y-106927364D01*
X162865040Y-106925672D01*
X162865041Y-106925672D01*
X162913467Y-106916828D01*
X162917370Y-106916178D01*
X162966111Y-106908850D01*
X162966112Y-106908850D01*
X162975428Y-106907449D01*
X162981941Y-106904321D01*
X162989039Y-106903025D01*
X163041113Y-106875975D01*
X163044603Y-106874232D01*
X163097545Y-106848809D01*
X163102831Y-106843923D01*
X163102879Y-106843890D01*
X163109254Y-106840579D01*
X163114294Y-106836275D01*
X163151521Y-106799048D01*
X163155087Y-106795618D01*
X163190107Y-106763246D01*
X163197022Y-106756854D01*
X163200715Y-106750495D01*
X163206232Y-106744337D01*
X165536474Y-104414095D01*
X177482001Y-104414095D01*
X177482338Y-104420614D01*
X177492257Y-104516206D01*
X177495149Y-104529600D01*
X177546588Y-104683784D01*
X177552761Y-104696962D01*
X177638063Y-104834807D01*
X177647099Y-104846208D01*
X177761829Y-104960739D01*
X177773240Y-104969751D01*
X177911243Y-105054816D01*
X177924424Y-105060963D01*
X178078710Y-105112138D01*
X178092086Y-105115005D01*
X178186438Y-105124672D01*
X178192854Y-105125000D01*
X178367885Y-105125000D01*
X178383124Y-105120525D01*
X178384329Y-105119135D01*
X178386000Y-105111452D01*
X178386000Y-105106884D01*
X178894000Y-105106884D01*
X178898475Y-105122123D01*
X178899865Y-105123328D01*
X178907548Y-105124999D01*
X179087095Y-105124999D01*
X179093614Y-105124662D01*
X179189206Y-105114743D01*
X179202600Y-105111851D01*
X179356784Y-105060412D01*
X179369962Y-105054239D01*
X179507807Y-104968937D01*
X179519208Y-104959901D01*
X179633739Y-104845171D01*
X179642751Y-104833760D01*
X179727816Y-104695757D01*
X179733963Y-104682576D01*
X179785138Y-104528290D01*
X179788005Y-104514914D01*
X179797672Y-104420562D01*
X179798000Y-104414146D01*
X179798000Y-104409772D01*
X180789500Y-104409772D01*
X180800364Y-104499547D01*
X180803344Y-104507075D01*
X180803345Y-104507077D01*
X180813892Y-104533715D01*
X180855887Y-104639783D01*
X180947078Y-104759922D01*
X181067217Y-104851113D01*
X181130832Y-104876300D01*
X181199923Y-104903655D01*
X181199925Y-104903656D01*
X181207453Y-104906636D01*
X181297228Y-104917500D01*
X182014075Y-104917500D01*
X182082196Y-104937502D01*
X182103170Y-104954405D01*
X182511694Y-105362929D01*
X182545720Y-105425241D01*
X182540655Y-105496056D01*
X182511694Y-105541119D01*
X182483852Y-105568961D01*
X182483848Y-105568966D01*
X182479953Y-105572861D01*
X182349432Y-105759266D01*
X182347111Y-105764244D01*
X182347109Y-105764247D01*
X182298394Y-105868717D01*
X182253261Y-105965504D01*
X182251839Y-105970812D01*
X182251838Y-105970814D01*
X182245021Y-105996256D01*
X182194365Y-106185308D01*
X182179500Y-106355216D01*
X182179500Y-108468784D01*
X182194365Y-108638692D01*
X182253261Y-108858496D01*
X182349432Y-109064734D01*
X182479953Y-109251139D01*
X182640861Y-109412047D01*
X182827266Y-109542568D01*
X182832244Y-109544889D01*
X182832247Y-109544891D01*
X183028522Y-109636416D01*
X183033504Y-109638739D01*
X183038812Y-109640161D01*
X183038814Y-109640162D01*
X183247993Y-109696211D01*
X183247995Y-109696211D01*
X183253308Y-109697635D01*
X183352302Y-109706296D01*
X183420492Y-109712262D01*
X183420499Y-109712262D01*
X183423216Y-109712500D01*
X185536784Y-109712500D01*
X185539501Y-109712262D01*
X185539508Y-109712262D01*
X185607698Y-109706296D01*
X185706692Y-109697635D01*
X185712005Y-109696211D01*
X185712007Y-109696211D01*
X185921186Y-109640162D01*
X185921188Y-109640161D01*
X185926496Y-109638739D01*
X185931478Y-109636416D01*
X186127753Y-109544891D01*
X186127756Y-109544889D01*
X186132734Y-109542568D01*
X186319139Y-109412047D01*
X186480047Y-109251139D01*
X186610568Y-109064734D01*
X186706739Y-108858496D01*
X186765635Y-108638692D01*
X186780500Y-108468784D01*
X186780500Y-106355216D01*
X186765635Y-106185308D01*
X186714979Y-105996256D01*
X186708162Y-105970814D01*
X186708161Y-105970812D01*
X186706739Y-105965504D01*
X186661606Y-105868717D01*
X186612891Y-105764247D01*
X186612889Y-105764244D01*
X186610568Y-105759266D01*
X186480047Y-105572861D01*
X186319139Y-105411953D01*
X186288916Y-105390790D01*
X186244587Y-105335333D01*
X186237279Y-105264714D01*
X186272092Y-105198483D01*
X187496906Y-103973669D01*
X187559218Y-103939643D01*
X187630033Y-103944708D01*
X187686869Y-103987255D01*
X187711680Y-104053775D01*
X187712001Y-104062764D01*
X187712001Y-104159095D01*
X187712338Y-104165614D01*
X187722257Y-104261206D01*
X187725149Y-104274600D01*
X187776588Y-104428784D01*
X187782761Y-104441962D01*
X187868063Y-104579807D01*
X187877099Y-104591208D01*
X187991829Y-104705739D01*
X188003240Y-104714751D01*
X188141243Y-104799816D01*
X188154424Y-104805963D01*
X188308710Y-104857138D01*
X188322086Y-104860005D01*
X188416438Y-104869672D01*
X188422854Y-104870000D01*
X188547885Y-104870000D01*
X188563124Y-104865525D01*
X188564329Y-104864135D01*
X188566000Y-104856452D01*
X188566000Y-103534000D01*
X188586002Y-103465879D01*
X188639658Y-103419386D01*
X188692000Y-103408000D01*
X188948000Y-103408000D01*
X189016121Y-103428002D01*
X189062614Y-103481658D01*
X189074000Y-103534000D01*
X189074000Y-104851884D01*
X189078475Y-104867123D01*
X189079865Y-104868328D01*
X189087548Y-104869999D01*
X189217095Y-104869999D01*
X189223614Y-104869662D01*
X189319206Y-104859743D01*
X189332600Y-104856851D01*
X189486784Y-104805412D01*
X189499962Y-104799239D01*
X189637807Y-104713937D01*
X189649208Y-104704901D01*
X189763739Y-104590171D01*
X189772751Y-104578760D01*
X189837782Y-104473259D01*
X189890554Y-104425766D01*
X189960625Y-104414342D01*
X190025749Y-104442616D01*
X190045404Y-104463195D01*
X190071885Y-104498082D01*
X190071890Y-104498087D01*
X190077078Y-104504922D01*
X190197217Y-104596113D01*
X190260832Y-104621300D01*
X190329923Y-104648655D01*
X190329925Y-104648656D01*
X190337453Y-104651636D01*
X190427228Y-104662500D01*
X191212772Y-104662500D01*
X191302547Y-104651636D01*
X191310075Y-104648656D01*
X191310077Y-104648655D01*
X191379168Y-104621300D01*
X191442783Y-104596113D01*
X191562922Y-104504922D01*
X191654113Y-104384783D01*
X191684562Y-104307877D01*
X191706655Y-104252077D01*
X191706656Y-104252075D01*
X191709636Y-104244547D01*
X191715225Y-104198362D01*
X191743266Y-104133138D01*
X191802118Y-104093428D01*
X191840312Y-104087500D01*
X193589893Y-104087500D01*
X193612710Y-104080086D01*
X193631929Y-104075472D01*
X193655626Y-104071719D01*
X193664464Y-104067216D01*
X193677002Y-104060828D01*
X193695263Y-104053264D01*
X193708647Y-104048915D01*
X193708650Y-104048913D01*
X193718081Y-104045849D01*
X193737491Y-104031747D01*
X193754337Y-104021423D01*
X193775720Y-104010528D01*
X194045730Y-103740518D01*
X194249662Y-103536587D01*
X194311974Y-103502561D01*
X194382789Y-103507626D01*
X194427852Y-103536587D01*
X195554203Y-104662938D01*
X195565070Y-104675328D01*
X195584218Y-104700282D01*
X195709659Y-104796536D01*
X195855738Y-104857044D01*
X196012500Y-104877682D01*
X196020688Y-104876604D01*
X196043673Y-104873578D01*
X196060119Y-104872500D01*
X201102381Y-104872500D01*
X201118827Y-104873578D01*
X201150000Y-104877682D01*
X201158188Y-104876604D01*
X201189361Y-104872500D01*
X201298574Y-104858122D01*
X201306762Y-104857044D01*
X201452841Y-104796536D01*
X201578282Y-104700282D01*
X201597430Y-104675328D01*
X201608297Y-104662938D01*
X201670905Y-104600330D01*
X201733217Y-104566304D01*
X201804032Y-104571369D01*
X201849095Y-104600330D01*
X203193581Y-105944816D01*
X203227607Y-106007128D01*
X203226193Y-106066522D01*
X203194365Y-106185308D01*
X203179500Y-106355216D01*
X203179500Y-108468784D01*
X203194365Y-108638692D01*
X203253261Y-108858496D01*
X203349432Y-109064734D01*
X203479953Y-109251139D01*
X203640861Y-109412047D01*
X203827266Y-109542568D01*
X203832244Y-109544889D01*
X203832247Y-109544891D01*
X204028522Y-109636416D01*
X204033504Y-109638739D01*
X204038812Y-109640161D01*
X204038814Y-109640162D01*
X204247993Y-109696211D01*
X204247995Y-109696211D01*
X204253308Y-109697635D01*
X204352302Y-109706296D01*
X204420492Y-109712262D01*
X204420499Y-109712262D01*
X204423216Y-109712500D01*
X206536784Y-109712500D01*
X206539501Y-109712262D01*
X206539508Y-109712262D01*
X206607698Y-109706296D01*
X206706692Y-109697635D01*
X206712005Y-109696211D01*
X206712007Y-109696211D01*
X206921186Y-109640162D01*
X206921188Y-109640161D01*
X206926496Y-109638739D01*
X206931478Y-109636416D01*
X207127753Y-109544891D01*
X207127756Y-109544889D01*
X207132734Y-109542568D01*
X207319139Y-109412047D01*
X207480047Y-109251139D01*
X207610568Y-109064734D01*
X207706739Y-108858496D01*
X207765635Y-108638692D01*
X207780500Y-108468784D01*
X207780500Y-106355216D01*
X207765635Y-106185308D01*
X207714979Y-105996256D01*
X207708162Y-105970814D01*
X207708161Y-105970812D01*
X207706739Y-105965504D01*
X207661606Y-105868717D01*
X207612891Y-105764247D01*
X207612889Y-105764244D01*
X207610568Y-105759266D01*
X207480047Y-105572861D01*
X207319139Y-105411953D01*
X207132734Y-105281432D01*
X207127756Y-105279111D01*
X207127753Y-105279109D01*
X206931478Y-105187584D01*
X206931476Y-105187583D01*
X206926496Y-105185261D01*
X206921188Y-105183839D01*
X206921186Y-105183838D01*
X206712007Y-105127789D01*
X206712005Y-105127789D01*
X206706692Y-105126365D01*
X206607698Y-105117704D01*
X206539508Y-105111738D01*
X206539501Y-105111738D01*
X206536784Y-105111500D01*
X204423216Y-105111500D01*
X204420499Y-105111738D01*
X204420492Y-105111738D01*
X204352302Y-105117704D01*
X204253308Y-105126365D01*
X204247995Y-105127789D01*
X204247993Y-105127789D01*
X204181843Y-105145514D01*
X204110867Y-105143824D01*
X204060137Y-105112902D01*
X202934574Y-103987339D01*
X202900548Y-103925027D01*
X202898517Y-103883651D01*
X202900076Y-103870283D01*
X202900500Y-103866646D01*
X202900500Y-102777354D01*
X202897382Y-102751154D01*
X202889354Y-102733079D01*
X202856663Y-102659482D01*
X202851939Y-102648847D01*
X202841153Y-102638079D01*
X202780945Y-102577977D01*
X202772713Y-102569759D01*
X202762076Y-102565056D01*
X202762074Y-102565055D01*
X202688436Y-102532500D01*
X202670327Y-102524494D01*
X202644646Y-102521500D01*
X201555354Y-102521500D01*
X201551650Y-102521941D01*
X201551647Y-102521941D01*
X201544254Y-102522821D01*
X201529154Y-102524618D01*
X201520514Y-102528456D01*
X201520513Y-102528456D01*
X201488846Y-102542522D01*
X201426847Y-102570061D01*
X201347759Y-102649287D01*
X201343056Y-102659924D01*
X201343055Y-102659926D01*
X201320134Y-102711773D01*
X201302494Y-102751673D01*
X201299500Y-102777354D01*
X201299500Y-103221075D01*
X201279498Y-103289196D01*
X201262595Y-103310170D01*
X200938170Y-103634595D01*
X200875858Y-103668621D01*
X200849075Y-103671500D01*
X200126500Y-103671500D01*
X200058379Y-103651498D01*
X200011886Y-103597842D01*
X200000500Y-103545500D01*
X200000500Y-102727354D01*
X199997382Y-102701154D01*
X199979769Y-102661500D01*
X199956663Y-102609482D01*
X199951939Y-102598847D01*
X199872713Y-102519759D01*
X199862076Y-102515056D01*
X199862074Y-102515055D01*
X199793175Y-102484595D01*
X199770327Y-102474494D01*
X199744646Y-102471500D01*
X198655354Y-102471500D01*
X198651650Y-102471941D01*
X198651647Y-102471941D01*
X198644254Y-102472821D01*
X198629154Y-102474618D01*
X198620514Y-102478456D01*
X198620513Y-102478456D01*
X198548032Y-102510651D01*
X198496884Y-102521500D01*
X198200557Y-102521500D01*
X198132436Y-102501498D01*
X198111462Y-102484595D01*
X197412405Y-101785538D01*
X197378379Y-101723226D01*
X197375500Y-101696443D01*
X197375500Y-101568166D01*
X197372519Y-101536631D01*
X197327634Y-101408816D01*
X197322042Y-101401246D01*
X197322041Y-101401243D01*
X197252742Y-101307421D01*
X197247150Y-101299850D01*
X197239579Y-101294258D01*
X197239576Y-101294255D01*
X197179458Y-101249851D01*
X197136547Y-101193290D01*
X197131027Y-101122508D01*
X197164651Y-101059979D01*
X197226743Y-101025554D01*
X197254317Y-101022500D01*
X198273500Y-101022500D01*
X198341621Y-101042502D01*
X198388114Y-101096158D01*
X198399500Y-101148500D01*
X198399500Y-101316646D01*
X198399941Y-101320350D01*
X198399941Y-101320353D01*
X198400066Y-101321403D01*
X198402618Y-101342846D01*
X198406456Y-101351486D01*
X198406456Y-101351487D01*
X198443337Y-101434518D01*
X198448061Y-101445153D01*
X198456294Y-101453372D01*
X198456295Y-101453373D01*
X198465268Y-101462330D01*
X198527287Y-101524241D01*
X198537924Y-101528944D01*
X198537926Y-101528945D01*
X198572609Y-101544278D01*
X198629673Y-101569506D01*
X198655354Y-101572500D01*
X199163022Y-101572500D01*
X199174222Y-101572999D01*
X199175667Y-101573128D01*
X199182831Y-101574618D01*
X199259400Y-101572546D01*
X199262808Y-101572500D01*
X201396739Y-101572500D01*
X201447687Y-101583260D01*
X201521007Y-101615675D01*
X201521008Y-101615675D01*
X201529673Y-101619506D01*
X201555354Y-101622500D01*
X202644646Y-101622500D01*
X202648350Y-101622059D01*
X202648353Y-101622059D01*
X202655746Y-101621179D01*
X202670846Y-101619382D01*
X202746311Y-101585862D01*
X202762518Y-101578663D01*
X202773153Y-101573939D01*
X202792399Y-101554660D01*
X202844023Y-101502945D01*
X202852241Y-101494713D01*
X202868804Y-101457250D01*
X202890216Y-101408816D01*
X202897506Y-101392327D01*
X202900500Y-101366646D01*
X202900500Y-100277354D01*
X202897382Y-100251154D01*
X202887551Y-100229020D01*
X202856663Y-100159482D01*
X202851939Y-100148847D01*
X202772713Y-100069759D01*
X202762076Y-100065056D01*
X202762074Y-100065055D01*
X202693175Y-100034595D01*
X202670327Y-100024494D01*
X202644646Y-100021500D01*
X201555354Y-100021500D01*
X201551650Y-100021941D01*
X201551647Y-100021941D01*
X201544254Y-100022821D01*
X201529154Y-100024618D01*
X201520514Y-100028456D01*
X201520513Y-100028456D01*
X201448032Y-100060651D01*
X201396884Y-100071500D01*
X199976671Y-100071500D01*
X199908550Y-100051498D01*
X199887653Y-100034673D01*
X199880945Y-100027977D01*
X199872713Y-100019759D01*
X199862076Y-100015056D01*
X199862074Y-100015055D01*
X199802538Y-99988735D01*
X199770327Y-99974494D01*
X199744646Y-99971500D01*
X199513057Y-99971500D01*
X199444936Y-99951498D01*
X199423962Y-99934595D01*
X199277678Y-99788311D01*
X199265291Y-99773898D01*
X199256959Y-99762575D01*
X199256955Y-99762571D01*
X199252617Y-99756676D01*
X199212800Y-99722849D01*
X199205296Y-99715929D01*
X199199697Y-99710330D01*
X199177649Y-99692886D01*
X199174273Y-99690117D01*
X199124825Y-99648108D01*
X199124822Y-99648106D01*
X199119245Y-99643368D01*
X199112726Y-99640040D01*
X199107816Y-99636765D01*
X199102796Y-99633664D01*
X199097051Y-99629119D01*
X199031651Y-99598553D01*
X199027705Y-99596625D01*
X199018350Y-99591848D01*
X198963384Y-99563781D01*
X198956275Y-99562042D01*
X198950740Y-99559983D01*
X198945132Y-99558117D01*
X198938507Y-99555021D01*
X198931347Y-99553532D01*
X198931345Y-99553531D01*
X198867807Y-99540315D01*
X198863518Y-99539344D01*
X198829577Y-99531039D01*
X198793394Y-99522185D01*
X198787794Y-99521838D01*
X198787790Y-99521837D01*
X198782352Y-99521500D01*
X198782354Y-99521468D01*
X198778224Y-99521221D01*
X198774344Y-99520875D01*
X198767169Y-99519382D01*
X198759848Y-99519580D01*
X198759847Y-99519580D01*
X198690600Y-99521454D01*
X198687192Y-99521500D01*
X195078954Y-99521500D01*
X195060004Y-99520067D01*
X195046104Y-99517952D01*
X195046100Y-99517952D01*
X195038870Y-99516852D01*
X195031578Y-99517445D01*
X195031575Y-99517445D01*
X194986825Y-99521085D01*
X194976611Y-99521500D01*
X194968678Y-99521500D01*
X194962803Y-99522185D01*
X194940764Y-99524754D01*
X194936389Y-99525187D01*
X194906226Y-99527640D01*
X194864441Y-99531039D01*
X194857479Y-99533294D01*
X194851684Y-99534452D01*
X194845942Y-99535809D01*
X194838672Y-99536657D01*
X194770764Y-99561306D01*
X194766636Y-99562723D01*
X194704917Y-99582717D01*
X194704915Y-99582718D01*
X194697954Y-99584973D01*
X194691700Y-99588768D01*
X194686321Y-99591231D01*
X194681045Y-99593873D01*
X194674169Y-99596369D01*
X194632673Y-99623575D01*
X194613767Y-99635970D01*
X194610054Y-99638312D01*
X194548340Y-99675762D01*
X194544141Y-99679470D01*
X194544136Y-99679474D01*
X194540048Y-99683085D01*
X194540026Y-99683060D01*
X194536935Y-99685803D01*
X194533939Y-99688308D01*
X194527815Y-99692323D01*
X194522781Y-99697637D01*
X194475117Y-99747952D01*
X194472739Y-99750394D01*
X194188538Y-100034595D01*
X194126226Y-100068621D01*
X194099443Y-100071500D01*
X188053058Y-100071500D01*
X187984937Y-100051498D01*
X187963963Y-100034595D01*
X184031405Y-96102038D01*
X183997379Y-96039726D01*
X183994500Y-96012943D01*
X183994500Y-93911354D01*
X183991382Y-93885154D01*
X183945939Y-93782847D01*
X183866713Y-93703759D01*
X183856076Y-93699056D01*
X183856074Y-93699055D01*
X183796538Y-93672735D01*
X183764327Y-93658494D01*
X183738646Y-93655500D01*
X182449354Y-93655500D01*
X182445650Y-93655941D01*
X182445647Y-93655941D01*
X182438254Y-93656821D01*
X182423154Y-93658618D01*
X182320847Y-93704061D01*
X182312628Y-93712294D01*
X182312627Y-93712295D01*
X182306431Y-93718502D01*
X182241759Y-93783287D01*
X182237056Y-93793924D01*
X182237055Y-93793926D01*
X182226850Y-93817009D01*
X182196494Y-93885673D01*
X182193500Y-93911354D01*
X182193500Y-96500646D01*
X182196618Y-96526846D01*
X182200456Y-96535486D01*
X182200456Y-96535487D01*
X182237140Y-96618074D01*
X182242061Y-96629153D01*
X182250294Y-96637372D01*
X182250295Y-96637373D01*
X182270567Y-96657609D01*
X182321287Y-96708241D01*
X182331924Y-96712944D01*
X182331926Y-96712945D01*
X182391462Y-96739265D01*
X182423673Y-96753506D01*
X182449354Y-96756500D01*
X182510943Y-96756500D01*
X182579064Y-96776502D01*
X182600038Y-96793405D01*
X187112322Y-101305689D01*
X187124709Y-101320102D01*
X187133041Y-101331425D01*
X187133045Y-101331429D01*
X187137383Y-101337324D01*
X187177200Y-101371151D01*
X187184704Y-101378071D01*
X187190304Y-101383671D01*
X187212342Y-101401107D01*
X187215721Y-101403878D01*
X187270755Y-101450632D01*
X187277276Y-101453961D01*
X187282207Y-101457250D01*
X187287209Y-101460340D01*
X187292949Y-101464881D01*
X187299580Y-101467980D01*
X187299583Y-101467982D01*
X187358363Y-101495454D01*
X187362304Y-101497380D01*
X187426616Y-101530219D01*
X187433727Y-101531959D01*
X187439269Y-101534020D01*
X187444862Y-101535881D01*
X187451493Y-101538980D01*
X187458655Y-101540470D01*
X187458656Y-101540470D01*
X187522209Y-101553689D01*
X187526493Y-101554659D01*
X187596606Y-101571815D01*
X187602206Y-101572162D01*
X187602210Y-101572163D01*
X187607648Y-101572500D01*
X187607646Y-101572532D01*
X187611759Y-101572779D01*
X187615666Y-101573128D01*
X187622831Y-101574618D01*
X187699416Y-101572546D01*
X187702824Y-101572500D01*
X187895415Y-101572500D01*
X187963536Y-101592502D01*
X188010029Y-101646158D01*
X188020133Y-101716432D01*
X187990639Y-101781012D01*
X187984510Y-101787595D01*
X184697510Y-105074595D01*
X184635198Y-105108621D01*
X184608415Y-105111500D01*
X184010925Y-105111500D01*
X183942804Y-105091498D01*
X183921830Y-105074595D01*
X182727405Y-103880170D01*
X182693379Y-103817858D01*
X182690500Y-103791075D01*
X182690500Y-103074228D01*
X182679636Y-102984453D01*
X182673919Y-102970012D01*
X182640255Y-102884987D01*
X182624113Y-102844217D01*
X182532922Y-102724078D01*
X182412783Y-102632887D01*
X182349168Y-102607700D01*
X182280077Y-102580345D01*
X182280075Y-102580344D01*
X182272547Y-102577364D01*
X182182772Y-102566500D01*
X181297228Y-102566500D01*
X181207453Y-102577364D01*
X181199925Y-102580344D01*
X181199923Y-102580345D01*
X181130832Y-102607700D01*
X181067217Y-102632887D01*
X180947078Y-102724078D01*
X180855887Y-102844217D01*
X180839745Y-102884987D01*
X180806082Y-102970012D01*
X180800364Y-102984453D01*
X180789500Y-103074228D01*
X180789500Y-104409772D01*
X179798000Y-104409772D01*
X179798000Y-104014115D01*
X179793525Y-103998876D01*
X179792135Y-103997671D01*
X179784452Y-103996000D01*
X178912115Y-103996000D01*
X178896876Y-104000475D01*
X178895671Y-104001865D01*
X178894000Y-104009548D01*
X178894000Y-105106884D01*
X178386000Y-105106884D01*
X178386000Y-104014115D01*
X178381525Y-103998876D01*
X178380135Y-103997671D01*
X178372452Y-103996000D01*
X177500116Y-103996000D01*
X177484877Y-104000475D01*
X177483672Y-104001865D01*
X177482001Y-104009548D01*
X177482001Y-104414095D01*
X165536474Y-104414095D01*
X165968994Y-103981575D01*
X166031306Y-103947549D01*
X166058089Y-103944670D01*
X171461285Y-103944670D01*
X171529406Y-103964672D01*
X171550380Y-103981575D01*
X171796377Y-104227572D01*
X171806231Y-104238661D01*
X171820527Y-104256794D01*
X171827258Y-104265332D01*
X171835005Y-104270687D01*
X171835007Y-104270688D01*
X171860516Y-104288318D01*
X171873798Y-104297497D01*
X171875505Y-104298677D01*
X171878727Y-104300979D01*
X171912551Y-104325962D01*
X171925946Y-104335856D01*
X171932762Y-104338249D01*
X171938699Y-104342353D01*
X171947679Y-104345193D01*
X171947681Y-104345194D01*
X171956902Y-104348110D01*
X171994649Y-104360048D01*
X171998380Y-104361293D01*
X172044867Y-104377618D01*
X172044869Y-104377618D01*
X172053761Y-104380741D01*
X172060949Y-104381023D01*
X172061008Y-104381034D01*
X172067860Y-104383202D01*
X172074467Y-104383722D01*
X172127146Y-104383722D01*
X172132092Y-104383819D01*
X172189124Y-104386060D01*
X172196230Y-104384176D01*
X172204474Y-104383722D01*
X173190823Y-104383722D01*
X173205632Y-104384595D01*
X173210026Y-104385115D01*
X173239353Y-104388586D01*
X173248617Y-104386894D01*
X173248618Y-104386894D01*
X173297044Y-104378050D01*
X173300947Y-104377400D01*
X173349688Y-104370072D01*
X173349689Y-104370072D01*
X173359005Y-104368671D01*
X173365518Y-104365543D01*
X173372616Y-104364247D01*
X173424690Y-104337197D01*
X173428180Y-104335454D01*
X173481122Y-104310031D01*
X173486408Y-104305145D01*
X173486456Y-104305112D01*
X173492831Y-104301801D01*
X173497871Y-104297497D01*
X173535098Y-104260270D01*
X173538664Y-104256840D01*
X173573684Y-104224468D01*
X173580599Y-104218076D01*
X173584292Y-104211717D01*
X173589809Y-104205559D01*
X173859281Y-103936087D01*
X173921593Y-103902061D01*
X173950355Y-103899198D01*
X174025704Y-103900382D01*
X174025707Y-103900382D01*
X174033303Y-103900501D01*
X174040708Y-103898805D01*
X174040709Y-103898805D01*
X174122074Y-103880170D01*
X174198572Y-103862650D01*
X174239760Y-103841935D01*
X174296373Y-103828500D01*
X175733780Y-103828500D01*
X175748589Y-103829373D01*
X175782310Y-103833364D01*
X175791574Y-103831672D01*
X175791575Y-103831672D01*
X175840001Y-103822828D01*
X175843904Y-103822178D01*
X175892645Y-103814850D01*
X175892646Y-103814850D01*
X175901962Y-103813449D01*
X175908475Y-103810321D01*
X175915573Y-103809025D01*
X175967647Y-103781975D01*
X175971137Y-103780232D01*
X176024079Y-103754809D01*
X176029365Y-103749923D01*
X176029413Y-103749890D01*
X176035788Y-103746579D01*
X176040828Y-103742275D01*
X176078055Y-103705048D01*
X176081621Y-103701618D01*
X176116641Y-103669246D01*
X176123556Y-103662854D01*
X176127249Y-103656495D01*
X176132766Y-103650337D01*
X176313218Y-103469885D01*
X177482000Y-103469885D01*
X177486475Y-103485124D01*
X177487865Y-103486329D01*
X177495548Y-103488000D01*
X178367885Y-103488000D01*
X178383124Y-103483525D01*
X178384329Y-103482135D01*
X178386000Y-103474452D01*
X178386000Y-103469885D01*
X178894000Y-103469885D01*
X178898475Y-103485124D01*
X178899865Y-103486329D01*
X178907548Y-103488000D01*
X179779884Y-103488000D01*
X179795123Y-103483525D01*
X179796328Y-103482135D01*
X179797999Y-103474452D01*
X179797999Y-103069905D01*
X179797662Y-103063386D01*
X179787743Y-102967794D01*
X179784851Y-102954400D01*
X179733412Y-102800216D01*
X179727239Y-102787038D01*
X179641937Y-102649193D01*
X179632901Y-102637792D01*
X179518171Y-102523261D01*
X179506760Y-102514249D01*
X179368757Y-102429184D01*
X179355576Y-102423037D01*
X179201290Y-102371862D01*
X179187914Y-102368995D01*
X179093562Y-102359328D01*
X179087145Y-102359000D01*
X178912115Y-102359000D01*
X178896876Y-102363475D01*
X178895671Y-102364865D01*
X178894000Y-102372548D01*
X178894000Y-103469885D01*
X178386000Y-103469885D01*
X178386000Y-102377116D01*
X178381525Y-102361877D01*
X178380135Y-102360672D01*
X178372452Y-102359001D01*
X178192905Y-102359001D01*
X178186386Y-102359338D01*
X178090794Y-102369257D01*
X178077400Y-102372149D01*
X177923216Y-102423588D01*
X177910038Y-102429761D01*
X177772193Y-102515063D01*
X177760792Y-102524099D01*
X177646261Y-102638829D01*
X177637249Y-102650240D01*
X177552184Y-102788243D01*
X177546037Y-102801424D01*
X177494862Y-102955710D01*
X177491995Y-102969084D01*
X177482328Y-103063438D01*
X177482000Y-103069855D01*
X177482000Y-103469885D01*
X176313218Y-103469885D01*
X176463528Y-103319575D01*
X176474617Y-103309721D01*
X176493887Y-103294529D01*
X176493889Y-103294527D01*
X176501288Y-103288694D01*
X176534640Y-103240437D01*
X176536935Y-103237225D01*
X176538237Y-103235463D01*
X176559092Y-103207228D01*
X176566218Y-103197580D01*
X176566219Y-103197579D01*
X176571812Y-103190006D01*
X176574205Y-103183190D01*
X176578309Y-103177253D01*
X176596004Y-103121303D01*
X176597249Y-103117572D01*
X176613574Y-103071085D01*
X176613574Y-103071083D01*
X176616697Y-103062191D01*
X176616979Y-103055003D01*
X176616990Y-103054944D01*
X176619158Y-103048092D01*
X176619678Y-103041485D01*
X176619678Y-102988806D01*
X176619775Y-102983859D01*
X176620889Y-102955511D01*
X176622016Y-102926828D01*
X176620132Y-102919722D01*
X176619678Y-102911478D01*
X176619678Y-102184556D01*
X176639680Y-102116435D01*
X176693336Y-102069942D01*
X176715858Y-102062309D01*
X176717277Y-102061798D01*
X176724678Y-102060103D01*
X176876147Y-101983922D01*
X177005072Y-101873809D01*
X177104010Y-101736122D01*
X177110112Y-101720944D01*
X177164415Y-101585862D01*
X177164416Y-101585860D01*
X177167250Y-101578809D01*
X177188698Y-101428105D01*
X177218099Y-101363482D01*
X177224346Y-101356763D01*
X178016398Y-100564711D01*
X178027487Y-100554857D01*
X178046759Y-100539664D01*
X178046763Y-100539660D01*
X178054158Y-100533830D01*
X178059512Y-100526083D01*
X178059516Y-100526079D01*
X178087525Y-100485554D01*
X178089806Y-100482360D01*
X178124683Y-100435141D01*
X178127077Y-100428324D01*
X178131179Y-100422389D01*
X178148860Y-100366483D01*
X178150108Y-100362743D01*
X178166448Y-100316213D01*
X178166449Y-100316210D01*
X178169568Y-100307327D01*
X178169851Y-100300142D01*
X178169865Y-100300069D01*
X178172028Y-100293228D01*
X178172548Y-100286621D01*
X178172548Y-100233967D01*
X178172645Y-100229020D01*
X178173356Y-100210932D01*
X178174887Y-100171964D01*
X178173002Y-100164855D01*
X178172548Y-100156606D01*
X178172548Y-99308642D01*
X178173421Y-99293833D01*
X178176305Y-99269465D01*
X178177412Y-99260112D01*
X178175720Y-99250848D01*
X178175720Y-99250844D01*
X178166875Y-99202411D01*
X178166226Y-99198510D01*
X178158899Y-99149777D01*
X178158897Y-99149769D01*
X178157497Y-99140460D01*
X178154371Y-99133950D01*
X178153074Y-99126849D01*
X178126030Y-99074785D01*
X178124262Y-99071247D01*
X178102934Y-99026833D01*
X178098857Y-99018343D01*
X178093974Y-99013062D01*
X178093939Y-99013010D01*
X178090628Y-99006634D01*
X178086324Y-99001594D01*
X178049085Y-98964355D01*
X178045655Y-98960789D01*
X178006902Y-98918866D01*
X178000545Y-98915174D01*
X177994396Y-98909666D01*
X177771773Y-98687043D01*
X177544273Y-98459544D01*
X177510248Y-98397231D01*
X177508231Y-98369052D01*
X177507381Y-98369043D01*
X177507493Y-98358400D01*
X177507493Y-98358394D01*
X177507536Y-98354265D01*
X177506276Y-98343848D01*
X177495398Y-98253960D01*
X177487167Y-98185945D01*
X177427236Y-98027342D01*
X177331203Y-97887614D01*
X177325532Y-97882561D01*
X177210283Y-97779877D01*
X177210279Y-97779875D01*
X177204612Y-97774825D01*
X177182855Y-97763305D01*
X177074654Y-97706016D01*
X177054772Y-97695489D01*
X176890332Y-97654184D01*
X176882734Y-97654144D01*
X176882732Y-97654144D01*
X176732445Y-97653357D01*
X176721738Y-97653301D01*
X176653723Y-97632943D01*
X176607512Y-97579044D01*
X176597776Y-97508718D01*
X176620076Y-97453777D01*
X176666818Y-97388729D01*
X176666821Y-97388723D01*
X176671252Y-97382557D01*
X176674844Y-97373621D01*
X176731657Y-97232297D01*
X176731658Y-97232295D01*
X176734492Y-97225244D01*
X176741768Y-97174121D01*
X176757800Y-97061472D01*
X176757800Y-97061469D01*
X176758381Y-97057388D01*
X176758536Y-97042610D01*
X176738167Y-96874290D01*
X176678236Y-96715687D01*
X176673622Y-96708974D01*
X176586505Y-96582218D01*
X176586504Y-96582217D01*
X176582203Y-96575959D01*
X176545572Y-96543322D01*
X176518971Y-96500646D01*
X177193500Y-96500646D01*
X177196618Y-96526846D01*
X177200456Y-96535486D01*
X177200456Y-96535487D01*
X177237140Y-96618074D01*
X177242061Y-96629153D01*
X177250294Y-96637372D01*
X177250295Y-96637373D01*
X177270567Y-96657609D01*
X177321287Y-96708241D01*
X177331924Y-96712944D01*
X177331926Y-96712945D01*
X177391462Y-96739265D01*
X177423673Y-96753506D01*
X177449354Y-96756500D01*
X178738646Y-96756500D01*
X178742350Y-96756059D01*
X178742353Y-96756059D01*
X178750477Y-96755092D01*
X178764846Y-96753382D01*
X178867153Y-96707939D01*
X178888085Y-96686971D01*
X178918367Y-96656636D01*
X178946241Y-96628713D01*
X178957045Y-96604277D01*
X178978548Y-96555637D01*
X178991506Y-96526327D01*
X178994500Y-96500646D01*
X178994500Y-93911354D01*
X178991382Y-93885154D01*
X178945939Y-93782847D01*
X178866713Y-93703759D01*
X178856076Y-93699056D01*
X178856074Y-93699055D01*
X178796538Y-93672735D01*
X178764327Y-93658494D01*
X178738646Y-93655500D01*
X177449354Y-93655500D01*
X177445650Y-93655941D01*
X177445647Y-93655941D01*
X177438254Y-93656821D01*
X177423154Y-93658618D01*
X177320847Y-93704061D01*
X177312628Y-93712294D01*
X177312627Y-93712295D01*
X177306431Y-93718502D01*
X177241759Y-93783287D01*
X177237056Y-93793924D01*
X177237055Y-93793926D01*
X177226850Y-93817009D01*
X177196494Y-93885673D01*
X177193500Y-93911354D01*
X177193500Y-96500646D01*
X176518971Y-96500646D01*
X176508016Y-96483072D01*
X176503391Y-96449246D01*
X176503391Y-95624696D01*
X176504264Y-95609887D01*
X176507148Y-95585519D01*
X176508255Y-95576166D01*
X176497719Y-95518475D01*
X176497069Y-95514572D01*
X176489741Y-95465831D01*
X176489741Y-95465830D01*
X176488340Y-95456514D01*
X176485212Y-95450001D01*
X176483916Y-95442903D01*
X176456866Y-95390829D01*
X176455116Y-95387326D01*
X176429700Y-95334397D01*
X176424814Y-95329111D01*
X176424781Y-95329063D01*
X176421470Y-95322688D01*
X176417166Y-95317648D01*
X176379939Y-95280421D01*
X176376509Y-95276855D01*
X176344137Y-95241835D01*
X176337745Y-95234920D01*
X176331386Y-95231227D01*
X176325228Y-95225710D01*
X175555657Y-94456139D01*
X175545803Y-94445050D01*
X175530611Y-94425780D01*
X175530609Y-94425778D01*
X175524776Y-94418379D01*
X175517029Y-94413024D01*
X175517027Y-94413023D01*
X175480779Y-94387971D01*
X175476519Y-94385027D01*
X175473307Y-94382732D01*
X175433662Y-94353449D01*
X175433661Y-94353448D01*
X175426088Y-94347855D01*
X175419272Y-94345462D01*
X175413335Y-94341358D01*
X175404355Y-94338518D01*
X175404353Y-94338517D01*
X175384187Y-94332139D01*
X175357385Y-94323663D01*
X175353654Y-94322418D01*
X175307167Y-94306093D01*
X175307165Y-94306093D01*
X175298273Y-94302970D01*
X175291085Y-94302688D01*
X175291026Y-94302677D01*
X175284174Y-94300509D01*
X175277567Y-94299989D01*
X175224888Y-94299989D01*
X175219941Y-94299892D01*
X175162910Y-94297651D01*
X175155804Y-94299535D01*
X175147557Y-94299989D01*
X173060198Y-94299989D01*
X173045389Y-94299116D01*
X173036137Y-94298021D01*
X173011668Y-94295125D01*
X173002405Y-94296817D01*
X173002398Y-94296817D01*
X172953961Y-94305664D01*
X172950062Y-94306314D01*
X172927332Y-94309731D01*
X172901335Y-94313639D01*
X172901334Y-94313639D01*
X172892017Y-94315040D01*
X172885504Y-94318168D01*
X172878406Y-94319464D01*
X172826332Y-94346514D01*
X172822842Y-94348257D01*
X172769900Y-94373680D01*
X172764614Y-94378566D01*
X172764566Y-94378599D01*
X172758191Y-94381910D01*
X172753151Y-94386214D01*
X172715924Y-94423441D01*
X172712359Y-94426870D01*
X172670423Y-94465635D01*
X172666730Y-94471994D01*
X172661213Y-94478152D01*
X171799865Y-95339500D01*
X171737553Y-95373526D01*
X171710112Y-95376403D01*
X171664109Y-95376162D01*
X171605812Y-95361520D01*
X171597718Y-95357234D01*
X171590138Y-95351636D01*
X171583322Y-95349243D01*
X171577385Y-95345139D01*
X171568405Y-95342299D01*
X171568403Y-95342298D01*
X171539527Y-95333166D01*
X171521435Y-95327444D01*
X171517704Y-95326199D01*
X171471217Y-95309874D01*
X171471215Y-95309874D01*
X171462323Y-95306751D01*
X171455135Y-95306469D01*
X171455076Y-95306458D01*
X171448224Y-95304290D01*
X171441617Y-95303770D01*
X171388938Y-95303770D01*
X171383991Y-95303673D01*
X171326960Y-95301432D01*
X171319854Y-95303316D01*
X171311607Y-95303770D01*
X169930484Y-95303770D01*
X169915675Y-95302897D01*
X169891307Y-95300013D01*
X169881954Y-95298906D01*
X169872690Y-95300598D01*
X169872686Y-95300598D01*
X169824253Y-95309443D01*
X169820352Y-95310092D01*
X169771619Y-95317419D01*
X169771611Y-95317421D01*
X169762302Y-95318821D01*
X169755792Y-95321947D01*
X169748691Y-95323244D01*
X169740336Y-95327584D01*
X169696627Y-95350288D01*
X169693089Y-95352056D01*
X169688414Y-95354301D01*
X169640185Y-95377461D01*
X169634904Y-95382344D01*
X169634852Y-95382379D01*
X169628476Y-95385690D01*
X169623436Y-95389994D01*
X169586196Y-95427234D01*
X169582630Y-95430664D01*
X169547621Y-95463025D01*
X169547619Y-95463028D01*
X169540708Y-95469416D01*
X169537017Y-95475772D01*
X169531504Y-95481926D01*
X161868836Y-103144595D01*
X161806524Y-103178621D01*
X161779741Y-103181500D01*
X161615954Y-103181500D01*
X161547833Y-103161498D01*
X161498802Y-103101884D01*
X161489353Y-103078017D01*
X161462113Y-103009217D01*
X161370922Y-102889078D01*
X161250783Y-102797887D01*
X161127690Y-102749151D01*
X161071718Y-102705478D01*
X161048241Y-102638475D01*
X161064717Y-102569416D01*
X161115912Y-102520227D01*
X161127687Y-102514850D01*
X161250783Y-102466113D01*
X161370922Y-102374922D01*
X161462113Y-102254783D01*
X161497082Y-102166461D01*
X161514655Y-102122077D01*
X161514656Y-102122075D01*
X161517636Y-102114547D01*
X161528500Y-102024772D01*
X161528500Y-101239228D01*
X161517636Y-101149453D01*
X161512800Y-101137237D01*
X161474431Y-101040329D01*
X161462113Y-101009217D01*
X161370922Y-100889078D01*
X161250783Y-100797887D01*
X161166333Y-100764451D01*
X161118077Y-100745345D01*
X161118075Y-100745344D01*
X161110547Y-100742364D01*
X161020772Y-100731500D01*
X160316793Y-100731500D01*
X160248672Y-100711498D01*
X160227698Y-100694595D01*
X156443405Y-96910302D01*
X156409379Y-96847990D01*
X156406500Y-96821207D01*
X156406500Y-96656950D01*
X156426502Y-96588829D01*
X156431149Y-96582091D01*
X156489649Y-96502888D01*
X156546210Y-96459977D01*
X156616991Y-96454457D01*
X156679521Y-96488081D01*
X156692351Y-96502888D01*
X156748255Y-96578576D01*
X156748258Y-96578579D01*
X156753850Y-96586150D01*
X156761421Y-96591742D01*
X156855243Y-96661041D01*
X156855246Y-96661042D01*
X156862816Y-96666634D01*
X156990631Y-96711519D01*
X156998277Y-96712242D01*
X156998278Y-96712242D01*
X157002733Y-96712663D01*
X157022166Y-96714500D01*
X157429834Y-96714500D01*
X157449267Y-96712663D01*
X157453722Y-96712242D01*
X157453723Y-96712242D01*
X157461369Y-96711519D01*
X157589184Y-96666634D01*
X157596754Y-96661042D01*
X157596757Y-96661041D01*
X157690574Y-96591746D01*
X157690575Y-96591745D01*
X157698150Y-96586150D01*
X157703747Y-96578573D01*
X157710404Y-96571915D01*
X157711959Y-96573470D01*
X157758415Y-96538228D01*
X157803201Y-96530000D01*
X159644126Y-96530000D01*
X159712247Y-96550002D01*
X159720295Y-96555630D01*
X159780217Y-96601113D01*
X159823056Y-96618074D01*
X159912923Y-96653655D01*
X159912925Y-96653656D01*
X159920453Y-96656636D01*
X160010228Y-96667500D01*
X161045772Y-96667500D01*
X161135547Y-96656636D01*
X161143075Y-96653656D01*
X161143077Y-96653655D01*
X161232944Y-96618074D01*
X161275783Y-96601113D01*
X161345575Y-96548138D01*
X161411927Y-96522884D01*
X161421754Y-96522500D01*
X162998471Y-96522500D01*
X163017421Y-96523933D01*
X163031321Y-96526048D01*
X163031325Y-96526048D01*
X163038555Y-96527148D01*
X163045847Y-96526555D01*
X163045850Y-96526555D01*
X163090600Y-96522915D01*
X163100814Y-96522500D01*
X163108747Y-96522500D01*
X163118043Y-96521416D01*
X163136661Y-96519246D01*
X163141036Y-96518813D01*
X163171199Y-96516360D01*
X163212984Y-96512961D01*
X163219946Y-96510706D01*
X163225741Y-96509548D01*
X163231483Y-96508191D01*
X163238753Y-96507343D01*
X163306661Y-96482694D01*
X163310789Y-96481277D01*
X163372508Y-96461283D01*
X163372510Y-96461282D01*
X163379471Y-96459027D01*
X163385725Y-96455232D01*
X163391104Y-96452769D01*
X163396380Y-96450127D01*
X163403256Y-96447631D01*
X163463634Y-96408046D01*
X163467344Y-96405705D01*
X163524286Y-96371152D01*
X163524293Y-96371147D01*
X163529085Y-96368239D01*
X163537377Y-96360915D01*
X163537399Y-96360940D01*
X163540495Y-96358193D01*
X163543487Y-96355691D01*
X163549610Y-96351677D01*
X163554643Y-96346364D01*
X163554648Y-96346360D01*
X163602317Y-96296040D01*
X163604694Y-96293598D01*
X166903962Y-92994330D01*
X166966274Y-92960304D01*
X166993057Y-92957425D01*
X179252621Y-92957425D01*
X179271571Y-92958858D01*
X179285471Y-92960973D01*
X179285475Y-92960973D01*
X179292705Y-92962073D01*
X179299997Y-92961480D01*
X179300000Y-92961480D01*
X179344750Y-92957840D01*
X179354964Y-92957425D01*
X179362897Y-92957425D01*
X179372193Y-92956341D01*
X179390811Y-92954171D01*
X179395186Y-92953738D01*
X179410320Y-92952507D01*
X179479838Y-92966920D01*
X179509630Y-92988997D01*
X179806595Y-93285962D01*
X179840621Y-93348274D01*
X179843500Y-93375057D01*
X179843500Y-93629242D01*
X179823498Y-93697363D01*
X179806674Y-93718259D01*
X179741759Y-93783287D01*
X179737056Y-93793924D01*
X179737055Y-93793926D01*
X179726850Y-93817009D01*
X179696494Y-93885673D01*
X179693500Y-93911354D01*
X179693500Y-96500646D01*
X179696618Y-96526846D01*
X179700456Y-96535486D01*
X179700456Y-96535487D01*
X179737140Y-96618074D01*
X179742061Y-96629153D01*
X179750294Y-96637372D01*
X179750295Y-96637373D01*
X179770567Y-96657609D01*
X179821287Y-96708241D01*
X179831924Y-96712944D01*
X179831926Y-96712945D01*
X179891462Y-96739265D01*
X179923673Y-96753506D01*
X179949354Y-96756500D01*
X181238646Y-96756500D01*
X181242350Y-96756059D01*
X181242353Y-96756059D01*
X181250477Y-96755092D01*
X181264846Y-96753382D01*
X181367153Y-96707939D01*
X181388085Y-96686971D01*
X181418367Y-96656636D01*
X181446241Y-96628713D01*
X181457045Y-96604277D01*
X181478548Y-96555637D01*
X181491506Y-96526327D01*
X181494500Y-96500646D01*
X181494500Y-93911354D01*
X181491382Y-93885154D01*
X181445939Y-93782847D01*
X181381482Y-93718502D01*
X181347403Y-93656219D01*
X181344500Y-93629329D01*
X181344500Y-93078454D01*
X181345933Y-93059504D01*
X181348048Y-93045604D01*
X181348048Y-93045600D01*
X181349148Y-93038370D01*
X181344915Y-92986325D01*
X181344500Y-92976111D01*
X181344500Y-92968178D01*
X181342837Y-92953916D01*
X181341246Y-92940264D01*
X181340813Y-92935889D01*
X181335554Y-92871236D01*
X181334961Y-92863941D01*
X181332706Y-92856979D01*
X181331548Y-92851184D01*
X181330191Y-92845442D01*
X181329343Y-92838172D01*
X181304694Y-92770264D01*
X181303277Y-92766136D01*
X181283283Y-92704417D01*
X181283282Y-92704415D01*
X181281027Y-92697454D01*
X181277232Y-92691200D01*
X181274769Y-92685821D01*
X181272127Y-92680545D01*
X181269631Y-92673669D01*
X181230046Y-92613291D01*
X181227705Y-92609581D01*
X181193152Y-92552639D01*
X181193147Y-92552632D01*
X181190239Y-92547840D01*
X181182915Y-92539548D01*
X181182940Y-92539526D01*
X181180194Y-92536431D01*
X181177691Y-92533437D01*
X181173677Y-92527315D01*
X181118047Y-92474616D01*
X181115606Y-92472239D01*
X180704462Y-92061095D01*
X180670436Y-91998783D01*
X180675501Y-91927968D01*
X180704462Y-91882905D01*
X181077689Y-91509678D01*
X181092102Y-91497291D01*
X181103425Y-91488959D01*
X181103429Y-91488955D01*
X181109324Y-91484617D01*
X181143151Y-91444800D01*
X181150071Y-91437296D01*
X181155670Y-91431697D01*
X181173114Y-91409649D01*
X181175883Y-91406273D01*
X181217892Y-91356825D01*
X181217894Y-91356822D01*
X181222632Y-91351245D01*
X181225960Y-91344726D01*
X181229235Y-91339816D01*
X181232336Y-91334795D01*
X181236881Y-91329051D01*
X181254239Y-91291910D01*
X181301201Y-91238669D01*
X181317238Y-91230110D01*
X181367153Y-91207939D01*
X181446241Y-91128713D01*
X181491506Y-91026327D01*
X181494500Y-91000646D01*
X182193500Y-91000646D01*
X182196618Y-91026846D01*
X182242061Y-91129153D01*
X182321287Y-91208241D01*
X182331924Y-91212944D01*
X182331926Y-91212945D01*
X182370753Y-91230110D01*
X182423673Y-91253506D01*
X182449354Y-91256500D01*
X183738646Y-91256500D01*
X183742350Y-91256059D01*
X183742353Y-91256059D01*
X183749746Y-91255179D01*
X183764846Y-91253382D01*
X183774881Y-91248925D01*
X183856518Y-91212663D01*
X183867153Y-91207939D01*
X183946241Y-91128713D01*
X183991506Y-91026327D01*
X183994500Y-91000646D01*
X183994500Y-88411354D01*
X183991382Y-88385154D01*
X183983255Y-88366856D01*
X183950663Y-88293482D01*
X183945939Y-88282847D01*
X183866713Y-88203759D01*
X183856076Y-88199056D01*
X183856074Y-88199055D01*
X183796538Y-88172735D01*
X183764327Y-88158494D01*
X183738646Y-88155500D01*
X182449354Y-88155500D01*
X182445650Y-88155941D01*
X182445647Y-88155941D01*
X182438254Y-88156821D01*
X182423154Y-88158618D01*
X182320847Y-88204061D01*
X182312628Y-88212294D01*
X182312627Y-88212295D01*
X182286277Y-88238691D01*
X182241759Y-88283287D01*
X182237056Y-88293924D01*
X182237055Y-88293926D01*
X182230589Y-88308553D01*
X182196494Y-88385673D01*
X182193500Y-88411354D01*
X182193500Y-91000646D01*
X181494500Y-91000646D01*
X181494500Y-88411354D01*
X181491382Y-88385154D01*
X181483255Y-88366856D01*
X181450663Y-88293482D01*
X181445939Y-88282847D01*
X181366713Y-88203759D01*
X181356076Y-88199056D01*
X181356074Y-88199055D01*
X181296538Y-88172735D01*
X181264327Y-88158494D01*
X181238646Y-88155500D01*
X179949354Y-88155500D01*
X179945650Y-88155941D01*
X179945647Y-88155941D01*
X179938254Y-88156821D01*
X179923154Y-88158618D01*
X179820847Y-88204061D01*
X179812628Y-88212294D01*
X179812627Y-88212295D01*
X179786277Y-88238691D01*
X179741759Y-88283287D01*
X179737056Y-88293924D01*
X179737055Y-88293926D01*
X179730589Y-88308553D01*
X179696494Y-88385673D01*
X179693500Y-88411354D01*
X179693500Y-90262976D01*
X179670587Y-90335427D01*
X179598113Y-90438547D01*
X179536524Y-90596513D01*
X179514394Y-90764611D01*
X179515228Y-90772161D01*
X179526211Y-90871644D01*
X179513805Y-90941548D01*
X179490067Y-90974566D01*
X179045113Y-91419520D01*
X178982801Y-91453546D01*
X178956018Y-91456425D01*
X178901788Y-91456425D01*
X178833667Y-91436423D01*
X178787174Y-91382767D01*
X178777070Y-91312493D01*
X178806564Y-91247913D01*
X178850636Y-91215276D01*
X178867153Y-91207939D01*
X178946241Y-91128713D01*
X178991506Y-91026327D01*
X178994500Y-91000646D01*
X178994500Y-88411354D01*
X178991382Y-88385154D01*
X178987544Y-88376513D01*
X178985039Y-88367398D01*
X178987010Y-88366856D01*
X178979248Y-88308553D01*
X179009413Y-88244284D01*
X179014676Y-88238691D01*
X180293962Y-86959405D01*
X180356274Y-86925379D01*
X180383057Y-86922500D01*
X183043546Y-86922500D01*
X183062496Y-86923933D01*
X183076396Y-86926048D01*
X183076400Y-86926048D01*
X183083630Y-86927148D01*
X183090922Y-86926555D01*
X183090925Y-86926555D01*
X183135675Y-86922915D01*
X183145889Y-86922500D01*
X183153822Y-86922500D01*
X183163118Y-86921416D01*
X183181736Y-86919246D01*
X183186111Y-86918813D01*
X183216274Y-86916360D01*
X183258059Y-86912961D01*
X183265021Y-86910706D01*
X183270816Y-86909548D01*
X183276558Y-86908191D01*
X183283828Y-86907343D01*
X183351736Y-86882694D01*
X183355864Y-86881277D01*
X183417583Y-86861283D01*
X183417585Y-86861282D01*
X183424546Y-86859027D01*
X183430800Y-86855232D01*
X183436179Y-86852769D01*
X183441455Y-86850127D01*
X183448331Y-86847631D01*
X183508709Y-86808046D01*
X183512419Y-86805705D01*
X183569361Y-86771152D01*
X183569368Y-86771147D01*
X183574160Y-86768239D01*
X183582452Y-86760915D01*
X183582474Y-86760940D01*
X183585569Y-86758194D01*
X183588563Y-86755691D01*
X183594685Y-86751677D01*
X183647384Y-86696047D01*
X183649761Y-86693606D01*
X185883689Y-84459678D01*
X185898102Y-84447291D01*
X185909425Y-84438959D01*
X185909429Y-84438955D01*
X185915324Y-84434617D01*
X185949151Y-84394800D01*
X185956071Y-84387296D01*
X185961670Y-84381697D01*
X185979114Y-84359649D01*
X185981883Y-84356273D01*
X186023892Y-84306825D01*
X186023894Y-84306822D01*
X186028632Y-84301245D01*
X186031960Y-84294726D01*
X186035235Y-84289816D01*
X186038336Y-84284796D01*
X186042881Y-84279051D01*
X186052478Y-84258518D01*
X186073444Y-84213657D01*
X186075375Y-84209705D01*
X186088942Y-84183136D01*
X186108219Y-84145384D01*
X186109373Y-84140669D01*
X186478001Y-84140669D01*
X186478371Y-84147490D01*
X186483895Y-84198352D01*
X186487521Y-84213604D01*
X186532676Y-84334054D01*
X186541214Y-84349649D01*
X186617715Y-84451724D01*
X186630276Y-84464285D01*
X186732351Y-84540786D01*
X186747946Y-84549324D01*
X186868394Y-84594478D01*
X186883649Y-84598105D01*
X186934514Y-84603631D01*
X186941328Y-84604000D01*
X187413885Y-84604000D01*
X187429124Y-84599525D01*
X187430329Y-84598135D01*
X187432000Y-84590452D01*
X187432000Y-84585884D01*
X187940000Y-84585884D01*
X187944475Y-84601123D01*
X187945865Y-84602328D01*
X187953548Y-84603999D01*
X188430669Y-84603999D01*
X188437490Y-84603629D01*
X188488352Y-84598105D01*
X188503604Y-84594479D01*
X188624054Y-84549324D01*
X188639649Y-84540786D01*
X188741724Y-84464285D01*
X188754285Y-84451724D01*
X188830786Y-84349649D01*
X188839324Y-84334054D01*
X188884478Y-84213606D01*
X188888105Y-84198351D01*
X188893631Y-84147486D01*
X188894000Y-84140672D01*
X188894000Y-83568115D01*
X188889525Y-83552876D01*
X188888135Y-83551671D01*
X188880452Y-83550000D01*
X187958115Y-83550000D01*
X187942876Y-83554475D01*
X187941671Y-83555865D01*
X187940000Y-83563548D01*
X187940000Y-84585884D01*
X187432000Y-84585884D01*
X187432000Y-83568115D01*
X187427525Y-83552876D01*
X187426135Y-83551671D01*
X187418452Y-83550000D01*
X186496116Y-83550000D01*
X186480877Y-83554475D01*
X186479672Y-83555865D01*
X186478001Y-83563548D01*
X186478001Y-84140669D01*
X186109373Y-84140669D01*
X186109959Y-84138272D01*
X186112013Y-84132749D01*
X186113879Y-84127140D01*
X186116979Y-84120507D01*
X186131685Y-84049810D01*
X186132653Y-84045530D01*
X186133119Y-84043629D01*
X186149815Y-83975394D01*
X186150500Y-83964352D01*
X186150532Y-83964354D01*
X186150779Y-83960225D01*
X186151125Y-83956345D01*
X186152618Y-83949170D01*
X186150546Y-83872601D01*
X186150500Y-83869193D01*
X186150500Y-83023885D01*
X186478000Y-83023885D01*
X186482475Y-83039124D01*
X186483865Y-83040329D01*
X186491548Y-83042000D01*
X187413885Y-83042000D01*
X187429124Y-83037525D01*
X187430329Y-83036135D01*
X187432000Y-83028452D01*
X187432000Y-83023885D01*
X187940000Y-83023885D01*
X187944475Y-83039124D01*
X187945865Y-83040329D01*
X187953548Y-83042000D01*
X188875884Y-83042000D01*
X188891123Y-83037525D01*
X188892328Y-83036135D01*
X188893999Y-83028452D01*
X188893999Y-82451331D01*
X188893629Y-82444510D01*
X188888105Y-82393648D01*
X188884479Y-82378396D01*
X188839324Y-82257946D01*
X188830786Y-82242351D01*
X188754285Y-82140276D01*
X188741724Y-82127715D01*
X188639649Y-82051214D01*
X188624054Y-82042676D01*
X188503606Y-81997522D01*
X188488351Y-81993895D01*
X188437486Y-81988369D01*
X188430672Y-81988000D01*
X187958115Y-81988000D01*
X187942876Y-81992475D01*
X187941671Y-81993865D01*
X187940000Y-82001548D01*
X187940000Y-83023885D01*
X187432000Y-83023885D01*
X187432000Y-82006116D01*
X187427525Y-81990877D01*
X187426135Y-81989672D01*
X187418452Y-81988001D01*
X186941331Y-81988001D01*
X186934510Y-81988371D01*
X186883648Y-81993895D01*
X186868396Y-81997521D01*
X186747946Y-82042676D01*
X186732351Y-82051214D01*
X186630276Y-82127715D01*
X186617715Y-82140276D01*
X186541214Y-82242351D01*
X186532676Y-82257946D01*
X186487522Y-82378394D01*
X186483895Y-82393649D01*
X186478369Y-82444514D01*
X186478000Y-82451328D01*
X186478000Y-83023885D01*
X186150500Y-83023885D01*
X186150500Y-76140669D01*
X186478001Y-76140669D01*
X186478371Y-76147490D01*
X186483895Y-76198352D01*
X186487521Y-76213604D01*
X186532676Y-76334054D01*
X186541214Y-76349649D01*
X186617715Y-76451724D01*
X186630276Y-76464285D01*
X186732351Y-76540786D01*
X186747946Y-76549324D01*
X186868394Y-76594478D01*
X186883649Y-76598105D01*
X186934514Y-76603631D01*
X186941328Y-76604000D01*
X187413885Y-76604000D01*
X187429124Y-76599525D01*
X187430329Y-76598135D01*
X187432000Y-76590452D01*
X187432000Y-76585884D01*
X187940000Y-76585884D01*
X187944475Y-76601123D01*
X187945865Y-76602328D01*
X187953548Y-76603999D01*
X188430669Y-76603999D01*
X188437490Y-76603629D01*
X188488352Y-76598105D01*
X188503604Y-76594479D01*
X188624054Y-76549324D01*
X188639649Y-76540786D01*
X188741724Y-76464285D01*
X188754285Y-76451724D01*
X188830786Y-76349649D01*
X188839324Y-76334054D01*
X188884478Y-76213606D01*
X188888105Y-76198351D01*
X188893631Y-76147486D01*
X188894000Y-76140672D01*
X188894000Y-75568115D01*
X188889525Y-75552876D01*
X188888135Y-75551671D01*
X188880452Y-75550000D01*
X187958115Y-75550000D01*
X187942876Y-75554475D01*
X187941671Y-75555865D01*
X187940000Y-75563548D01*
X187940000Y-76585884D01*
X187432000Y-76585884D01*
X187432000Y-75568115D01*
X187427525Y-75552876D01*
X187426135Y-75551671D01*
X187418452Y-75550000D01*
X186496116Y-75550000D01*
X186480877Y-75554475D01*
X186479672Y-75555865D01*
X186478001Y-75563548D01*
X186478001Y-76140669D01*
X186150500Y-76140669D01*
X186150500Y-75023885D01*
X186478000Y-75023885D01*
X186482475Y-75039124D01*
X186483865Y-75040329D01*
X186491548Y-75042000D01*
X187413885Y-75042000D01*
X187429124Y-75037525D01*
X187430329Y-75036135D01*
X187432000Y-75028452D01*
X187432000Y-75023885D01*
X187940000Y-75023885D01*
X187944475Y-75039124D01*
X187945865Y-75040329D01*
X187953548Y-75042000D01*
X188875884Y-75042000D01*
X188891123Y-75037525D01*
X188892328Y-75036135D01*
X188893999Y-75028452D01*
X188893999Y-74451331D01*
X188893629Y-74444510D01*
X188888105Y-74393648D01*
X188884479Y-74378396D01*
X188839324Y-74257946D01*
X188830786Y-74242351D01*
X188754285Y-74140276D01*
X188741724Y-74127715D01*
X188639649Y-74051214D01*
X188624054Y-74042676D01*
X188503606Y-73997522D01*
X188488351Y-73993895D01*
X188437486Y-73988369D01*
X188430672Y-73988000D01*
X187958115Y-73988000D01*
X187942876Y-73992475D01*
X187941671Y-73993865D01*
X187940000Y-74001548D01*
X187940000Y-75023885D01*
X187432000Y-75023885D01*
X187432000Y-74006116D01*
X187427525Y-73990877D01*
X187426135Y-73989672D01*
X187418452Y-73988001D01*
X186941331Y-73988001D01*
X186934510Y-73988371D01*
X186883648Y-73993895D01*
X186868396Y-73997521D01*
X186747946Y-74042676D01*
X186732351Y-74051214D01*
X186630276Y-74127715D01*
X186617715Y-74140276D01*
X186541214Y-74242351D01*
X186532676Y-74257946D01*
X186487522Y-74378394D01*
X186483895Y-74393649D01*
X186478369Y-74444514D01*
X186478000Y-74451328D01*
X186478000Y-75023885D01*
X186150500Y-75023885D01*
X186150500Y-74776454D01*
X186151933Y-74757504D01*
X186154048Y-74743604D01*
X186154048Y-74743600D01*
X186155148Y-74736370D01*
X186150915Y-74684325D01*
X186150500Y-74674111D01*
X186150500Y-74666178D01*
X186147246Y-74638264D01*
X186146813Y-74633889D01*
X186141554Y-74569236D01*
X186140961Y-74561941D01*
X186138706Y-74554979D01*
X186137548Y-74549184D01*
X186136191Y-74543442D01*
X186135343Y-74536172D01*
X186110694Y-74468264D01*
X186109277Y-74464136D01*
X186089283Y-74402417D01*
X186089282Y-74402415D01*
X186087027Y-74395454D01*
X186083232Y-74389200D01*
X186080769Y-74383821D01*
X186078127Y-74378545D01*
X186075631Y-74371669D01*
X186036046Y-74311291D01*
X186033705Y-74307581D01*
X185999152Y-74250639D01*
X185999147Y-74250632D01*
X185996239Y-74245840D01*
X185988915Y-74237548D01*
X185988940Y-74237526D01*
X185986194Y-74234431D01*
X185983691Y-74231437D01*
X185979677Y-74225315D01*
X185924047Y-74172616D01*
X185921606Y-74170239D01*
X182239678Y-70488311D01*
X182227291Y-70473898D01*
X182218959Y-70462575D01*
X182218955Y-70462571D01*
X182214617Y-70456676D01*
X182174800Y-70422849D01*
X182167296Y-70415929D01*
X182161697Y-70410330D01*
X182139649Y-70392886D01*
X182136273Y-70390117D01*
X182086825Y-70348108D01*
X182086822Y-70348106D01*
X182081245Y-70343368D01*
X182074726Y-70340040D01*
X182069816Y-70336765D01*
X182064796Y-70333664D01*
X182059051Y-70329119D01*
X181993651Y-70298553D01*
X181989705Y-70296625D01*
X181931903Y-70267110D01*
X181925384Y-70263781D01*
X181918275Y-70262042D01*
X181912740Y-70259983D01*
X181907132Y-70258117D01*
X181900507Y-70255021D01*
X181893347Y-70253532D01*
X181893345Y-70253531D01*
X181829807Y-70240315D01*
X181825518Y-70239344D01*
X181808903Y-70235279D01*
X181755394Y-70222185D01*
X181749794Y-70221838D01*
X181749790Y-70221837D01*
X181744352Y-70221500D01*
X181744354Y-70221468D01*
X181740224Y-70221221D01*
X181736344Y-70220875D01*
X181729169Y-70219382D01*
X181721848Y-70219580D01*
X181721847Y-70219580D01*
X181652600Y-70221454D01*
X181649192Y-70221500D01*
X173574042Y-70221500D01*
X173505921Y-70201498D01*
X173459428Y-70147842D01*
X173449324Y-70077568D01*
X173468822Y-70029589D01*
X173468812Y-70029584D01*
X173468892Y-70029416D01*
X173472169Y-70021353D01*
X173480666Y-70009679D01*
X173509545Y-69901523D01*
X173497553Y-69790222D01*
X173487305Y-69766484D01*
X172942659Y-68823130D01*
X172926859Y-68801999D01*
X172836351Y-68736120D01*
X172825114Y-68733120D01*
X172825113Y-68733119D01*
X172769305Y-68718218D01*
X172728195Y-68707241D01*
X172716629Y-68708487D01*
X172716627Y-68708487D01*
X172626310Y-68718218D01*
X172626307Y-68718219D01*
X172616894Y-68719233D01*
X172593156Y-68729481D01*
X170350764Y-70024127D01*
X170329633Y-70039927D01*
X170263754Y-70130435D01*
X170234875Y-70238591D01*
X170236121Y-70250157D01*
X170236121Y-70250159D01*
X170245515Y-70337343D01*
X170246867Y-70349892D01*
X170257115Y-70373630D01*
X170801761Y-71316984D01*
X170817561Y-71338115D01*
X170908069Y-71403994D01*
X170919306Y-71406994D01*
X170919307Y-71406995D01*
X170938363Y-71412083D01*
X171016225Y-71432873D01*
X171027791Y-71431627D01*
X171027793Y-71431627D01*
X171118110Y-71421896D01*
X171118113Y-71421895D01*
X171127526Y-71420881D01*
X171151264Y-71410633D01*
X171701609Y-71092892D01*
X171770602Y-71076154D01*
X171837694Y-71099374D01*
X171853702Y-71112916D01*
X172196475Y-71455689D01*
X172208862Y-71470102D01*
X172217194Y-71481425D01*
X172217198Y-71481429D01*
X172221536Y-71487324D01*
X172261353Y-71521151D01*
X172268857Y-71528071D01*
X172274456Y-71533670D01*
X172296504Y-71551114D01*
X172299880Y-71553883D01*
X172349328Y-71595892D01*
X172349331Y-71595894D01*
X172354908Y-71600632D01*
X172361427Y-71603960D01*
X172366337Y-71607235D01*
X172371357Y-71610336D01*
X172377102Y-71614881D01*
X172383740Y-71617983D01*
X172383741Y-71617984D01*
X172442496Y-71645444D01*
X172446442Y-71647372D01*
X172510769Y-71680219D01*
X172517881Y-71681959D01*
X172523404Y-71684013D01*
X172529013Y-71685879D01*
X172535646Y-71688979D01*
X172606343Y-71703685D01*
X172610601Y-71704648D01*
X172680759Y-71721815D01*
X172686364Y-71722163D01*
X172686366Y-71722163D01*
X172691801Y-71722500D01*
X172691799Y-71722532D01*
X172695928Y-71722779D01*
X172699808Y-71723125D01*
X172706983Y-71724618D01*
X172714304Y-71724420D01*
X172714305Y-71724420D01*
X172783552Y-71722546D01*
X172786960Y-71722500D01*
X181298943Y-71722500D01*
X181367064Y-71742502D01*
X181388038Y-71759405D01*
X183609038Y-73980405D01*
X183643064Y-74042717D01*
X183637999Y-74113532D01*
X183595452Y-74170368D01*
X183528932Y-74195179D01*
X183519943Y-74195500D01*
X182441354Y-74195500D01*
X182437650Y-74195941D01*
X182437647Y-74195941D01*
X182430254Y-74196821D01*
X182415154Y-74198618D01*
X182406514Y-74202456D01*
X182406513Y-74202456D01*
X182334527Y-74234431D01*
X182312847Y-74244061D01*
X182233759Y-74323287D01*
X182188494Y-74425673D01*
X182185500Y-74451354D01*
X182185500Y-76140646D01*
X182188618Y-76166846D01*
X182234061Y-76269153D01*
X182313287Y-76348241D01*
X182323924Y-76352944D01*
X182323926Y-76352945D01*
X182383462Y-76379265D01*
X182415673Y-76393506D01*
X182441354Y-76396500D01*
X182609500Y-76396500D01*
X182677621Y-76416502D01*
X182724114Y-76470158D01*
X182735500Y-76522500D01*
X182735500Y-82069500D01*
X182715498Y-82137621D01*
X182661842Y-82184114D01*
X182609500Y-82195500D01*
X182441354Y-82195500D01*
X182437650Y-82195941D01*
X182437647Y-82195941D01*
X182430254Y-82196821D01*
X182415154Y-82198618D01*
X182312847Y-82244061D01*
X182233759Y-82323287D01*
X182188494Y-82425673D01*
X182185500Y-82451354D01*
X182185500Y-82719500D01*
X182165498Y-82787621D01*
X182111842Y-82834114D01*
X182059500Y-82845500D01*
X178710220Y-82845500D01*
X178695411Y-82844627D01*
X178671043Y-82841743D01*
X178661690Y-82840636D01*
X178652426Y-82842328D01*
X178652422Y-82842328D01*
X178603989Y-82851173D01*
X178600088Y-82851822D01*
X178551355Y-82859149D01*
X178551347Y-82859151D01*
X178542038Y-82860551D01*
X178535528Y-82863677D01*
X178528427Y-82864974D01*
X178520072Y-82869314D01*
X178476363Y-82892018D01*
X178472825Y-82893786D01*
X178428411Y-82915114D01*
X178419921Y-82919191D01*
X178414635Y-82924078D01*
X178414595Y-82924105D01*
X178408212Y-82927420D01*
X178403172Y-82931725D01*
X178365945Y-82968952D01*
X178362380Y-82972381D01*
X178320444Y-83011146D01*
X178316751Y-83017505D01*
X178311234Y-83023663D01*
X176789131Y-84545766D01*
X176726819Y-84579792D01*
X176656004Y-84574727D01*
X176652370Y-84572006D01*
X176664355Y-84626955D01*
X176639581Y-84693489D01*
X176627766Y-84707131D01*
X174259803Y-87075094D01*
X174197491Y-87109120D01*
X174170708Y-87111999D01*
X169701294Y-87111999D01*
X169633173Y-87091997D01*
X169586680Y-87038341D01*
X169576576Y-86968067D01*
X169606070Y-86903487D01*
X169612199Y-86896904D01*
X171272350Y-85236753D01*
X171283439Y-85226899D01*
X171302711Y-85211706D01*
X171302715Y-85211702D01*
X171310110Y-85205872D01*
X171315464Y-85198125D01*
X171315468Y-85198121D01*
X171343477Y-85157596D01*
X171345758Y-85154402D01*
X171380635Y-85107183D01*
X171383029Y-85100366D01*
X171387131Y-85094431D01*
X171404812Y-85038525D01*
X171406060Y-85034785D01*
X171422400Y-84988255D01*
X171422401Y-84988252D01*
X171425520Y-84979369D01*
X171425803Y-84972184D01*
X171425817Y-84972111D01*
X171427980Y-84965270D01*
X171428500Y-84958663D01*
X171428500Y-84905994D01*
X171428597Y-84901048D01*
X171428832Y-84895074D01*
X171430838Y-84844006D01*
X171428954Y-84836900D01*
X171428500Y-84828653D01*
X171428500Y-84522500D01*
X171448502Y-84454379D01*
X171502158Y-84407886D01*
X171554500Y-84396500D01*
X171722646Y-84396500D01*
X171726350Y-84396059D01*
X171726353Y-84396059D01*
X171736838Y-84394811D01*
X171748846Y-84393382D01*
X171769327Y-84384285D01*
X171840518Y-84352663D01*
X171851153Y-84347939D01*
X171930241Y-84268713D01*
X171955471Y-84211646D01*
X171971675Y-84174992D01*
X171975506Y-84166327D01*
X171978497Y-84140669D01*
X174270001Y-84140669D01*
X174270371Y-84147490D01*
X174275895Y-84198352D01*
X174279521Y-84213604D01*
X174324676Y-84334054D01*
X174333214Y-84349649D01*
X174409715Y-84451724D01*
X174422276Y-84464285D01*
X174524351Y-84540786D01*
X174539946Y-84549324D01*
X174660394Y-84594478D01*
X174675649Y-84598105D01*
X174726514Y-84603631D01*
X174733328Y-84604000D01*
X175205885Y-84604000D01*
X175221124Y-84599525D01*
X175222329Y-84598135D01*
X175224000Y-84590452D01*
X175224000Y-84585884D01*
X175732000Y-84585884D01*
X175736475Y-84601123D01*
X175737865Y-84602328D01*
X175745548Y-84603999D01*
X176222669Y-84603999D01*
X176229490Y-84603629D01*
X176280352Y-84598105D01*
X176295604Y-84594479D01*
X176416054Y-84549324D01*
X176431649Y-84540786D01*
X176463106Y-84517210D01*
X176529613Y-84492362D01*
X176589133Y-84505275D01*
X176574357Y-84465660D01*
X176589448Y-84396286D01*
X176599210Y-84381106D01*
X176622786Y-84349649D01*
X176631324Y-84334054D01*
X176676478Y-84213606D01*
X176680105Y-84198351D01*
X176685631Y-84147486D01*
X176686000Y-84140672D01*
X176686000Y-83568115D01*
X176681525Y-83552876D01*
X176680135Y-83551671D01*
X176672452Y-83550000D01*
X175750115Y-83550000D01*
X175734876Y-83554475D01*
X175733671Y-83555865D01*
X175732000Y-83563548D01*
X175732000Y-84585884D01*
X175224000Y-84585884D01*
X175224000Y-83568115D01*
X175219525Y-83552876D01*
X175218135Y-83551671D01*
X175210452Y-83550000D01*
X174288116Y-83550000D01*
X174272877Y-83554475D01*
X174271672Y-83555865D01*
X174270001Y-83563548D01*
X174270001Y-84140669D01*
X171978497Y-84140669D01*
X171978500Y-84140646D01*
X171978500Y-83023885D01*
X174270000Y-83023885D01*
X174274475Y-83039124D01*
X174275865Y-83040329D01*
X174283548Y-83042000D01*
X175205885Y-83042000D01*
X175221124Y-83037525D01*
X175222329Y-83036135D01*
X175224000Y-83028452D01*
X175224000Y-83023885D01*
X175732000Y-83023885D01*
X175736475Y-83039124D01*
X175737865Y-83040329D01*
X175745548Y-83042000D01*
X176667884Y-83042000D01*
X176683123Y-83037525D01*
X176684328Y-83036135D01*
X176685999Y-83028452D01*
X176685999Y-82451331D01*
X176685629Y-82444510D01*
X176680105Y-82393648D01*
X176676479Y-82378396D01*
X176631324Y-82257946D01*
X176622786Y-82242351D01*
X176546285Y-82140276D01*
X176533724Y-82127715D01*
X176431649Y-82051214D01*
X176416054Y-82042676D01*
X176295606Y-81997522D01*
X176280351Y-81993895D01*
X176229486Y-81988369D01*
X176222672Y-81988000D01*
X175750115Y-81988000D01*
X175734876Y-81992475D01*
X175733671Y-81993865D01*
X175732000Y-82001548D01*
X175732000Y-83023885D01*
X175224000Y-83023885D01*
X175224000Y-82006116D01*
X175219525Y-81990877D01*
X175218135Y-81989672D01*
X175210452Y-81988001D01*
X174733331Y-81988001D01*
X174726510Y-81988371D01*
X174675648Y-81993895D01*
X174660396Y-81997521D01*
X174539946Y-82042676D01*
X174524351Y-82051214D01*
X174422276Y-82127715D01*
X174409715Y-82140276D01*
X174333214Y-82242351D01*
X174324676Y-82257946D01*
X174279522Y-82378394D01*
X174275895Y-82393649D01*
X174270369Y-82444514D01*
X174270000Y-82451328D01*
X174270000Y-83023885D01*
X171978500Y-83023885D01*
X171978500Y-82451354D01*
X171975382Y-82425154D01*
X171929939Y-82322847D01*
X171850713Y-82243759D01*
X171840076Y-82239056D01*
X171840074Y-82239055D01*
X171780538Y-82212735D01*
X171748327Y-82198494D01*
X171722646Y-82195500D01*
X171554500Y-82195500D01*
X171486379Y-82175498D01*
X171439886Y-82121842D01*
X171428500Y-82069500D01*
X171428500Y-76522500D01*
X171448502Y-76454379D01*
X171502158Y-76407886D01*
X171554500Y-76396500D01*
X171722646Y-76396500D01*
X171726350Y-76396059D01*
X171726353Y-76396059D01*
X171733746Y-76395179D01*
X171748846Y-76393382D01*
X171851153Y-76347939D01*
X171930241Y-76268713D01*
X171975506Y-76166327D01*
X171978497Y-76140669D01*
X174270001Y-76140669D01*
X174270371Y-76147490D01*
X174275895Y-76198352D01*
X174279521Y-76213604D01*
X174324676Y-76334054D01*
X174333214Y-76349649D01*
X174409715Y-76451724D01*
X174422276Y-76464285D01*
X174524351Y-76540786D01*
X174539946Y-76549324D01*
X174660394Y-76594478D01*
X174675649Y-76598105D01*
X174726514Y-76603631D01*
X174733328Y-76604000D01*
X175205885Y-76604000D01*
X175221124Y-76599525D01*
X175222329Y-76598135D01*
X175224000Y-76590452D01*
X175224000Y-76585884D01*
X175732000Y-76585884D01*
X175736475Y-76601123D01*
X175737865Y-76602328D01*
X175745548Y-76603999D01*
X176222669Y-76603999D01*
X176229490Y-76603629D01*
X176280352Y-76598105D01*
X176295604Y-76594479D01*
X176416054Y-76549324D01*
X176431649Y-76540786D01*
X176533724Y-76464285D01*
X176546285Y-76451724D01*
X176622786Y-76349649D01*
X176631324Y-76334054D01*
X176676478Y-76213606D01*
X176680105Y-76198351D01*
X176685631Y-76147486D01*
X176686000Y-76140672D01*
X176686000Y-75568115D01*
X176681525Y-75552876D01*
X176680135Y-75551671D01*
X176672452Y-75550000D01*
X175750115Y-75550000D01*
X175734876Y-75554475D01*
X175733671Y-75555865D01*
X175732000Y-75563548D01*
X175732000Y-76585884D01*
X175224000Y-76585884D01*
X175224000Y-75568115D01*
X175219525Y-75552876D01*
X175218135Y-75551671D01*
X175210452Y-75550000D01*
X174288116Y-75550000D01*
X174272877Y-75554475D01*
X174271672Y-75555865D01*
X174270001Y-75563548D01*
X174270001Y-76140669D01*
X171978497Y-76140669D01*
X171978500Y-76140646D01*
X171978500Y-75023885D01*
X174270000Y-75023885D01*
X174274475Y-75039124D01*
X174275865Y-75040329D01*
X174283548Y-75042000D01*
X175205885Y-75042000D01*
X175221124Y-75037525D01*
X175222329Y-75036135D01*
X175224000Y-75028452D01*
X175224000Y-75023885D01*
X175732000Y-75023885D01*
X175736475Y-75039124D01*
X175737865Y-75040329D01*
X175745548Y-75042000D01*
X176667884Y-75042000D01*
X176683123Y-75037525D01*
X176684328Y-75036135D01*
X176685999Y-75028452D01*
X176685999Y-74451331D01*
X176685629Y-74444510D01*
X176680105Y-74393648D01*
X176676479Y-74378396D01*
X176631324Y-74257946D01*
X176622786Y-74242351D01*
X176546285Y-74140276D01*
X176533724Y-74127715D01*
X176431649Y-74051214D01*
X176416054Y-74042676D01*
X176295606Y-73997522D01*
X176280351Y-73993895D01*
X176229486Y-73988369D01*
X176222672Y-73988000D01*
X175750115Y-73988000D01*
X175734876Y-73992475D01*
X175733671Y-73993865D01*
X175732000Y-74001548D01*
X175732000Y-75023885D01*
X175224000Y-75023885D01*
X175224000Y-74006116D01*
X175219525Y-73990877D01*
X175218135Y-73989672D01*
X175210452Y-73988001D01*
X174733331Y-73988001D01*
X174726510Y-73988371D01*
X174675648Y-73993895D01*
X174660396Y-73997521D01*
X174539946Y-74042676D01*
X174524351Y-74051214D01*
X174422276Y-74127715D01*
X174409715Y-74140276D01*
X174333214Y-74242351D01*
X174324676Y-74257946D01*
X174279522Y-74378394D01*
X174275895Y-74393649D01*
X174270369Y-74444514D01*
X174270000Y-74451328D01*
X174270000Y-75023885D01*
X171978500Y-75023885D01*
X171978500Y-74451354D01*
X171975382Y-74425154D01*
X171948907Y-74365549D01*
X171934663Y-74333482D01*
X171929939Y-74322847D01*
X171914647Y-74307581D01*
X171890165Y-74283142D01*
X171850713Y-74243759D01*
X171840076Y-74239056D01*
X171840074Y-74239055D01*
X171780538Y-74212735D01*
X171748327Y-74198494D01*
X171722646Y-74195500D01*
X170233354Y-74195500D01*
X170229650Y-74195941D01*
X170229647Y-74195941D01*
X170222254Y-74196821D01*
X170207154Y-74198618D01*
X170198514Y-74202456D01*
X170198513Y-74202456D01*
X170126527Y-74234431D01*
X170104847Y-74244061D01*
X170025759Y-74323287D01*
X169980494Y-74425673D01*
X169977500Y-74451354D01*
X169977500Y-76140646D01*
X169980618Y-76166846D01*
X170026061Y-76269153D01*
X170105287Y-76348241D01*
X170115924Y-76352944D01*
X170115926Y-76352945D01*
X170175462Y-76379265D01*
X170207673Y-76393506D01*
X170233354Y-76396500D01*
X170401500Y-76396500D01*
X170469621Y-76416502D01*
X170516114Y-76470158D01*
X170527500Y-76522500D01*
X170527500Y-82069500D01*
X170507498Y-82137621D01*
X170453842Y-82184114D01*
X170401500Y-82195500D01*
X170233354Y-82195500D01*
X170229650Y-82195941D01*
X170229647Y-82195941D01*
X170222254Y-82196821D01*
X170207154Y-82198618D01*
X170104847Y-82244061D01*
X170025759Y-82323287D01*
X169980494Y-82425673D01*
X169977500Y-82451354D01*
X169977500Y-84140646D01*
X169980618Y-84166846D01*
X169984456Y-84175486D01*
X169984456Y-84175487D01*
X170021140Y-84258074D01*
X170026061Y-84269153D01*
X170105287Y-84348241D01*
X170115924Y-84352944D01*
X170115926Y-84352945D01*
X170131145Y-84359673D01*
X170207673Y-84393506D01*
X170233354Y-84396500D01*
X170401500Y-84396500D01*
X170469621Y-84416502D01*
X170516114Y-84470158D01*
X170527500Y-84522500D01*
X170527500Y-84655207D01*
X170507498Y-84723328D01*
X170490595Y-84744302D01*
X168750302Y-86484595D01*
X168687990Y-86518621D01*
X168661207Y-86521500D01*
X161085793Y-86521500D01*
X161017672Y-86501498D01*
X160971179Y-86447842D01*
X160961075Y-86377568D01*
X160990569Y-86312988D01*
X160996698Y-86306405D01*
X162869698Y-84433405D01*
X162932010Y-84399379D01*
X162958793Y-84396500D01*
X164014646Y-84396500D01*
X164018350Y-84396059D01*
X164018353Y-84396059D01*
X164028838Y-84394811D01*
X164040846Y-84393382D01*
X164061327Y-84384285D01*
X164132518Y-84352663D01*
X164143153Y-84347939D01*
X164222241Y-84268713D01*
X164247471Y-84211646D01*
X164263675Y-84174992D01*
X164267506Y-84166327D01*
X164270500Y-84140646D01*
X164270500Y-82451354D01*
X164267382Y-82425154D01*
X164221939Y-82322847D01*
X164142713Y-82243759D01*
X164132076Y-82239056D01*
X164132074Y-82239055D01*
X164072538Y-82212735D01*
X164040327Y-82198494D01*
X164014646Y-82195500D01*
X163846500Y-82195500D01*
X163778379Y-82175498D01*
X163731886Y-82121842D01*
X163720500Y-82069500D01*
X163720500Y-76522500D01*
X163740502Y-76454379D01*
X163794158Y-76407886D01*
X163846500Y-76396500D01*
X164014646Y-76396500D01*
X164018350Y-76396059D01*
X164018353Y-76396059D01*
X164025746Y-76395179D01*
X164040846Y-76393382D01*
X164143153Y-76347939D01*
X164222241Y-76268713D01*
X164267506Y-76166327D01*
X164270500Y-76140646D01*
X164270500Y-74451354D01*
X164267382Y-74425154D01*
X164240907Y-74365549D01*
X164226663Y-74333482D01*
X164221939Y-74322847D01*
X164206647Y-74307581D01*
X164182165Y-74283142D01*
X164142713Y-74243759D01*
X164132076Y-74239056D01*
X164132074Y-74239055D01*
X164072538Y-74212735D01*
X164040327Y-74198494D01*
X164014646Y-74195500D01*
X162525354Y-74195500D01*
X162521650Y-74195941D01*
X162521647Y-74195941D01*
X162514254Y-74196821D01*
X162499154Y-74198618D01*
X162490514Y-74202456D01*
X162490513Y-74202456D01*
X162418527Y-74234431D01*
X162396847Y-74244061D01*
X162317759Y-74323287D01*
X162272494Y-74425673D01*
X162269500Y-74451354D01*
X162269500Y-76140646D01*
X162272618Y-76166846D01*
X162318061Y-76269153D01*
X162397287Y-76348241D01*
X162407924Y-76352944D01*
X162407926Y-76352945D01*
X162467462Y-76379265D01*
X162499673Y-76393506D01*
X162525354Y-76396500D01*
X162693500Y-76396500D01*
X162761621Y-76416502D01*
X162808114Y-76470158D01*
X162819500Y-76522500D01*
X162819500Y-82069500D01*
X162799498Y-82137621D01*
X162745842Y-82184114D01*
X162693500Y-82195500D01*
X162525354Y-82195500D01*
X162521650Y-82195941D01*
X162521647Y-82195941D01*
X162514254Y-82196821D01*
X162499154Y-82198618D01*
X162396847Y-82244061D01*
X162317759Y-82323287D01*
X162272494Y-82425673D01*
X162269500Y-82451354D01*
X162269500Y-83707205D01*
X162249498Y-83775326D01*
X162232596Y-83796300D01*
X161815240Y-84213657D01*
X161540596Y-84488301D01*
X161478283Y-84522326D01*
X161407468Y-84517262D01*
X161350632Y-84474715D01*
X161325821Y-84408195D01*
X161325500Y-84399206D01*
X161325500Y-75000438D01*
X161345502Y-74932317D01*
X161362405Y-74911343D01*
X163239343Y-73034405D01*
X163301655Y-73000379D01*
X163328438Y-72997500D01*
X165967955Y-72997500D01*
X165990772Y-72990086D01*
X166009991Y-72985472D01*
X166033688Y-72981719D01*
X166042526Y-72977216D01*
X166055064Y-72970828D01*
X166073325Y-72963264D01*
X166086709Y-72958915D01*
X166086712Y-72958913D01*
X166096143Y-72955849D01*
X166115553Y-72941747D01*
X166132399Y-72931423D01*
X166153782Y-72920528D01*
X169832761Y-69241549D01*
X169871913Y-69214965D01*
X169881264Y-69210928D01*
X172123656Y-67916282D01*
X172144787Y-67900482D01*
X172210666Y-67809974D01*
X172239545Y-67701818D01*
X172234740Y-67657220D01*
X172228568Y-67599933D01*
X172228567Y-67599930D01*
X172227553Y-67590517D01*
X172217305Y-67566779D01*
X171672659Y-66623425D01*
X171656859Y-66602294D01*
X171594441Y-66556861D01*
X171551138Y-66500603D01*
X171545124Y-66429862D01*
X171578311Y-66367099D01*
X171607724Y-66344670D01*
X171637615Y-66328178D01*
X171698484Y-66312500D01*
X172049207Y-66312500D01*
X172117328Y-66332502D01*
X172138302Y-66349405D01*
X173502478Y-67713581D01*
X173536504Y-67775893D01*
X173539327Y-67803521D01*
X173538394Y-67810611D01*
X173556999Y-67979135D01*
X173615266Y-68138356D01*
X173619502Y-68144659D01*
X173619502Y-68144660D01*
X173629059Y-68158883D01*
X173709830Y-68279083D01*
X173715442Y-68284190D01*
X173715445Y-68284193D01*
X173829612Y-68388077D01*
X173829616Y-68388080D01*
X173835233Y-68393191D01*
X173841906Y-68396814D01*
X173841910Y-68396817D01*
X173977558Y-68470467D01*
X173977560Y-68470468D01*
X173984235Y-68474092D01*
X173991584Y-68476020D01*
X174140883Y-68515188D01*
X174140885Y-68515188D01*
X174148233Y-68517116D01*
X174234609Y-68518473D01*
X174310161Y-68519660D01*
X174310164Y-68519660D01*
X174317760Y-68519779D01*
X174325165Y-68518083D01*
X174325166Y-68518083D01*
X174385586Y-68504245D01*
X174483029Y-68481928D01*
X174634498Y-68405747D01*
X174763423Y-68295634D01*
X174862361Y-68157947D01*
X174870237Y-68138356D01*
X174922766Y-68007687D01*
X174922767Y-68007685D01*
X174925601Y-68000634D01*
X174937606Y-67916282D01*
X174948909Y-67836862D01*
X174948909Y-67836859D01*
X174949490Y-67832778D01*
X174949645Y-67818000D01*
X174929276Y-67649680D01*
X174869345Y-67491077D01*
X174773312Y-67351349D01*
X174767641Y-67346296D01*
X174652392Y-67243612D01*
X174652388Y-67243610D01*
X174646721Y-67238560D01*
X174496881Y-67159224D01*
X174332441Y-67117919D01*
X174324843Y-67117879D01*
X174324841Y-67117879D01*
X174232028Y-67117393D01*
X174164013Y-67097035D01*
X174143593Y-67080490D01*
X172630753Y-65567650D01*
X172620899Y-65556561D01*
X172605707Y-65537291D01*
X172605705Y-65537289D01*
X172599872Y-65529890D01*
X172592125Y-65524535D01*
X172592123Y-65524534D01*
X172551625Y-65496545D01*
X172548403Y-65494243D01*
X172508758Y-65464960D01*
X172508757Y-65464959D01*
X172501184Y-65459366D01*
X172494368Y-65456973D01*
X172488431Y-65452869D01*
X172479451Y-65450029D01*
X172479449Y-65450028D01*
X172459283Y-65443650D01*
X172432481Y-65435174D01*
X172428750Y-65433929D01*
X172382263Y-65417604D01*
X172382261Y-65417604D01*
X172373369Y-65414481D01*
X172366181Y-65414199D01*
X172366122Y-65414188D01*
X172359270Y-65412020D01*
X172352663Y-65411500D01*
X172299984Y-65411500D01*
X172295037Y-65411403D01*
X172238006Y-65409162D01*
X172230900Y-65411046D01*
X172222653Y-65411500D01*
X171579274Y-65411500D01*
X171566622Y-65410863D01*
X171527851Y-65406950D01*
X171518618Y-65408801D01*
X171475188Y-65417508D01*
X171469152Y-65418566D01*
X171425349Y-65425151D01*
X171425348Y-65425151D01*
X171416038Y-65426551D01*
X171408016Y-65430403D01*
X171405784Y-65430968D01*
X171402064Y-65432167D01*
X171395028Y-65433578D01*
X171388992Y-65436315D01*
X171386827Y-65437509D01*
X171386818Y-65437514D01*
X171347035Y-65459463D01*
X171340962Y-65462602D01*
X171340870Y-65462646D01*
X171340756Y-65462701D01*
X171270716Y-65474313D01*
X171205516Y-65446215D01*
X171165858Y-65387328D01*
X171161673Y-65369926D01*
X171155239Y-65331268D01*
X171150755Y-65316252D01*
X171130103Y-65269427D01*
X171127020Y-65263351D01*
X170990740Y-65027307D01*
X170979245Y-65016347D01*
X170977437Y-65015998D01*
X170969950Y-65018391D01*
X169239240Y-66017618D01*
X167952425Y-66760560D01*
X167941465Y-66772055D01*
X167941117Y-66773862D01*
X167943510Y-66781350D01*
X168082074Y-67021348D01*
X168085798Y-67027060D01*
X168120685Y-67074729D01*
X168118369Y-67076424D01*
X168144432Y-67127546D01*
X168137363Y-67198190D01*
X168093224Y-67253798D01*
X168081480Y-67261148D01*
X167037999Y-67836862D01*
X167020186Y-67846690D01*
X167003149Y-67854497D01*
X166979815Y-67863152D01*
X166974282Y-67866800D01*
X166931018Y-67900482D01*
X166927674Y-67903085D01*
X166926865Y-67903709D01*
X166875943Y-67942694D01*
X166872350Y-67945445D01*
X166871406Y-67946771D01*
X166870412Y-67947664D01*
X162407738Y-71421896D01*
X162404976Y-71424046D01*
X162385659Y-71436435D01*
X162372212Y-71443420D01*
X162367172Y-71447724D01*
X162344689Y-71470207D01*
X162340238Y-71474444D01*
X162336548Y-71477317D01*
X162333313Y-71480720D01*
X162333312Y-71480721D01*
X162317788Y-71497052D01*
X162315560Y-71499336D01*
X160015646Y-73799250D01*
X160004559Y-73809103D01*
X159985287Y-73824296D01*
X159985285Y-73824298D01*
X159977890Y-73830128D01*
X159972535Y-73837875D01*
X159972534Y-73837877D01*
X159944545Y-73878375D01*
X159942250Y-73881587D01*
X159907366Y-73928816D01*
X159904973Y-73935632D01*
X159900869Y-73941569D01*
X159898029Y-73950549D01*
X159898028Y-73950551D01*
X159891368Y-73971611D01*
X159851756Y-74030529D01*
X159786579Y-74058679D01*
X159716668Y-74045277D01*
X159716462Y-74045828D01*
X159713240Y-74044620D01*
X159710725Y-74044138D01*
X159708056Y-74042677D01*
X159587606Y-73997522D01*
X159572351Y-73993895D01*
X159521486Y-73988369D01*
X159514672Y-73988000D01*
X159042115Y-73988000D01*
X159026876Y-73992475D01*
X159025671Y-73993865D01*
X159024000Y-74001548D01*
X159024000Y-76585884D01*
X159028475Y-76601123D01*
X159029865Y-76602328D01*
X159037548Y-76603999D01*
X159514669Y-76603999D01*
X159521490Y-76603629D01*
X159572352Y-76598105D01*
X159587604Y-76594479D01*
X159689270Y-76556366D01*
X159760078Y-76551183D01*
X159822447Y-76585104D01*
X159856576Y-76647359D01*
X159859500Y-76674348D01*
X159859500Y-77973205D01*
X159839498Y-78041326D01*
X159822595Y-78062300D01*
X155090779Y-82794116D01*
X155028467Y-82828142D01*
X154957652Y-82823077D01*
X154923940Y-82804176D01*
X154907145Y-82791007D01*
X154768722Y-82731106D01*
X154619289Y-82710637D01*
X154469856Y-82731106D01*
X154331434Y-82791007D01*
X154325067Y-82796000D01*
X154325066Y-82796000D01*
X154302311Y-82813842D01*
X154260271Y-82846806D01*
X153704808Y-83402269D01*
X153649009Y-83473432D01*
X153589108Y-83611854D01*
X153568639Y-83761287D01*
X153589108Y-83910720D01*
X153592520Y-83918604D01*
X153592520Y-83918605D01*
X153641686Y-84032220D01*
X153650383Y-84102682D01*
X153619605Y-84166660D01*
X153559124Y-84203843D01*
X153488141Y-84202423D01*
X153476012Y-84197899D01*
X153381305Y-84156916D01*
X153362393Y-84148732D01*
X153362392Y-84148732D01*
X153354508Y-84145320D01*
X153205075Y-84124851D01*
X153055642Y-84145320D01*
X153047758Y-84148732D01*
X153047757Y-84148732D01*
X153011489Y-84164427D01*
X152917220Y-84205221D01*
X152846057Y-84261020D01*
X152290594Y-84816483D01*
X152270211Y-84842479D01*
X152240546Y-84880312D01*
X152234795Y-84887646D01*
X152174894Y-85026068D01*
X152154425Y-85175501D01*
X152174894Y-85324934D01*
X152234795Y-85463357D01*
X152290594Y-85534519D01*
X152774069Y-86017994D01*
X152808095Y-86080306D01*
X152803030Y-86151121D01*
X152774071Y-86196181D01*
X150527472Y-88442780D01*
X150516577Y-88464163D01*
X150506253Y-88481009D01*
X150492151Y-88500419D01*
X150489087Y-88509850D01*
X150489085Y-88509853D01*
X150484736Y-88523237D01*
X150477172Y-88541498D01*
X150466281Y-88562874D01*
X150464730Y-88572668D01*
X150462528Y-88586570D01*
X150457914Y-88605790D01*
X150450500Y-88628607D01*
X150450500Y-89244989D01*
X150430498Y-89313110D01*
X150413595Y-89334084D01*
X150411421Y-89336258D01*
X150403850Y-89341850D01*
X150398258Y-89349421D01*
X150398255Y-89349424D01*
X150342351Y-89425112D01*
X150285790Y-89468023D01*
X150215008Y-89473543D01*
X150152479Y-89439919D01*
X150139649Y-89425112D01*
X150083745Y-89349424D01*
X150083742Y-89349421D01*
X150078150Y-89341850D01*
X150056500Y-89325859D01*
X149976757Y-89266959D01*
X149976754Y-89266958D01*
X149969184Y-89261366D01*
X149841369Y-89216481D01*
X149833723Y-89215758D01*
X149833722Y-89215758D01*
X149827752Y-89215194D01*
X149809834Y-89213500D01*
X149402166Y-89213500D01*
X149384248Y-89215194D01*
X149378278Y-89215758D01*
X149378277Y-89215758D01*
X149370631Y-89216481D01*
X149242816Y-89261366D01*
X149235246Y-89266958D01*
X149235243Y-89266959D01*
X149155500Y-89325859D01*
X149133850Y-89341850D01*
X149128258Y-89349421D01*
X149058959Y-89443243D01*
X149058958Y-89443246D01*
X149053366Y-89450816D01*
X149008481Y-89578631D01*
X149005500Y-89610166D01*
X149005500Y-91367834D01*
X149008481Y-91399369D01*
X149053366Y-91527184D01*
X149058957Y-91534754D01*
X149058961Y-91534761D01*
X149116242Y-91612312D01*
X149140625Y-91678990D01*
X149125088Y-91748266D01*
X149103986Y-91776266D01*
X147101472Y-93778780D01*
X147090577Y-93800163D01*
X147080253Y-93817009D01*
X147066151Y-93836419D01*
X147063087Y-93845850D01*
X147063085Y-93845853D01*
X147058736Y-93859237D01*
X147051172Y-93877498D01*
X147047007Y-93885673D01*
X147040281Y-93898874D01*
X147037724Y-93915017D01*
X147036528Y-93922570D01*
X147031914Y-93941790D01*
X147024500Y-93964607D01*
X147024500Y-97883562D01*
X147004498Y-97951683D01*
X146987595Y-97972657D01*
X144335657Y-100624595D01*
X144273345Y-100658621D01*
X144246562Y-100661500D01*
X144097228Y-100661500D01*
X144007453Y-100672364D01*
X143999925Y-100675344D01*
X143999923Y-100675345D01*
X143949023Y-100695498D01*
X143867217Y-100727887D01*
X143747078Y-100819078D01*
X143655887Y-100939217D01*
X143631684Y-101000347D01*
X143606285Y-101064499D01*
X143600364Y-101079453D01*
X143589500Y-101169228D01*
X143589500Y-101954772D01*
X143600364Y-102044547D01*
X143603344Y-102052075D01*
X143603345Y-102052077D01*
X143614681Y-102080708D01*
X143655887Y-102184783D01*
X143747078Y-102304922D01*
X143867217Y-102396113D01*
X143990310Y-102444849D01*
X144046282Y-102488522D01*
X144069759Y-102555525D01*
X144053283Y-102624584D01*
X144002088Y-102673773D01*
X143990313Y-102679150D01*
X143867217Y-102727887D01*
X143747078Y-102819078D01*
X143655887Y-102939217D01*
X143634793Y-102992494D01*
X143606705Y-103063438D01*
X143600364Y-103079453D01*
X143589500Y-103169228D01*
X143589500Y-103954772D01*
X139385161Y-103954772D01*
X149996286Y-85575761D01*
X155443638Y-76140669D01*
X157562001Y-76140669D01*
X157562371Y-76147490D01*
X157567895Y-76198352D01*
X157571521Y-76213604D01*
X157616676Y-76334054D01*
X157625214Y-76349649D01*
X157701715Y-76451724D01*
X157714276Y-76464285D01*
X157816351Y-76540786D01*
X157831946Y-76549324D01*
X157952394Y-76594478D01*
X157967649Y-76598105D01*
X158018514Y-76603631D01*
X158025328Y-76604000D01*
X158497885Y-76604000D01*
X158513124Y-76599525D01*
X158514329Y-76598135D01*
X158516000Y-76590452D01*
X158516000Y-75568115D01*
X158511525Y-75552876D01*
X158510135Y-75551671D01*
X158502452Y-75550000D01*
X157580116Y-75550000D01*
X157564877Y-75554475D01*
X157563672Y-75555865D01*
X157562001Y-75563548D01*
X157562001Y-76140669D01*
X155443638Y-76140669D01*
X156088413Y-75023885D01*
X157562000Y-75023885D01*
X157566475Y-75039124D01*
X157567865Y-75040329D01*
X157575548Y-75042000D01*
X158497885Y-75042000D01*
X158513124Y-75037525D01*
X158514329Y-75036135D01*
X158516000Y-75028452D01*
X158516000Y-74006116D01*
X158511525Y-73990877D01*
X158510135Y-73989672D01*
X158502452Y-73988001D01*
X158025331Y-73988001D01*
X158018510Y-73988371D01*
X157967648Y-73993895D01*
X157952396Y-73997521D01*
X157831946Y-74042676D01*
X157816351Y-74051214D01*
X157714276Y-74127715D01*
X157701715Y-74140276D01*
X157625214Y-74242351D01*
X157616676Y-74257946D01*
X157571522Y-74378394D01*
X157567895Y-74393649D01*
X157562369Y-74444514D01*
X157562000Y-74451328D01*
X157562000Y-75023885D01*
X156088413Y-75023885D01*
X161376086Y-65865365D01*
X167487658Y-65865365D01*
X167488061Y-65883137D01*
X167509181Y-66010028D01*
X167513665Y-66025044D01*
X167534317Y-66071869D01*
X167537400Y-66077945D01*
X167673680Y-66313989D01*
X167685175Y-66324949D01*
X167686983Y-66325298D01*
X167694470Y-66322905D01*
X168969551Y-65586735D01*
X168980511Y-65575240D01*
X168980860Y-65573432D01*
X168978467Y-65565945D01*
X168617298Y-64940382D01*
X168605803Y-64929422D01*
X168603996Y-64929074D01*
X168596508Y-64931467D01*
X167706990Y-65445032D01*
X167701279Y-65448755D01*
X167659984Y-65478977D01*
X167648590Y-65489743D01*
X167566857Y-65589071D01*
X167557619Y-65604264D01*
X167507471Y-65721550D01*
X167502872Y-65738712D01*
X167487658Y-65865365D01*
X161376086Y-65865365D01*
X162661203Y-63639477D01*
X166424875Y-63639477D01*
X166436867Y-63750778D01*
X166447115Y-63774516D01*
X166991761Y-64717870D01*
X167007561Y-64739001D01*
X167098069Y-64804880D01*
X167109306Y-64807880D01*
X167109307Y-64807881D01*
X167128363Y-64812969D01*
X167206225Y-64833759D01*
X167217791Y-64832513D01*
X167217793Y-64832513D01*
X167308110Y-64822782D01*
X167308113Y-64822781D01*
X167317526Y-64821767D01*
X167341264Y-64811519D01*
X167577827Y-64674939D01*
X169052560Y-64674939D01*
X169054953Y-64682427D01*
X169416123Y-65307989D01*
X169427618Y-65318949D01*
X169429426Y-65319298D01*
X169436913Y-65316905D01*
X170711995Y-64580736D01*
X170722955Y-64569241D01*
X170723303Y-64567434D01*
X170720910Y-64559946D01*
X170582346Y-64319948D01*
X170578622Y-64314236D01*
X170548400Y-64272941D01*
X170537634Y-64261547D01*
X170438306Y-64179814D01*
X170423113Y-64170576D01*
X170305827Y-64120428D01*
X170288665Y-64115829D01*
X170162012Y-64100615D01*
X170144240Y-64101018D01*
X170017349Y-64122138D01*
X170002333Y-64126622D01*
X169955508Y-64147274D01*
X169949432Y-64150357D01*
X169063868Y-64661637D01*
X169052908Y-64673132D01*
X169052560Y-64674939D01*
X167577827Y-64674939D01*
X169583656Y-63516873D01*
X169604787Y-63501073D01*
X169670666Y-63410565D01*
X169699545Y-63302409D01*
X169687553Y-63191108D01*
X169677305Y-63167370D01*
X169132659Y-62224016D01*
X169116859Y-62202885D01*
X169026351Y-62137006D01*
X169015114Y-62134006D01*
X169015113Y-62134005D01*
X168959305Y-62119104D01*
X168918195Y-62108127D01*
X168906629Y-62109373D01*
X168906627Y-62109373D01*
X168816310Y-62119104D01*
X168816307Y-62119105D01*
X168806894Y-62120119D01*
X168783156Y-62130367D01*
X166540764Y-63425013D01*
X166519633Y-63440813D01*
X166453754Y-63531321D01*
X166424875Y-63639477D01*
X162661203Y-63639477D01*
X169464517Y-51855789D01*
X171825996Y-51855789D01*
X171834913Y-52093295D01*
X171883719Y-52325904D01*
X171885677Y-52330863D01*
X171885678Y-52330865D01*
X171934925Y-52455564D01*
X171971020Y-52546963D01*
X172094319Y-52750153D01*
X172250090Y-52929664D01*
X172254216Y-52933047D01*
X172254220Y-52933051D01*
X172352614Y-53013728D01*
X172433880Y-53080362D01*
X172438516Y-53083001D01*
X172438519Y-53083003D01*
X172539561Y-53140519D01*
X172640433Y-53197939D01*
X172863844Y-53279034D01*
X172869092Y-53279983D01*
X173093641Y-53320588D01*
X173093648Y-53320589D01*
X173097725Y-53321326D01*
X173115991Y-53322187D01*
X173121131Y-53322430D01*
X173121138Y-53322430D01*
X173122619Y-53322500D01*
X173289680Y-53322500D01*
X173372026Y-53315513D01*
X173461512Y-53307920D01*
X173461516Y-53307919D01*
X173466823Y-53307469D01*
X173471978Y-53306131D01*
X173471984Y-53306130D01*
X173691703Y-53249102D01*
X173691702Y-53249102D01*
X173696874Y-53247760D01*
X173813327Y-53195302D01*
X173908715Y-53152333D01*
X173908718Y-53152332D01*
X173913576Y-53150143D01*
X174110732Y-53017409D01*
X174282705Y-52853355D01*
X174424579Y-52662670D01*
X174532295Y-52450807D01*
X174571079Y-52325904D01*
X174601193Y-52228919D01*
X174602775Y-52223824D01*
X174634004Y-51988211D01*
X174625087Y-51750705D01*
X174576281Y-51518096D01*
X174526954Y-51393193D01*
X174490941Y-51302002D01*
X174490940Y-51302000D01*
X174488980Y-51297037D01*
X174365681Y-51093847D01*
X174209910Y-50914336D01*
X174205784Y-50910953D01*
X174205780Y-50910949D01*
X174030248Y-50767023D01*
X174026120Y-50763638D01*
X174021484Y-50760999D01*
X174021481Y-50760997D01*
X173899685Y-50691667D01*
X173819567Y-50646061D01*
X173596156Y-50564966D01*
X173590908Y-50564017D01*
X173366359Y-50523412D01*
X173366352Y-50523411D01*
X173362275Y-50522674D01*
X173344009Y-50521813D01*
X173338869Y-50521570D01*
X173338862Y-50521570D01*
X173337381Y-50521500D01*
X173170320Y-50521500D01*
X173087974Y-50528487D01*
X172998488Y-50536080D01*
X172998484Y-50536081D01*
X172993177Y-50536531D01*
X172988022Y-50537869D01*
X172988016Y-50537870D01*
X172876612Y-50566785D01*
X172763126Y-50596240D01*
X172665766Y-50640097D01*
X172551285Y-50691667D01*
X172551282Y-50691668D01*
X172546424Y-50693857D01*
X172349268Y-50826591D01*
X172177295Y-50990645D01*
X172035421Y-51181330D01*
X171927705Y-51393193D01*
X171926124Y-51398284D01*
X171926123Y-51398287D01*
X171887301Y-51523315D01*
X171857225Y-51620176D01*
X171825996Y-51855789D01*
X169464517Y-51855789D01*
X173022183Y-45693729D01*
X173073565Y-45644736D01*
X173143279Y-45631300D01*
X173209190Y-45657686D01*
G37*
%TD.AperFunction*%
%TA.AperFunction,Conductor*%
G36*
X160392532Y-78870735D02*
G01*
X160449368Y-78913282D01*
X160474179Y-78979802D01*
X160474500Y-78988791D01*
X160474500Y-84843562D01*
X160454498Y-84911683D01*
X160437595Y-84932657D01*
X160260657Y-85109595D01*
X160198345Y-85143621D01*
X160171562Y-85146500D01*
X155024951Y-85146500D01*
X154956830Y-85126498D01*
X154910337Y-85072842D01*
X154900233Y-85002568D01*
X154929727Y-84937988D01*
X154974910Y-84904863D01*
X155041139Y-84876203D01*
X155048566Y-84872989D01*
X155119729Y-84817190D01*
X155675192Y-84261727D01*
X155715983Y-84209705D01*
X155725998Y-84196932D01*
X155725998Y-84196931D01*
X155730991Y-84190564D01*
X155752583Y-84140669D01*
X157562001Y-84140669D01*
X157562371Y-84147490D01*
X157567895Y-84198352D01*
X157571521Y-84213604D01*
X157616676Y-84334054D01*
X157625214Y-84349649D01*
X157701715Y-84451724D01*
X157714276Y-84464285D01*
X157816351Y-84540786D01*
X157831946Y-84549324D01*
X157952394Y-84594478D01*
X157967649Y-84598105D01*
X158018514Y-84603631D01*
X158025328Y-84604000D01*
X158497885Y-84604000D01*
X158513124Y-84599525D01*
X158514329Y-84598135D01*
X158516000Y-84590452D01*
X158516000Y-84585884D01*
X159024000Y-84585884D01*
X159028475Y-84601123D01*
X159029865Y-84602328D01*
X159037548Y-84603999D01*
X159514669Y-84603999D01*
X159521490Y-84603629D01*
X159572352Y-84598105D01*
X159587604Y-84594479D01*
X159708054Y-84549324D01*
X159723649Y-84540786D01*
X159825724Y-84464285D01*
X159838285Y-84451724D01*
X159914786Y-84349649D01*
X159923324Y-84334054D01*
X159968478Y-84213606D01*
X159972105Y-84198351D01*
X159977631Y-84147486D01*
X159978000Y-84140672D01*
X159978000Y-83568115D01*
X159973525Y-83552876D01*
X159972135Y-83551671D01*
X159964452Y-83550000D01*
X159042115Y-83550000D01*
X159026876Y-83554475D01*
X159025671Y-83555865D01*
X159024000Y-83563548D01*
X159024000Y-84585884D01*
X158516000Y-84585884D01*
X158516000Y-83568115D01*
X158511525Y-83552876D01*
X158510135Y-83551671D01*
X158502452Y-83550000D01*
X157580116Y-83550000D01*
X157564877Y-83554475D01*
X157563672Y-83555865D01*
X157562001Y-83563548D01*
X157562001Y-84140669D01*
X155752583Y-84140669D01*
X155790892Y-84052142D01*
X155811361Y-83902709D01*
X155790892Y-83753276D01*
X155730991Y-83614853D01*
X155717823Y-83598059D01*
X155691531Y-83532114D01*
X155705065Y-83462419D01*
X155727882Y-83431219D01*
X156135216Y-83023885D01*
X157562000Y-83023885D01*
X157566475Y-83039124D01*
X157567865Y-83040329D01*
X157575548Y-83042000D01*
X158497885Y-83042000D01*
X158513124Y-83037525D01*
X158514329Y-83036135D01*
X158516000Y-83028452D01*
X158516000Y-83023885D01*
X159024000Y-83023885D01*
X159028475Y-83039124D01*
X159029865Y-83040329D01*
X159037548Y-83042000D01*
X159959884Y-83042000D01*
X159975123Y-83037525D01*
X159976328Y-83036135D01*
X159977999Y-83028452D01*
X159977999Y-82451331D01*
X159977629Y-82444510D01*
X159972105Y-82393648D01*
X159968479Y-82378396D01*
X159923324Y-82257946D01*
X159914786Y-82242351D01*
X159838285Y-82140276D01*
X159825724Y-82127715D01*
X159723649Y-82051214D01*
X159708054Y-82042676D01*
X159587606Y-81997522D01*
X159572351Y-81993895D01*
X159521486Y-81988369D01*
X159514672Y-81988000D01*
X159042115Y-81988000D01*
X159026876Y-81992475D01*
X159025671Y-81993865D01*
X159024000Y-82001548D01*
X159024000Y-83023885D01*
X158516000Y-83023885D01*
X158516000Y-82006116D01*
X158511525Y-81990877D01*
X158510135Y-81989672D01*
X158502452Y-81988001D01*
X158025331Y-81988001D01*
X158018510Y-81988371D01*
X157967648Y-81993895D01*
X157952396Y-81997521D01*
X157831946Y-82042676D01*
X157816351Y-82051214D01*
X157714276Y-82127715D01*
X157701715Y-82140276D01*
X157625214Y-82242351D01*
X157616676Y-82257946D01*
X157571522Y-82378394D01*
X157567895Y-82393649D01*
X157562369Y-82444514D01*
X157562000Y-82451328D01*
X157562000Y-83023885D01*
X156135216Y-83023885D01*
X160259405Y-78899696D01*
X160321717Y-78865670D01*
X160392532Y-78870735D01*
G37*
%TD.AperFunction*%
M02*
