%TF.GenerationSoftware,KiCad,Pcbnew,(6.0.5)*%
%TF.CreationDate,2022-11-29T16:25:59+01:00*%
%TF.ProjectId,sublink,7375626c-696e-46b2-9e6b-696361645f70,rev?*%
%TF.SameCoordinates,Original*%
%TF.FileFunction,Paste,Top*%
%TF.FilePolarity,Positive*%
%FSLAX46Y46*%
G04 Gerber Fmt 4.6, Leading zero omitted, Abs format (unit mm)*
G04 Created by KiCad (PCBNEW (6.0.5)) date 2022-11-29 16:25:59*
%MOMM*%
%LPD*%
G01*
G04 APERTURE LIST*
G04 Aperture macros list*
%AMRoundRect*
0 Rectangle with rounded corners*
0 $1 Rounding radius*
0 $2 $3 $4 $5 $6 $7 $8 $9 X,Y pos of 4 corners*
0 Add a 4 corners polygon primitive as box body*
4,1,4,$2,$3,$4,$5,$6,$7,$8,$9,$2,$3,0*
0 Add four circle primitives for the rounded corners*
1,1,$1+$1,$2,$3*
1,1,$1+$1,$4,$5*
1,1,$1+$1,$6,$7*
1,1,$1+$1,$8,$9*
0 Add four rect primitives between the rounded corners*
20,1,$1+$1,$2,$3,$4,$5,0*
20,1,$1+$1,$4,$5,$6,$7,0*
20,1,$1+$1,$6,$7,$8,$9,0*
20,1,$1+$1,$8,$9,$2,$3,0*%
G04 Aperture macros list end*
%ADD10RoundRect,0.250000X0.450000X-0.325000X0.450000X0.325000X-0.450000X0.325000X-0.450000X-0.325000X0*%
%ADD11RoundRect,0.250000X0.182206X-0.524334X0.555031X0.008115X-0.182206X0.524334X-0.555031X-0.008115X0*%
%ADD12RoundRect,0.250000X0.506458X0.227211X-0.056458X0.552211X-0.506458X-0.227211X0.056458X-0.552211X0*%
%ADD13RoundRect,0.250000X-0.040290X0.553626X-0.538219X0.135814X0.040290X-0.553626X0.538219X-0.135814X0*%
%ADD14RoundRect,0.250000X-0.524334X-0.182206X0.008115X-0.555031X0.524334X0.182206X-0.008115X0.555031X0*%
%ADD15RoundRect,0.250000X0.518783X-0.197457X0.350550X0.430394X-0.518783X0.197457X-0.350550X-0.430394X0*%
%ADD16RoundRect,0.250000X-0.450000X0.325000X-0.450000X-0.325000X0.450000X-0.325000X0.450000X0.325000X0*%
%ADD17RoundRect,0.250000X0.241921X0.499599X-0.398204X0.386728X-0.241921X-0.499599X0.398204X-0.386728X0*%
%ADD18RoundRect,0.250000X0.325000X0.450000X-0.325000X0.450000X-0.325000X-0.450000X0.325000X-0.450000X0*%
%ADD19RoundRect,0.250000X0.311705X-0.459309X0.534018X0.151491X-0.311705X0.459309X-0.534018X-0.151491X0*%
%ADD20RoundRect,0.250000X0.104372X0.545189X-0.484728X0.270488X-0.104372X-0.545189X0.484728X-0.270488X0*%
%ADD21RoundRect,0.250000X-0.459309X-0.311705X0.151491X-0.534018X0.459309X0.311705X-0.151491X0.534018X0*%
%ADD22RoundRect,0.250000X-0.545189X0.104372X-0.270488X-0.484728X0.545189X-0.104372X0.270488X0.484728X0*%
%ADD23RoundRect,0.250000X0.419962X-0.362983X0.476613X0.284543X-0.419962X0.362983X-0.476613X-0.284543X0*%
%ADD24RoundRect,0.250000X-0.104372X-0.545189X0.484728X-0.270488X0.104372X0.545189X-0.484728X0.270488X0*%
%ADD25RoundRect,0.250000X-0.538219X-0.135814X-0.040290X-0.553626X0.538219X0.135814X0.040290X0.553626X0*%
%ADD26RoundRect,0.250000X0.040290X-0.553626X0.538219X-0.135814X-0.040290X0.553626X-0.538219X0.135814X0*%
%ADD27RoundRect,0.250000X-0.553626X-0.040290X-0.135814X-0.538219X0.553626X0.040290X0.135814X0.538219X0*%
%ADD28RoundRect,0.250000X0.459309X0.311705X-0.151491X0.534018X-0.459309X-0.311705X0.151491X-0.534018X0*%
%ADD29RoundRect,0.250000X-0.499599X0.241921X-0.386728X-0.398204X0.499599X-0.241921X0.386728X0.398204X0*%
G04 APERTURE END LIST*
D10*
X174214844Y-71308909D03*
X174214844Y-69258909D03*
D11*
X186852157Y-114435701D03*
X188027989Y-112756439D03*
D12*
X191777401Y-84695990D03*
X190002049Y-83670990D03*
D13*
X161109175Y-86399553D03*
X159538783Y-87717267D03*
D14*
X162496279Y-114012794D03*
X164175541Y-115188626D03*
D15*
X191381529Y-95794236D03*
X190850949Y-93814088D03*
D16*
X151659523Y-91409023D03*
X151659523Y-93459023D03*
D17*
X172869396Y-81052817D03*
X170850540Y-81408795D03*
D18*
X179360233Y-80664294D03*
X177310233Y-80664294D03*
D19*
X189880157Y-108593332D03*
X190581299Y-106666962D03*
D20*
X166652355Y-82940615D03*
X164794425Y-83806983D03*
D21*
X168256460Y-117248748D03*
X170182830Y-117949890D03*
D22*
X154225987Y-103991135D03*
X155092355Y-105849065D03*
D23*
X191385462Y-102218340D03*
X191564132Y-100176140D03*
D24*
X177138072Y-122779465D03*
X178996002Y-121913097D03*
D25*
X197622954Y-114386799D03*
X199193346Y-115704513D03*
D26*
X182482014Y-119337959D03*
X184052406Y-118020245D03*
D27*
X157693641Y-109633934D03*
X159011355Y-111204326D03*
D13*
X148587965Y-113092423D03*
X147017573Y-114410137D03*
D28*
X185804798Y-81951360D03*
X183878428Y-81250218D03*
D29*
X152247286Y-97882429D03*
X152603264Y-99901285D03*
M02*
