%TF.GenerationSoftware,KiCad,Pcbnew,(6.0.5)*%
%TF.CreationDate,2022-11-29T16:26:00+01:00*%
%TF.ProjectId,sublink,7375626c-696e-46b2-9e6b-696361645f70,rev?*%
%TF.SameCoordinates,Original*%
%TF.FileFunction,Soldermask,Bot*%
%TF.FilePolarity,Negative*%
%FSLAX46Y46*%
G04 Gerber Fmt 4.6, Leading zero omitted, Abs format (unit mm)*
G04 Created by KiCad (PCBNEW (6.0.5)) date 2022-11-29 16:26:00*
%MOMM*%
%LPD*%
G01*
G04 APERTURE LIST*
G04 Aperture macros list*
%AMRoundRect*
0 Rectangle with rounded corners*
0 $1 Rounding radius*
0 $2 $3 $4 $5 $6 $7 $8 $9 X,Y pos of 4 corners*
0 Add a 4 corners polygon primitive as box body*
4,1,4,$2,$3,$4,$5,$6,$7,$8,$9,$2,$3,0*
0 Add four circle primitives for the rounded corners*
1,1,$1+$1,$2,$3*
1,1,$1+$1,$4,$5*
1,1,$1+$1,$6,$7*
1,1,$1+$1,$8,$9*
0 Add four rect primitives between the rounded corners*
20,1,$1+$1,$2,$3,$4,$5,0*
20,1,$1+$1,$4,$5,$6,$7,0*
20,1,$1+$1,$6,$7,$8,$9,0*
20,1,$1+$1,$8,$9,$2,$3,0*%
%AMRotRect*
0 Rectangle, with rotation*
0 The origin of the aperture is its center*
0 $1 length*
0 $2 width*
0 $3 Rotation angle, in degrees counterclockwise*
0 Add horizontal line*
21,1,$1,$2,0,0,$3*%
G04 Aperture macros list end*
%ADD10C,2.200000*%
%ADD11RoundRect,0.250000X-0.350000X-0.450000X0.350000X-0.450000X0.350000X0.450000X-0.350000X0.450000X0*%
%ADD12R,1.400000X1.600000*%
%ADD13R,1.000000X1.000000*%
%ADD14RoundRect,1.000000X1.000000X-1.000000X1.000000X1.000000X-1.000000X1.000000X-1.000000X-1.000000X0*%
%ADD15RotRect,2.500000X1.000000X30.000000*%
%ADD16RoundRect,0.250000X0.450000X-0.350000X0.450000X0.350000X-0.450000X0.350000X-0.450000X-0.350000X0*%
%ADD17RoundRect,0.250000X0.475000X-0.337500X0.475000X0.337500X-0.475000X0.337500X-0.475000X-0.337500X0*%
%ADD18RoundRect,0.250000X0.400000X0.625000X-0.400000X0.625000X-0.400000X-0.625000X0.400000X-0.625000X0*%
%ADD19RoundRect,0.250000X-0.450000X0.350000X-0.450000X-0.350000X0.450000X-0.350000X0.450000X0.350000X0*%
%ADD20R,1.200000X2.500000*%
%ADD21RoundRect,0.250000X0.070711X-0.565685X0.565685X-0.070711X-0.070711X0.565685X-0.565685X0.070711X0*%
%ADD22RoundRect,0.150000X-0.587500X-0.150000X0.587500X-0.150000X0.587500X0.150000X-0.587500X0.150000X0*%
%ADD23RoundRect,0.150000X0.150000X-0.825000X0.150000X0.825000X-0.150000X0.825000X-0.150000X-0.825000X0*%
G04 APERTURE END LIST*
D10*
X214420000Y-123462000D03*
X131830000Y-123432000D03*
X173230000Y-51922000D03*
D11*
X188820000Y-103662000D03*
X190820000Y-103662000D03*
D12*
X175478000Y-83296000D03*
X175478000Y-75296000D03*
X170978000Y-83296000D03*
X170978000Y-75296000D03*
X158770000Y-83296000D03*
X158770000Y-75296000D03*
X163270000Y-83296000D03*
X163270000Y-75296000D03*
D13*
X202100000Y-100822000D03*
X202100000Y-103322000D03*
D14*
X205480000Y-123412000D03*
X205480000Y-107412000D03*
X184480000Y-123412000D03*
X184480000Y-107412000D03*
D15*
X171872210Y-70070057D03*
X170602210Y-67870352D03*
X169332210Y-65670648D03*
X168062210Y-63470943D03*
D16*
X157988000Y-103616000D03*
X157988000Y-101616000D03*
D17*
X160528000Y-95779500D03*
X160528000Y-93704500D03*
D18*
X181740000Y-103742000D03*
X178640000Y-103742000D03*
D19*
X144590000Y-101562000D03*
X144590000Y-103562000D03*
D16*
X160528000Y-103632000D03*
X160528000Y-101632000D03*
D13*
X199200000Y-100772000D03*
X199200000Y-103272000D03*
D20*
X178094000Y-89706000D03*
X180594000Y-89706000D03*
X183094000Y-89706000D03*
X178094000Y-95206000D03*
X180594000Y-95206000D03*
X183094000Y-95206000D03*
D21*
X153275786Y-85246212D03*
X154690000Y-83831998D03*
D16*
X152908000Y-103632000D03*
X152908000Y-101632000D03*
D22*
X194462500Y-102722000D03*
X194462500Y-100822000D03*
X196337500Y-101772000D03*
D19*
X147828000Y-101600000D03*
X147828000Y-103600000D03*
D23*
X157226000Y-95439000D03*
X155956000Y-95439000D03*
X154686000Y-95439000D03*
X153416000Y-95439000D03*
X152146000Y-95439000D03*
X150876000Y-95439000D03*
X149606000Y-95439000D03*
X149606000Y-90489000D03*
X150876000Y-90489000D03*
X152146000Y-90489000D03*
X153416000Y-90489000D03*
X154686000Y-90489000D03*
X155956000Y-90489000D03*
X157226000Y-90489000D03*
D16*
X150368000Y-103632000D03*
X150368000Y-101632000D03*
D12*
X187686000Y-83296000D03*
X187686000Y-75296000D03*
X183186000Y-75296000D03*
X183186000Y-83296000D03*
D16*
X155448000Y-103632000D03*
X155448000Y-101632000D03*
M02*
