%FSLAX45Y45*%
G04 Gerber Fmt 4.5, Leading zero omitted, Abs format (unit mm)*
G04 Created by KiCad (PCBNEW (6.0.5)) date 2022-11-29 16:27:28*
%MOMM*%
%LPD*%
G01*
G04 APERTURE LIST*
%TA.AperFunction,Profile*%
%ADD10C,0.246758*%
%TD*%
%ADD11C,0.200000*%
%ADD12C,0.220000*%
G04 APERTURE END LIST*
D10*
X12572000Y-12702252D02*
X17313130Y-4490373D01*
X12572000Y-12702252D02*
X12572000Y-12702252D01*
X22054260Y-12702252D02*
X12572000Y-12702252D01*
X17313130Y-4490373D02*
X22054260Y-12702252D01*
X17313130Y-4490373D02*
X17313130Y-4490373D01*
D11*
D12*
X13073000Y-12233200D02*
X13293000Y-12453200D01*
X13293000Y-12233200D02*
X13073000Y-12453200D01*
X17213000Y-5082200D02*
X17433000Y-5302200D01*
X17433000Y-5082200D02*
X17213000Y-5302200D01*
X21332000Y-12236200D02*
X21552000Y-12456200D01*
X21552000Y-12236200D02*
X21332000Y-12456200D01*
D11*
X12817281Y-13025066D02*
X12817281Y-12825066D01*
X12864900Y-12825066D01*
X12893472Y-12834590D01*
X12912519Y-12853638D01*
X12922043Y-12872686D01*
X12931567Y-12910781D01*
X12931567Y-12939352D01*
X12922043Y-12977447D01*
X12912519Y-12996495D01*
X12893472Y-13015543D01*
X12864900Y-13025066D01*
X12817281Y-13025066D01*
X13017281Y-13025066D02*
X13017281Y-12891733D01*
X13017281Y-12929828D02*
X13026805Y-12910781D01*
X13036329Y-12901257D01*
X13055377Y-12891733D01*
X13074424Y-12891733D01*
X13141091Y-13025066D02*
X13141091Y-12891733D01*
X13141091Y-12825066D02*
X13131567Y-12834590D01*
X13141091Y-12844114D01*
X13150615Y-12834590D01*
X13141091Y-12825066D01*
X13141091Y-12844114D01*
X13264900Y-13025066D02*
X13245853Y-13015543D01*
X13236329Y-12996495D01*
X13236329Y-12825066D01*
X13369662Y-13025066D02*
X13350615Y-13015543D01*
X13341091Y-12996495D01*
X13341091Y-12825066D01*
X13598234Y-13025066D02*
X13598234Y-12825066D01*
X13664900Y-12967924D01*
X13731567Y-12825066D01*
X13731567Y-13025066D01*
X13912519Y-13025066D02*
X13912519Y-12920305D01*
X13902996Y-12901257D01*
X13883948Y-12891733D01*
X13845853Y-12891733D01*
X13826805Y-12901257D01*
X13912519Y-13015543D02*
X13893472Y-13025066D01*
X13845853Y-13025066D01*
X13826805Y-13015543D01*
X13817281Y-12996495D01*
X13817281Y-12977447D01*
X13826805Y-12958400D01*
X13845853Y-12948876D01*
X13893472Y-12948876D01*
X13912519Y-12939352D01*
X14007758Y-12891733D02*
X14007758Y-13091733D01*
X14007758Y-12901257D02*
X14026805Y-12891733D01*
X14064900Y-12891733D01*
X14083948Y-12901257D01*
X14093472Y-12910781D01*
X14102996Y-12929828D01*
X14102996Y-12986971D01*
X14093472Y-13006019D01*
X14083948Y-13015543D01*
X14064900Y-13025066D01*
X14026805Y-13025066D01*
X14007758Y-13015543D01*
X14188710Y-13006019D02*
X14198234Y-13015543D01*
X14188710Y-13025066D01*
X14179186Y-13015543D01*
X14188710Y-13006019D01*
X14188710Y-13025066D01*
X14188710Y-12901257D02*
X14198234Y-12910781D01*
X14188710Y-12920305D01*
X14179186Y-12910781D01*
X14188710Y-12901257D01*
X14188710Y-12920305D01*
X12359662Y-13254590D02*
X12559662Y-13454590D01*
X12559662Y-13254590D02*
X12359662Y-13454590D01*
X12807758Y-13264114D02*
X12817281Y-13254590D01*
X12836329Y-13245066D01*
X12883948Y-13245066D01*
X12902996Y-13254590D01*
X12912519Y-13264114D01*
X12922043Y-13283162D01*
X12922043Y-13302209D01*
X12912519Y-13330781D01*
X12798234Y-13445066D01*
X12922043Y-13445066D01*
X13007758Y-13426019D02*
X13017281Y-13435543D01*
X13007758Y-13445066D01*
X12998234Y-13435543D01*
X13007758Y-13426019D01*
X13007758Y-13445066D01*
X13093472Y-13264114D02*
X13102996Y-13254590D01*
X13122043Y-13245066D01*
X13169662Y-13245066D01*
X13188710Y-13254590D01*
X13198234Y-13264114D01*
X13207758Y-13283162D01*
X13207758Y-13302209D01*
X13198234Y-13330781D01*
X13083948Y-13445066D01*
X13207758Y-13445066D01*
X13331567Y-13245066D02*
X13350615Y-13245066D01*
X13369662Y-13254590D01*
X13379186Y-13264114D01*
X13388710Y-13283162D01*
X13398234Y-13321257D01*
X13398234Y-13368876D01*
X13388710Y-13406971D01*
X13379186Y-13426019D01*
X13369662Y-13435543D01*
X13350615Y-13445066D01*
X13331567Y-13445066D01*
X13312519Y-13435543D01*
X13302996Y-13426019D01*
X13293472Y-13406971D01*
X13283948Y-13368876D01*
X13283948Y-13321257D01*
X13293472Y-13283162D01*
X13302996Y-13264114D01*
X13312519Y-13254590D01*
X13331567Y-13245066D01*
X13522043Y-13245066D02*
X13541091Y-13245066D01*
X13560138Y-13254590D01*
X13569662Y-13264114D01*
X13579186Y-13283162D01*
X13588710Y-13321257D01*
X13588710Y-13368876D01*
X13579186Y-13406971D01*
X13569662Y-13426019D01*
X13560138Y-13435543D01*
X13541091Y-13445066D01*
X13522043Y-13445066D01*
X13502996Y-13435543D01*
X13493472Y-13426019D01*
X13483948Y-13406971D01*
X13474424Y-13368876D01*
X13474424Y-13321257D01*
X13483948Y-13283162D01*
X13493472Y-13264114D01*
X13502996Y-13254590D01*
X13522043Y-13245066D01*
X13674424Y-13445066D02*
X13674424Y-13311733D01*
X13674424Y-13330781D02*
X13683948Y-13321257D01*
X13702996Y-13311733D01*
X13731567Y-13311733D01*
X13750615Y-13321257D01*
X13760138Y-13340305D01*
X13760138Y-13445066D01*
X13760138Y-13340305D02*
X13769662Y-13321257D01*
X13788710Y-13311733D01*
X13817281Y-13311733D01*
X13836329Y-13321257D01*
X13845853Y-13340305D01*
X13845853Y-13445066D01*
X13941091Y-13445066D02*
X13941091Y-13311733D01*
X13941091Y-13330781D02*
X13950615Y-13321257D01*
X13969662Y-13311733D01*
X13998234Y-13311733D01*
X14017281Y-13321257D01*
X14026805Y-13340305D01*
X14026805Y-13445066D01*
X14026805Y-13340305D02*
X14036329Y-13321257D01*
X14055377Y-13311733D01*
X14083948Y-13311733D01*
X14102996Y-13321257D01*
X14112519Y-13340305D01*
X14112519Y-13445066D01*
X14502996Y-13235543D02*
X14331567Y-13492686D01*
X14760138Y-13245066D02*
X14779186Y-13245066D01*
X14798234Y-13254590D01*
X14807758Y-13264114D01*
X14817281Y-13283162D01*
X14826805Y-13321257D01*
X14826805Y-13368876D01*
X14817281Y-13406971D01*
X14807758Y-13426019D01*
X14798234Y-13435543D01*
X14779186Y-13445066D01*
X14760138Y-13445066D01*
X14741091Y-13435543D01*
X14731567Y-13426019D01*
X14722043Y-13406971D01*
X14712519Y-13368876D01*
X14712519Y-13321257D01*
X14722043Y-13283162D01*
X14731567Y-13264114D01*
X14741091Y-13254590D01*
X14760138Y-13245066D01*
X14912519Y-13426019D02*
X14922043Y-13435543D01*
X14912519Y-13445066D01*
X14902996Y-13435543D01*
X14912519Y-13426019D01*
X14912519Y-13445066D01*
X15045853Y-13245066D02*
X15064900Y-13245066D01*
X15083948Y-13254590D01*
X15093472Y-13264114D01*
X15102996Y-13283162D01*
X15112519Y-13321257D01*
X15112519Y-13368876D01*
X15102996Y-13406971D01*
X15093472Y-13426019D01*
X15083948Y-13435543D01*
X15064900Y-13445066D01*
X15045853Y-13445066D01*
X15026805Y-13435543D01*
X15017281Y-13426019D01*
X15007758Y-13406971D01*
X14998234Y-13368876D01*
X14998234Y-13321257D01*
X15007758Y-13283162D01*
X15017281Y-13264114D01*
X15026805Y-13254590D01*
X15045853Y-13245066D01*
X15226805Y-13330781D02*
X15207758Y-13321257D01*
X15198234Y-13311733D01*
X15188710Y-13292686D01*
X15188710Y-13283162D01*
X15198234Y-13264114D01*
X15207758Y-13254590D01*
X15226805Y-13245066D01*
X15264900Y-13245066D01*
X15283948Y-13254590D01*
X15293472Y-13264114D01*
X15302996Y-13283162D01*
X15302996Y-13292686D01*
X15293472Y-13311733D01*
X15283948Y-13321257D01*
X15264900Y-13330781D01*
X15226805Y-13330781D01*
X15207758Y-13340305D01*
X15198234Y-13349828D01*
X15188710Y-13368876D01*
X15188710Y-13406971D01*
X15198234Y-13426019D01*
X15207758Y-13435543D01*
X15226805Y-13445066D01*
X15264900Y-13445066D01*
X15283948Y-13435543D01*
X15293472Y-13426019D01*
X15302996Y-13406971D01*
X15302996Y-13368876D01*
X15293472Y-13349828D01*
X15283948Y-13340305D01*
X15264900Y-13330781D01*
X15474424Y-13245066D02*
X15436329Y-13245066D01*
X15417281Y-13254590D01*
X15407758Y-13264114D01*
X15388710Y-13292686D01*
X15379186Y-13330781D01*
X15379186Y-13406971D01*
X15388710Y-13426019D01*
X15398234Y-13435543D01*
X15417281Y-13445066D01*
X15455377Y-13445066D01*
X15474424Y-13435543D01*
X15483948Y-13426019D01*
X15493472Y-13406971D01*
X15493472Y-13359352D01*
X15483948Y-13340305D01*
X15474424Y-13330781D01*
X15455377Y-13321257D01*
X15417281Y-13321257D01*
X15398234Y-13330781D01*
X15388710Y-13340305D01*
X15379186Y-13359352D01*
X15664900Y-13245066D02*
X15626805Y-13245066D01*
X15607758Y-13254590D01*
X15598234Y-13264114D01*
X15579186Y-13292686D01*
X15569662Y-13330781D01*
X15569662Y-13406971D01*
X15579186Y-13426019D01*
X15588710Y-13435543D01*
X15607758Y-13445066D01*
X15645853Y-13445066D01*
X15664900Y-13435543D01*
X15674424Y-13426019D01*
X15683948Y-13406971D01*
X15683948Y-13359352D01*
X15674424Y-13340305D01*
X15664900Y-13330781D01*
X15645853Y-13321257D01*
X15607758Y-13321257D01*
X15588710Y-13330781D01*
X15579186Y-13340305D01*
X15569662Y-13359352D01*
X15760138Y-13245066D02*
X15760138Y-13283162D01*
X15836329Y-13245066D02*
X15836329Y-13283162D01*
X16131567Y-13521257D02*
X16122043Y-13511733D01*
X16102996Y-13483162D01*
X16093472Y-13464114D01*
X16083948Y-13435543D01*
X16074424Y-13387924D01*
X16074424Y-13349828D01*
X16083948Y-13302209D01*
X16093472Y-13273638D01*
X16102996Y-13254590D01*
X16122043Y-13226019D01*
X16131567Y-13216495D01*
X16188710Y-13245066D02*
X16312519Y-13245066D01*
X16245853Y-13321257D01*
X16274424Y-13321257D01*
X16293472Y-13330781D01*
X16302996Y-13340305D01*
X16312519Y-13359352D01*
X16312519Y-13406971D01*
X16302996Y-13426019D01*
X16293472Y-13435543D01*
X16274424Y-13445066D01*
X16217281Y-13445066D01*
X16198234Y-13435543D01*
X16188710Y-13426019D01*
X16550615Y-13445066D02*
X16550615Y-13245066D01*
X16636329Y-13445066D02*
X16636329Y-13340305D01*
X16626805Y-13321257D01*
X16607758Y-13311733D01*
X16579186Y-13311733D01*
X16560138Y-13321257D01*
X16550615Y-13330781D01*
X16760138Y-13445066D02*
X16741091Y-13435543D01*
X16731567Y-13426019D01*
X16722043Y-13406971D01*
X16722043Y-13349828D01*
X16731567Y-13330781D01*
X16741091Y-13321257D01*
X16760138Y-13311733D01*
X16788710Y-13311733D01*
X16807758Y-13321257D01*
X16817281Y-13330781D01*
X16826805Y-13349828D01*
X16826805Y-13406971D01*
X16817281Y-13426019D01*
X16807758Y-13435543D01*
X16788710Y-13445066D01*
X16760138Y-13445066D01*
X16941091Y-13445066D02*
X16922043Y-13435543D01*
X16912520Y-13416495D01*
X16912520Y-13245066D01*
X17093472Y-13435543D02*
X17074424Y-13445066D01*
X17036329Y-13445066D01*
X17017281Y-13435543D01*
X17007758Y-13416495D01*
X17007758Y-13340305D01*
X17017281Y-13321257D01*
X17036329Y-13311733D01*
X17074424Y-13311733D01*
X17093472Y-13321257D01*
X17102996Y-13340305D01*
X17102996Y-13359352D01*
X17007758Y-13378400D01*
X17179186Y-13435543D02*
X17198234Y-13445066D01*
X17236329Y-13445066D01*
X17255377Y-13435543D01*
X17264900Y-13416495D01*
X17264900Y-13406971D01*
X17255377Y-13387924D01*
X17236329Y-13378400D01*
X17207758Y-13378400D01*
X17188710Y-13368876D01*
X17179186Y-13349828D01*
X17179186Y-13340305D01*
X17188710Y-13321257D01*
X17207758Y-13311733D01*
X17236329Y-13311733D01*
X17255377Y-13321257D01*
X17331567Y-13521257D02*
X17341091Y-13511733D01*
X17360139Y-13483162D01*
X17369662Y-13464114D01*
X17379186Y-13435543D01*
X17388710Y-13387924D01*
X17388710Y-13349828D01*
X17379186Y-13302209D01*
X17369662Y-13273638D01*
X17360139Y-13254590D01*
X17341091Y-13226019D01*
X17331567Y-13216495D01*
X17693472Y-13521257D02*
X17683948Y-13511733D01*
X17664900Y-13483162D01*
X17655377Y-13464114D01*
X17645853Y-13435543D01*
X17636329Y-13387924D01*
X17636329Y-13349828D01*
X17645853Y-13302209D01*
X17655377Y-13273638D01*
X17664900Y-13254590D01*
X17683948Y-13226019D01*
X17693472Y-13216495D01*
X17769662Y-13311733D02*
X17769662Y-13445066D01*
X17769662Y-13330781D02*
X17779186Y-13321257D01*
X17798234Y-13311733D01*
X17826805Y-13311733D01*
X17845853Y-13321257D01*
X17855377Y-13340305D01*
X17855377Y-13445066D01*
X17979186Y-13445066D02*
X17960139Y-13435543D01*
X17950615Y-13426019D01*
X17941091Y-13406971D01*
X17941091Y-13349828D01*
X17950615Y-13330781D01*
X17960139Y-13321257D01*
X17979186Y-13311733D01*
X18007758Y-13311733D01*
X18026805Y-13321257D01*
X18036329Y-13330781D01*
X18045853Y-13349828D01*
X18045853Y-13406971D01*
X18036329Y-13426019D01*
X18026805Y-13435543D01*
X18007758Y-13445066D01*
X17979186Y-13445066D01*
X18102996Y-13311733D02*
X18179186Y-13311733D01*
X18131567Y-13245066D02*
X18131567Y-13416495D01*
X18141091Y-13435543D01*
X18160139Y-13445066D01*
X18179186Y-13445066D01*
X18398234Y-13311733D02*
X18398234Y-13511733D01*
X18398234Y-13321257D02*
X18417281Y-13311733D01*
X18455377Y-13311733D01*
X18474424Y-13321257D01*
X18483948Y-13330781D01*
X18493472Y-13349828D01*
X18493472Y-13406971D01*
X18483948Y-13426019D01*
X18474424Y-13435543D01*
X18455377Y-13445066D01*
X18417281Y-13445066D01*
X18398234Y-13435543D01*
X18607758Y-13445066D02*
X18588710Y-13435543D01*
X18579186Y-13416495D01*
X18579186Y-13245066D01*
X18769662Y-13445066D02*
X18769662Y-13340305D01*
X18760139Y-13321257D01*
X18741091Y-13311733D01*
X18702996Y-13311733D01*
X18683948Y-13321257D01*
X18769662Y-13435543D02*
X18750615Y-13445066D01*
X18702996Y-13445066D01*
X18683948Y-13435543D01*
X18674424Y-13416495D01*
X18674424Y-13397447D01*
X18683948Y-13378400D01*
X18702996Y-13368876D01*
X18750615Y-13368876D01*
X18769662Y-13359352D01*
X18836329Y-13311733D02*
X18912520Y-13311733D01*
X18864900Y-13245066D02*
X18864900Y-13416495D01*
X18874424Y-13435543D01*
X18893472Y-13445066D01*
X18912520Y-13445066D01*
X19055377Y-13435543D02*
X19036329Y-13445066D01*
X18998234Y-13445066D01*
X18979186Y-13435543D01*
X18969662Y-13416495D01*
X18969662Y-13340305D01*
X18979186Y-13321257D01*
X18998234Y-13311733D01*
X19036329Y-13311733D01*
X19055377Y-13321257D01*
X19064900Y-13340305D01*
X19064900Y-13359352D01*
X18969662Y-13378400D01*
X19236329Y-13445066D02*
X19236329Y-13245066D01*
X19236329Y-13435543D02*
X19217281Y-13445066D01*
X19179186Y-13445066D01*
X19160139Y-13435543D01*
X19150615Y-13426019D01*
X19141091Y-13406971D01*
X19141091Y-13349828D01*
X19150615Y-13330781D01*
X19160139Y-13321257D01*
X19179186Y-13311733D01*
X19217281Y-13311733D01*
X19236329Y-13321257D01*
X19312520Y-13521257D02*
X19322043Y-13511733D01*
X19341091Y-13483162D01*
X19350615Y-13464114D01*
X19360139Y-13435543D01*
X19369662Y-13387924D01*
X19369662Y-13349828D01*
X19360139Y-13302209D01*
X19350615Y-13273638D01*
X19341091Y-13254590D01*
X19322043Y-13226019D01*
X19312520Y-13216495D01*
M02*
